<svg id="Ebene_1" data-name="Ebene 1" xmlns="http://www.w3.org/2000/svg" xmlns:xlink="http://www.w3.org/1999/xlink" viewBox="0 0 1053.27 80.75"><defs><style>.cls-1,.cls-3{fill:#fff;}.cls-1,.cls-5{stroke:#1d1d1b;stroke-miterlimit:10;}.cls-2{isolation:isolate;}.cls-4{clip-path:url(#clip-path);}.cls-5{fill:none;}.cls-6{clip-path:url(#clip-path-2);}.cls-7{clip-path:url(#clip-path-3);}.cls-8{clip-path:url(#clip-path-4);}.cls-9{clip-path:url(#clip-path-5);}.cls-10{clip-path:url(#clip-path-6);}.cls-11{clip-path:url(#clip-path-7);}.cls-12{clip-path:url(#clip-path-8);}.cls-13{clip-path:url(#clip-path-9);}.cls-14{clip-path:url(#clip-path-10);}.cls-15{clip-path:url(#clip-path-11);}.cls-16{clip-path:url(#clip-path-12);}.cls-17{clip-path:url(#clip-path-13);}.cls-18{clip-path:url(#clip-path-14);}.cls-19{clip-path:url(#clip-path-15);}.cls-20{clip-path:url(#clip-path-16);}.cls-21{clip-path:url(#clip-path-17);}.cls-22{clip-path:url(#clip-path-18);}.cls-23{clip-path:url(#clip-path-19);}.cls-24{clip-path:url(#clip-path-20);}.cls-25{clip-path:url(#clip-path-21);}.cls-26{clip-path:url(#clip-path-22);}.cls-27{clip-path:url(#clip-path-23);}.cls-28{clip-path:url(#clip-path-24);}.cls-29{clip-path:url(#clip-path-25);}.cls-30{clip-path:url(#clip-path-26);}.cls-31{clip-path:url(#clip-path-27);}.cls-32{clip-path:url(#clip-path-28);}.cls-33{clip-path:url(#clip-path-29);}.cls-34{clip-path:url(#clip-path-30);}.cls-35{clip-path:url(#clip-path-31);}.cls-36{clip-path:url(#clip-path-32);}.cls-37{clip-path:url(#clip-path-33);}.cls-38{clip-path:url(#clip-path-34);}.cls-39{clip-path:url(#clip-path-35);}.cls-40{clip-path:url(#clip-path-36);}</style><clipPath id="clip-path" transform="translate(-41.05 -523.93)"><path class="cls-1" d="M144.73,545.4l1.75,9.62a18.19,18.19,0,0,1,.26,4.38L145,549.78A18.71,18.71,0,0,0,144.73,545.4Z"/></clipPath><clipPath id="clip-path-2" transform="translate(-41.05 -523.93)"><path class="cls-1" d="M69,575.32l-1.76-9.62a15.16,15.16,0,0,1,.71-7.58C71.47,547.63,84.15,539,100.44,539a31.88,31.88,0,0,1,10.46,1.54c5.56,2,7.93,5.55,8.78,9.13l1.76,9.62c-.85-3.57-3.22-7.16-8.78-9.13a32,32,0,0,0-10.46-1.53c-16.29-.06-29,8.6-32.52,19.1A15,15,0,0,0,69,575.32Z"/></clipPath><clipPath id="clip-path-3" transform="translate(-41.05 -523.93)"><path class="cls-1" d="M205.1,557.54l1.76,9.62c-1.43-.09-2.88-.1-4.62-.1-13.23,0-20.94,4.23-23.77,12.57L176.71,570c2.83-8.34,10.54-12.63,23.77-12.58C202.22,557.44,203.68,557.44,205.1,557.54Z"/></clipPath><clipPath id="clip-path-4" transform="translate(-41.05 -523.93)"><path class="cls-1" d="M251.94,552.5l1.76,9.62c-8,0-14.65,3.27-18,7.93L234,560.42C237.29,555.77,243.94,552.47,251.94,552.5Z"/></clipPath><clipPath id="clip-path-5" transform="translate(-41.05 -523.93)"><path class="cls-1" d="M263.85,558.77l1.76,9.62c-.43-2.36-2.25-4.21-5.25-5.27a20.4,20.4,0,0,0-6.66-1l-1.76-9.62a20.35,20.35,0,0,1,6.66,1C261.6,554.56,263.42,556.41,263.85,558.77Z"/></clipPath><clipPath id="clip-path-6" transform="translate(-41.05 -523.93)"><path class="cls-1" d="M43.63,579.11l-1.75-9.62c1.42,7.76,7.49,14.23,18,18,6.09,2.16,13.68,3.4,22.72,3.43,27.91.1,48.21-10.43,56.55-23.87l1.75,9.63c-8.33,13.44-28.63,24-56.55,23.86-9,0-16.62-1.27-22.71-3.42C51.13,593.34,45.05,586.88,43.63,579.11Z"/></clipPath><clipPath id="clip-path-7" transform="translate(-41.05 -523.93)"><path class="cls-1" d="M232,582.53l-1.75-9.63a7.75,7.75,0,0,1,.08-3.06l1.75,9.62A8,8,0,0,0,232,582.53Z"/></clipPath><clipPath id="clip-path-8" transform="translate(-41.05 -523.93)"><path class="cls-1" d="M285.78,557.5l1.75,9.63a19.27,19.27,0,0,1-.95,9.66l-1.76-9.62A19.44,19.44,0,0,0,285.78,557.5Z"/></clipPath><clipPath id="clip-path-9" transform="translate(-41.05 -523.93)"><path class="cls-1" d="M345.83,557.1l1.76,9.62c-.23-1.25-1.22-2.26-3-2.9a17.31,17.31,0,0,0-5.6-.77c-6.83,0-11.52,2.21-13.09,5.16l-1.76-9.62c1.58-3,6.26-5.19,13.1-5.16a17.24,17.24,0,0,1,5.59.77C344.62,554.84,345.6,555.84,345.83,557.1Z"/></clipPath><clipPath id="clip-path-10" transform="translate(-41.05 -523.93)"><path class="cls-1" d="M370.17,554.54l1.75,9.62a12.16,12.16,0,0,1-.59,6.1l-1.76-9.62A12.18,12.18,0,0,0,370.17,554.54Z"/></clipPath><clipPath id="clip-path-11" transform="translate(-41.05 -523.93)"><path class="cls-1" d="M317.84,587.57,316.08,578a3.51,3.51,0,0,1,.16-1.7c1.22-3.58,6.67-4.64,13.8-5.07l1.76,9.63c-7.13.42-12.58,1.48-13.8,5.07A3.36,3.36,0,0,0,317.84,587.57Z"/></clipPath><clipPath id="clip-path-12" transform="translate(-41.05 -523.93)"><path class="cls-1" d="M209,584.89l-1.76-9.62c1.05,5.76,5.59,10.39,13.4,13.16,5.06,1.79,11.5,2.79,19.24,2.82,18.47.07,35.16-6.7,41.76-16.29l1.76,9.62c-6.6,9.59-23.3,16.36-41.76,16.29-7.75,0-14.18-1-19.24-2.82C214.55,595.28,210,590.66,209,584.89Z"/></clipPath><clipPath id="clip-path-13" transform="translate(-41.05 -523.93)"><path class="cls-1" d="M480.35,553.31l1.76,9.62c-8,0-14.64,3.28-18,7.93l-1.76-9.62C465.71,556.58,472.35,553.28,480.35,553.31Z"/></clipPath><clipPath id="clip-path-14" transform="translate(-41.05 -523.93)"><path class="cls-1" d="M492.27,559.59l1.76,9.62c-.43-2.36-2.26-4.21-5.26-5.27a20.34,20.34,0,0,0-6.66-1l-1.76-9.62a20.29,20.29,0,0,1,6.66,1C490,555.38,491.84,557.23,492.27,559.59Z"/></clipPath><clipPath id="clip-path-15" transform="translate(-41.05 -523.93)"><path class="cls-1" d="M411.19,585.26l-1.76-9.63a4.81,4.81,0,0,1,.26-2.36l1.76,9.62A4.72,4.72,0,0,0,411.19,585.26Z"/></clipPath><clipPath id="clip-path-16" transform="translate(-41.05 -523.93)"><path class="cls-1" d="M293.64,591.37l-1.76-9.62c.63,3.47,3.49,6.17,8.21,7.84a41.06,41.06,0,0,0,13.32,1.92c10.76,0,20.14-3.16,24.44-7.27l1.76,9.62c-4.3,4.12-13.68,7.31-24.44,7.28a41.14,41.14,0,0,1-13.33-1.93C297.12,597.54,294.27,594.85,293.64,591.37Z"/></clipPath><clipPath id="clip-path-17" transform="translate(-41.05 -523.93)"><path class="cls-1" d="M460.44,583.35l-1.76-9.63a7.94,7.94,0,0,1,.08-3.06l1.76,9.62A7.8,7.8,0,0,0,460.44,583.35Z"/></clipPath><clipPath id="clip-path-18" transform="translate(-41.05 -523.93)"><path class="cls-1" d="M514.19,558.31l1.76,9.63a19.28,19.28,0,0,1-1,9.66L513.24,568A19.26,19.26,0,0,0,514.19,558.31Z"/></clipPath><clipPath id="clip-path-19" transform="translate(-41.05 -523.93)"><path class="cls-1" d="M385.88,591.37l-1.76-9.62c.67,3.68,3.26,6.3,7.71,7.88a39.59,39.59,0,0,0,12.75,1.76,81.76,81.76,0,0,0,15.69-1.2l1.76,9.62a80.24,80.24,0,0,1-15.69,1.2,39.51,39.51,0,0,1-12.75-1.76C389.14,597.68,386.55,595.05,385.88,591.37Z"/></clipPath><clipPath id="clip-path-20" transform="translate(-41.05 -523.93)"><path class="cls-1" d="M437.37,585.71l-1.76-9.62c1.06,5.76,5.6,10.39,13.41,13.15,5.06,1.79,11.49,2.8,19.24,2.83,18.47.06,35.16-6.7,41.75-16.29l1.76,9.62c-6.59,9.59-23.28,16.35-41.76,16.29-7.74,0-14.18-1-19.23-2.83C443,596.1,438.42,591.47,437.37,585.71Z"/></clipPath><clipPath id="clip-path-21" transform="translate(-41.05 -523.93)"><path class="cls-1" d="M604.78,558l1.76,9.63c-.23-1.26-1.22-2.27-3-2.9a17.08,17.08,0,0,0-5.6-.77c-6.83,0-11.51,2.2-13.1,5.16l-1.75-9.63c1.58-3,6.26-5.18,13.09-5.16a17.59,17.59,0,0,1,5.6.77C603.56,555.76,604.55,556.77,604.78,558Z"/></clipPath><clipPath id="clip-path-22" transform="translate(-41.05 -523.93)"><path class="cls-1" d="M629.11,555.46l1.76,9.62a12.06,12.06,0,0,1-.6,6.1l-1.75-9.62A12.17,12.17,0,0,0,629.11,555.46Z"/></clipPath><clipPath id="clip-path-23" transform="translate(-41.05 -523.93)"><path class="cls-1" d="M576.79,588.5,575,578.87a3.36,3.36,0,0,1,.16-1.69c1.22-3.59,6.67-4.65,13.8-5.07l1.76,9.62c-7.13.43-12.58,1.48-13.8,5.07A3.29,3.29,0,0,0,576.79,588.5Z"/></clipPath><clipPath id="clip-path-24" transform="translate(-41.05 -523.93)"><path class="cls-1" d="M552.58,592.3l-1.76-9.63c.64,3.48,3.49,6.17,8.21,7.84a41.16,41.16,0,0,0,13.34,1.93c10.75,0,20.13-3.17,24.44-7.28l1.75,9.62c-4.3,4.12-13.68,7.32-24.44,7.28a41.16,41.16,0,0,1-13.33-1.92C556.07,598.47,553.22,595.77,552.58,592.3Z"/></clipPath><clipPath id="clip-path-25" transform="translate(-41.05 -523.93)"><path class="cls-1" d="M728.26,537.4,730,547a43.74,43.74,0,0,0-6-.38c-6.4,0-10.3,2-11.48,5.53l-1.76-9.62c1.19-3.5,5.09-5.56,11.48-5.53A42.16,42.16,0,0,1,728.26,537.4Z"/></clipPath><clipPath id="clip-path-26" transform="translate(-41.05 -523.93)"><path class="cls-1" d="M779.56,563.81l1.76,9.63c-.51-2.8-2.48-5.23-6.13-6.52a19.56,19.56,0,0,0-6.45-1c-10.76,0-18.37,6.14-20.41,12.15a9.62,9.62,0,0,0-.42,4.75l-1.76-9.63a9.64,9.64,0,0,1,.42-4.75c2-6,9.66-12.18,20.41-12.14a19.67,19.67,0,0,1,6.46,1C777.09,558.59,779.05,561,779.56,563.81Z"/></clipPath><clipPath id="clip-path-27" transform="translate(-41.05 -523.93)"><path class="cls-1" d="M804,560.58l1.76,9.63a16.13,16.13,0,0,1-.72,8.07l-1.76-9.63A16,16,0,0,0,804,560.58Z"/></clipPath><clipPath id="clip-path-28" transform="translate(-41.05 -523.93)"><path class="cls-1" d="M910.23,563.88l1.76,9.63c-.5-2.76-2.45-4.87-5.72-6a20.07,20.07,0,0,0-6.55-1c-10.18,0-18.14,5.86-20.24,12a9.24,9.24,0,0,0-.41,4.64l-1.76-9.62a9.34,9.34,0,0,1,.41-4.64c2.1-6.19,10.06-12.09,20.24-12a19.8,19.8,0,0,1,6.55,1C907.78,559,909.73,561.13,910.23,563.88Z"/></clipPath><clipPath id="clip-path-29" transform="translate(-41.05 -523.93)"><path class="cls-1" d="M723.47,586.05l-1.75-9.62c1.1,6,6.1,10.94,14.27,13.83a56.59,56.59,0,0,0,18.55,2.83c24,.08,44.07-10.62,48.74-24.44l1.76,9.63c-4.68,13.81-24.75,24.51-48.74,24.43a56.87,56.87,0,0,1-18.55-2.82C729.58,597,724.57,592.08,723.47,586.05Z"/></clipPath><clipPath id="clip-path-30" transform="translate(-41.05 -523.93)"><path class="cls-1" d="M990.12,555.13l1.76,9.62c-8,0-14.66,3.27-18,7.93l-1.75-9.62C975.47,558.4,982.12,555.1,990.12,555.13Z"/></clipPath><clipPath id="clip-path-31" transform="translate(-41.05 -523.93)"><path class="cls-1" d="M1002,561.4l1.75,9.62c-.43-2.36-2.25-4.21-5.25-5.27a20.29,20.29,0,0,0-6.65-1l-1.76-9.62a20.35,20.35,0,0,1,6.66,1C999.78,557.19,1001.6,559,1002,561.4Z"/></clipPath><clipPath id="clip-path-32" transform="translate(-41.05 -523.93)"><path class="cls-1" d="M970.2,585.16l-1.76-9.63a7.94,7.94,0,0,1,.08-3.06l1.76,9.63A7.94,7.94,0,0,0,970.2,585.16Z"/></clipPath><clipPath id="clip-path-33" transform="translate(-41.05 -523.93)"><path class="cls-1" d="M854.23,587.51l-1.76-9.63c1.09,6,5.72,10.8,13.15,13.44a43.63,43.63,0,0,0,14.26,2.21c11.34.05,19.49-3,24.76-7.36l1.76,9.62c-5.27,4.38-13.43,7.41-24.77,7.36a43.34,43.34,0,0,1-14.25-2.21C859.94,598.31,855.32,593.51,854.23,587.51Z"/></clipPath><clipPath id="clip-path-34" transform="translate(-41.05 -523.93)"><path class="cls-1" d="M1024,560.13l1.76,9.62a19.32,19.32,0,0,1-1,9.67l-1.75-9.63A19.26,19.26,0,0,0,1024,560.13Z"/></clipPath><clipPath id="clip-path-35" transform="translate(-41.05 -523.93)"><path class="cls-1" d="M1087.07,560.68l1.76,9.62c-1.42-.09-2.87-.1-4.62-.1-13.23,0-20.94,4.24-23.76,12.58l-1.76-9.62c2.82-8.35,10.53-12.63,23.77-12.58C1084.2,560.58,1085.65,560.59,1087.07,560.68Z"/></clipPath><clipPath id="clip-path-36" transform="translate(-41.05 -523.93)"><path class="cls-1" d="M947.13,587.53l-1.75-9.63c1,5.76,5.59,10.39,13.4,13.16,5.06,1.79,11.49,2.79,19.24,2.82,18.47.07,35.16-6.69,41.75-16.28l1.76,9.62c-6.6,9.59-23.29,16.35-41.75,16.28-7.75,0-14.19-1-19.25-2.82C952.72,597.91,948.18,593.29,947.13,587.53Z"/></clipPath></defs><g class="cls-2"><g class="cls-2"><path class="cls-3" d="M144.73,545.4l1.75,9.62a18.19,18.19,0,0,1,.26,4.38L145,549.78A18.71,18.71,0,0,0,144.73,545.4Z" transform="translate(-41.05 -523.93)"/><g class="cls-4"><g class="cls-2"><path class="cls-1" d="M144.73,545.4l1.75,9.62c0,.15.06.31.08.46l-1.76-9.62c0-.16-.05-.31-.07-.46" transform="translate(-41.05 -523.93)"/><path class="cls-1" d="M144.8,545.86l1.76,9.62a17.39,17.39,0,0,1,.21,3.08L145,548.93a17.35,17.35,0,0,0-.21-3.07" transform="translate(-41.05 -523.93)"/><path class="cls-1" d="M145,548.93l1.76,9.63q0,.42,0,.84L145,549.78c0-.29,0-.57,0-.85" transform="translate(-41.05 -523.93)"/></g></g><path class="cls-5" d="M144.73,545.4l1.75,9.62a18.19,18.19,0,0,1,.26,4.38L145,549.78A18.71,18.71,0,0,0,144.73,545.4Z" transform="translate(-41.05 -523.93)"/></g><polygon class="cls-1" points="103.93 25.85 105.69 35.47 80.39 35.38 78.63 25.76 103.93 25.85"/><g class="cls-2"><path class="cls-3" d="M69,575.32l-1.76-9.62a15.16,15.16,0,0,1,.71-7.58C71.47,547.63,84.15,539,100.44,539a31.88,31.88,0,0,1,10.46,1.54c5.56,2,7.93,5.55,8.78,9.13l1.76,9.62c-.85-3.57-3.22-7.16-8.78-9.13a32,32,0,0,0-10.46-1.53c-16.29-.06-29,8.6-32.52,19.1A15,15,0,0,0,69,575.32Z" transform="translate(-41.05 -523.93)"/><g class="cls-6"><g class="cls-2"><path class="cls-1" d="M119.68,549.69l1.76,9.62c-.85-3.57-3.22-7.16-8.78-9.13a24.19,24.19,0,0,0-3.42-.91l-1.76-9.62a23.84,23.84,0,0,1,3.42.91c5.56,2,7.93,5.55,8.78,9.13" transform="translate(-41.05 -523.93)"/><path class="cls-1" d="M107.48,539.65l1.76,9.62a30.45,30.45,0,0,0-3.12-.44l-1.76-9.62a30.45,30.45,0,0,1,3.12.44" transform="translate(-41.05 -523.93)"/><path class="cls-1" d="M104.36,539.21l1.76,9.62c-1-.09-2-.15-3.1-.17L101.27,539c1.09,0,2.12.08,3.09.18" transform="translate(-41.05 -523.93)"/><path class="cls-1" d="M101.27,539l1.75,9.63h-.82c-.7,0-1.4,0-2.09,0l-1.75-9.63c.68,0,1.38,0,2.08,0h.83" transform="translate(-41.05 -523.93)"/><path class="cls-1" d="M98.36,539.06l1.75,9.63c-.87,0-1.72.1-2.57.18l-1.76-9.62c.85-.09,1.71-.15,2.58-.19" transform="translate(-41.05 -523.93)"/><path class="cls-1" d="M95.78,539.25l1.76,9.62c-.82.09-1.63.19-2.43.32l-1.76-9.62c.8-.13,1.61-.24,2.43-.32" transform="translate(-41.05 -523.93)"/><path class="cls-1" d="M93.35,539.57l1.76,9.62c-.82.13-1.62.28-2.41.46L90.94,540c.79-.17,1.6-.32,2.41-.45" transform="translate(-41.05 -523.93)"/><path class="cls-1" d="M90.94,540l1.76,9.63c-.87.19-1.73.41-2.56.65l-1.76-9.62c.84-.24,1.69-.46,2.56-.66" transform="translate(-41.05 -523.93)"/><path class="cls-1" d="M88.38,540.68l1.76,9.62c-1,.29-2,.62-2.94,1l-1.75-9.62c1-.36,1.93-.69,2.93-1" transform="translate(-41.05 -523.93)"/><path class="cls-1" d="M85.45,541.66l1.75,9.62a36.72,36.72,0,0,0-4.35,2l-1.76-9.63a36.83,36.83,0,0,1,4.36-2" transform="translate(-41.05 -523.93)"/><path class="cls-1" d="M81.09,543.64l1.76,9.63a32.13,32.13,0,0,0-6.15,4.27l-1.76-9.63a33.38,33.38,0,0,1,6.15-4.27" transform="translate(-41.05 -523.93)"/><path class="cls-1" d="M74.94,547.91l1.76,9.63A26.91,26.91,0,0,0,73,561.6L71.2,552a27.39,27.39,0,0,1,3.74-4.07" transform="translate(-41.05 -523.93)"/><path class="cls-1" d="M71.2,552,73,561.6a24.26,24.26,0,0,0-2,3.14l-1.76-9.63a23.85,23.85,0,0,1,2-3.13" transform="translate(-41.05 -523.93)"/><path class="cls-1" d="M69.21,555.11,71,564.74a20.74,20.74,0,0,0-1.26,2.92L68,558a21.38,21.38,0,0,1,1.26-2.93" transform="translate(-41.05 -523.93)"/><path class="cls-1" d="M68,558l1.76,9.62,0,.09a17.88,17.88,0,0,0-.68,2.63l-1.76-9.63a17.88,17.88,0,0,1,.68-2.63l0-.08" transform="translate(-41.05 -523.93)"/><path class="cls-1" d="M67.24,560.75,69,570.38a14.36,14.36,0,0,0-.24,2.41L67,563.17a15.7,15.7,0,0,1,.23-2.42" transform="translate(-41.05 -523.93)"/><path class="cls-1" d="M67,563.17l1.75,9.62a13.38,13.38,0,0,0,.15,2.21l-1.75-9.63a11.41,11.41,0,0,1-.15-2.2" transform="translate(-41.05 -523.93)"/><path class="cls-1" d="M67.16,565.37,68.91,575l.06.32-1.76-9.62c0-.11,0-.22,0-.33" transform="translate(-41.05 -523.93)"/></g></g><path class="cls-5" d="M69,575.32l-1.76-9.62a15.16,15.16,0,0,1,.71-7.58C71.47,547.63,84.15,539,100.44,539a31.88,31.88,0,0,1,10.46,1.54c5.56,2,7.93,5.55,8.78,9.13l1.76,9.62c-.85-3.57-3.22-7.16-8.78-9.13a32,32,0,0,0-10.46-1.53c-16.29-.06-29,8.6-32.52,19.1A15,15,0,0,0,69,575.32Z" transform="translate(-41.05 -523.93)"/></g><polygon class="cls-1" points="143.81 18.99 145.57 28.61 142.11 38.84 140.35 29.21 143.81 18.99"/><polygon class="cls-1" points="169.03 18.9 170.78 28.52 165.8 43.23 164.05 33.61 169.03 18.9"/><g class="cls-2"><path class="cls-3" d="M205.1,557.54l1.76,9.62c-1.43-.09-2.88-.1-4.62-.1-13.23,0-20.94,4.23-23.77,12.57L176.71,570c2.83-8.34,10.54-12.63,23.77-12.58C202.22,557.44,203.68,557.44,205.1,557.54Z" transform="translate(-41.05 -523.93)"/><g class="cls-7"><g class="cls-2"><path class="cls-1" d="M205.1,557.54l1.76,9.62c-.67,0-1.33-.07-2-.08l-1.75-9.62c.7,0,1.37,0,2,.08" transform="translate(-41.05 -523.93)"/><path class="cls-1" d="M203.07,557.46l1.75,9.62c-.8,0-1.65,0-2.58,0s-1.75,0-2.58.05l-1.76-9.63c.84,0,1.7-.05,2.58-.05s1.78,0,2.59,0" transform="translate(-41.05 -523.93)"/><path class="cls-1" d="M197.9,557.48l1.76,9.63c-.95,0-1.87.1-2.75.19l-1.76-9.62c.89-.09,1.8-.16,2.75-.2" transform="translate(-41.05 -523.93)"/><path class="cls-1" d="M195.15,557.68l1.76,9.62c-.77.08-1.52.17-2.24.29L192.91,558c.72-.12,1.47-.21,2.24-.29" transform="translate(-41.05 -523.93)"/><path class="cls-1" d="M192.91,558l1.76,9.62c-.68.11-1.33.23-2,.37L191,558.34c.63-.14,1.28-.26,2-.37" transform="translate(-41.05 -523.93)"/><path class="cls-1" d="M191,558.34,192.7,568c-.63.14-1.25.3-1.84.47l-1.76-9.62c.6-.17,1.21-.33,1.85-.47" transform="translate(-41.05 -523.93)"/><path class="cls-1" d="M189.1,558.81l1.76,9.62c-.66.19-1.28.4-1.89.63l-1.76-9.62q.91-.35,1.89-.63" transform="translate(-41.05 -523.93)"/><path class="cls-1" d="M187.21,559.44l1.76,9.62a20.69,20.69,0,0,0-2.56,1.16l-1.76-9.62a20.69,20.69,0,0,1,2.56-1.16" transform="translate(-41.05 -523.93)"/><path class="cls-1" d="M184.65,560.6l1.76,9.62a17.26,17.26,0,0,0-3.3,2.29l-1.76-9.62a17.26,17.26,0,0,1,3.3-2.29" transform="translate(-41.05 -523.93)"/><path class="cls-1" d="M181.35,562.89l1.76,9.62a15.76,15.76,0,0,0-2.18,2.37l-1.75-9.63a15.58,15.58,0,0,1,2.17-2.36" transform="translate(-41.05 -523.93)"/><path class="cls-1" d="M179.18,565.25l1.75,9.63a16.52,16.52,0,0,0-1.36,2.17l-1.76-9.62a15.7,15.7,0,0,1,1.37-2.18" transform="translate(-41.05 -523.93)"/><path class="cls-1" d="M177.81,567.43l1.76,9.62a16.88,16.88,0,0,0-1.08,2.53L176.73,570a16.76,16.76,0,0,1,1.08-2.52" transform="translate(-41.05 -523.93)"/><path class="cls-1" d="M176.73,570l1.76,9.63,0,0L176.71,570l0-.06" transform="translate(-41.05 -523.93)"/></g></g><path class="cls-5" d="M205.1,557.54l1.76,9.62c-1.43-.09-2.88-.1-4.62-.1-13.23,0-20.94,4.23-23.77,12.57L176.71,570c2.83-8.34,10.54-12.63,23.77-12.58C202.22,557.44,203.68,557.44,205.1,557.54Z" transform="translate(-41.05 -523.93)"/></g><g class="cls-2"><path class="cls-3" d="M251.94,552.5l1.76,9.62c-8,0-14.65,3.27-18,7.93L234,560.42C237.29,555.77,243.94,552.47,251.94,552.5Z" transform="translate(-41.05 -523.93)"/><g class="cls-8"><g class="cls-2"><path class="cls-1" d="M251.94,552.5l1.76,9.62c-.45,0-.89,0-1.33,0l-1.75-9.63c.43,0,.87,0,1.32,0" transform="translate(-41.05 -523.93)"/><path class="cls-1" d="M250.62,552.52l1.75,9.63c-.54,0-1.08.06-1.62.11L249,552.64c.53-.06,1.07-.09,1.62-.12" transform="translate(-41.05 -523.93)"/><path class="cls-1" d="M249,552.64l1.75,9.62c-.51,0-1,.12-1.53.2l-1.75-9.62c.5-.08,1-.15,1.53-.2" transform="translate(-41.05 -523.93)"/><path class="cls-1" d="M247.47,552.84l1.75,9.62c-.51.08-1,.18-1.51.29L246,553.13c.5-.11,1-.21,1.52-.29" transform="translate(-41.05 -523.93)"/><path class="cls-1" d="M246,553.13l1.76,9.62c-.54.12-1.06.25-1.58.4l-1.75-9.62c.51-.15,1-.29,1.57-.4" transform="translate(-41.05 -523.93)"/><path class="cls-1" d="M244.38,553.53l1.75,9.62c-.62.18-1.22.38-1.81.61l-1.75-9.63c.58-.22,1.19-.42,1.81-.6" transform="translate(-41.05 -523.93)"/><path class="cls-1" d="M242.57,554.13l1.75,9.63a20.44,20.44,0,0,0-2.68,1.22l-1.76-9.62a22,22,0,0,1,2.69-1.23" transform="translate(-41.05 -523.93)"/><path class="cls-1" d="M239.88,555.36l1.76,9.62a18.93,18.93,0,0,0-3.59,2.5l-1.76-9.62a18.79,18.79,0,0,1,3.59-2.5" transform="translate(-41.05 -523.93)"/><path class="cls-1" d="M236.29,557.86l1.76,9.62a15.5,15.5,0,0,0-2.14,2.32l-1.76-9.63a16,16,0,0,1,2.14-2.31" transform="translate(-41.05 -523.93)"/><path class="cls-1" d="M234.15,560.17l1.76,9.63-.18.25L234,560.42l.18-.25" transform="translate(-41.05 -523.93)"/></g></g><path class="cls-5" d="M251.94,552.5l1.76,9.62c-8,0-14.65,3.27-18,7.93L234,560.42C237.29,555.77,243.94,552.47,251.94,552.5Z" transform="translate(-41.05 -523.93)"/></g><g class="cls-2"><path class="cls-3" d="M263.85,558.77l1.76,9.62c-.43-2.36-2.25-4.21-5.25-5.27a20.4,20.4,0,0,0-6.66-1l-1.76-9.62a20.35,20.35,0,0,1,6.66,1C261.6,554.56,263.42,556.41,263.85,558.77Z" transform="translate(-41.05 -523.93)"/><g class="cls-9"><g class="cls-2"><path class="cls-1" d="M263.85,558.77l1.76,9.62c-.43-2.36-2.25-4.21-5.25-5.27a15.48,15.48,0,0,0-2.26-.6l-1.76-9.63a16.84,16.84,0,0,1,2.26.61c3,1.06,4.82,2.91,5.25,5.27" transform="translate(-41.05 -523.93)"/><path class="cls-1" d="M256.34,552.89l1.76,9.63a20,20,0,0,0-2-.29l-1.75-9.62c.7.07,1.37.16,2,.28" transform="translate(-41.05 -523.93)"/><path class="cls-1" d="M254.33,552.61l1.75,9.62c-.6-.06-1.23-.09-1.89-.1l-1.76-9.63c.66,0,1.29,0,1.9.11" transform="translate(-41.05 -523.93)"/><path class="cls-1" d="M252.43,552.5l1.76,9.63h-.49l-1.76-9.62h.49" transform="translate(-41.05 -523.93)"/></g></g><path class="cls-5" d="M263.85,558.77l1.76,9.62c-.43-2.36-2.25-4.21-5.25-5.27a20.4,20.4,0,0,0-6.66-1l-1.76-9.62a20.35,20.35,0,0,1,6.66,1C261.6,554.56,263.42,556.41,263.85,558.77Z" transform="translate(-41.05 -523.93)"/></g><g class="cls-2"><path class="cls-3" d="M43.63,579.11l-1.75-9.62c1.42,7.76,7.49,14.23,18,18,6.09,2.16,13.68,3.4,22.72,3.43,27.91.1,48.21-10.43,56.55-23.87l1.75,9.63c-8.33,13.44-28.63,24-56.55,23.86-9,0-16.62-1.27-22.71-3.42C51.13,593.34,45.05,586.88,43.63,579.11Z" transform="translate(-41.05 -523.93)"/><g class="cls-10"><g class="cls-2"><path class="cls-1" d="M139.16,567l1.75,9.63c-.49.8-1,1.59-1.62,2.37l-1.76-9.62c.59-.78,1.13-1.57,1.63-2.38" transform="translate(-41.05 -523.93)"/><path class="cls-1" d="M137.53,569.38l1.76,9.62a39.33,39.33,0,0,1-5.45,5.89l-1.76-9.62a38.82,38.82,0,0,0,5.45-5.89" transform="translate(-41.05 -523.93)"/><path class="cls-1" d="M132.08,575.27l1.76,9.62a51.36,51.36,0,0,1-9.62,6.66l-1.76-9.62a51.36,51.36,0,0,0,9.62-6.66" transform="translate(-41.05 -523.93)"/><path class="cls-1" d="M122.46,581.93l1.76,9.62a66,66,0,0,1-7.9,3.6l-1.76-9.62a65.29,65.29,0,0,0,7.9-3.6" transform="translate(-41.05 -523.93)"/><path class="cls-1" d="M114.56,585.53l1.76,9.62c-1.8.68-3.67,1.31-5.62,1.87l-1.76-9.62q2.93-.85,5.62-1.87" transform="translate(-41.05 -523.93)"/><path class="cls-1" d="M108.94,587.4,110.7,597c-1.64.48-3.34.91-5.08,1.3l-1.76-9.63c1.75-.38,3.44-.82,5.08-1.29" transform="translate(-41.05 -523.93)"/><path class="cls-1" d="M103.86,588.69l1.76,9.63c-1.65.36-3.35.68-5.08,1l-1.76-9.62q2.61-.42,5.08-1" transform="translate(-41.05 -523.93)"/><path class="cls-1" d="M98.78,589.66l1.76,9.62q-2.61.42-5.34.7l-1.76-9.63q2.73-.27,5.34-.69" transform="translate(-41.05 -523.93)"/><path class="cls-1" d="M93.44,590.35,95.2,600q-2.88.28-5.88.42l-1.76-9.63q3-.12,5.88-.42" transform="translate(-41.05 -523.93)"/><path class="cls-1" d="M87.56,590.77l1.76,9.63c-1.62.07-3.28.1-5,.09l-1.66,0-1.76-9.62,1.67,0c1.68,0,3.33,0,5-.1" transform="translate(-41.05 -523.93)"/><path class="cls-1" d="M80.94,590.85l1.76,9.62c-2.25,0-4.41-.17-6.47-.36l-1.75-9.62q3.09.28,6.46.36" transform="translate(-41.05 -523.93)"/><path class="cls-1" d="M74.48,590.49l1.75,9.62c-2.41-.23-4.7-.55-6.85-1l-1.76-9.62c2.15.41,4.44.74,6.86,1" transform="translate(-41.05 -523.93)"/><path class="cls-1" d="M67.62,589.52l1.76,9.62a53.84,53.84,0,0,1-7.73-2.07c-10.52-3.73-16.6-10.19-18-18l-1.75-9.62c1.42,7.76,7.49,14.23,18,18a53.82,53.82,0,0,0,7.73,2.08" transform="translate(-41.05 -523.93)"/></g></g><path class="cls-5" d="M43.63,579.11l-1.75-9.62c1.42,7.76,7.49,14.23,18,18,6.09,2.16,13.68,3.4,22.72,3.43,27.91.1,48.21-10.43,56.55-23.87l1.75,9.63c-8.33,13.44-28.63,24-56.55,23.86-9,0-16.62-1.27-22.71-3.42C51.13,593.34,45.05,586.88,43.63,579.11Z" transform="translate(-41.05 -523.93)"/></g><path class="cls-1" d="M128.05,529c11.89,4.2,17.45,11.87,16.93,20.77l-25.3-.09c-.85-3.58-3.22-7.16-8.78-9.13A31.88,31.88,0,0,0,100.44,539c-16.29-.06-29,8.61-32.52,19.1-2.64,7.83.46,14.67,9,17.67a31.93,31.93,0,0,0,10.58,1.62c13.38.05,21.56-5.22,26.41-10.5l25.3.09c-8.34,13.44-28.64,24-56.55,23.87-9,0-16.63-1.27-22.72-3.43-15.38-5.44-21.26-16.75-17-29.4,6-17.68,30-32.59,61.79-32.48C114.17,525.6,121.94,526.85,128.05,529Z" transform="translate(-41.05 -523.93)"/><g class="cls-2"><path class="cls-3" d="M232,582.53l-1.75-9.63a7.75,7.75,0,0,1,.08-3.06l1.75,9.62A8,8,0,0,0,232,582.53Z" transform="translate(-41.05 -523.93)"/><g class="cls-11"><g class="cls-2"><path class="cls-1" d="M230.35,569.84l1.75,9.62-.06.31-1.75-9.63a1.59,1.59,0,0,1,.06-.3" transform="translate(-41.05 -523.93)"/><path class="cls-1" d="M230.29,570.14l1.75,9.63a9.06,9.06,0,0,0-.13,1.36l-1.76-9.63a8.15,8.15,0,0,1,.14-1.36" transform="translate(-41.05 -523.93)"/><path class="cls-1" d="M230.15,571.5l1.76,9.63a7.08,7.08,0,0,0,.08,1.22l-1.75-9.62a8.28,8.28,0,0,1-.09-1.23" transform="translate(-41.05 -523.93)"/><path class="cls-1" d="M230.24,572.73l1.75,9.62,0,.18-1.75-9.63,0-.17" transform="translate(-41.05 -523.93)"/></g></g><path class="cls-5" d="M232,582.53l-1.75-9.63a7.75,7.75,0,0,1,.08-3.06l1.75,9.62A8,8,0,0,0,232,582.53Z" transform="translate(-41.05 -523.93)"/></g><polygon class="cls-1" points="283.06 34.66 284.82 44.28 261.7 44.2 259.94 34.58 283.06 34.66"/><g class="cls-2"><path class="cls-3" d="M285.78,557.5l1.75,9.63a19.27,19.27,0,0,1-.95,9.66l-1.76-9.62A19.44,19.44,0,0,0,285.78,557.5Z" transform="translate(-41.05 -523.93)"/><g class="cls-12"><g class="cls-2"><path class="cls-1" d="M285.78,557.5l1.75,9.63c0,.13.05.26.07.39l-1.76-9.62-.06-.4" transform="translate(-41.05 -523.93)"/><path class="cls-1" d="M285.84,557.9l1.76,9.62a15.23,15.23,0,0,1,.18,2.72L286,560.62a16.21,16.21,0,0,0-.19-2.72" transform="translate(-41.05 -523.93)"/><path class="cls-1" d="M286,560.62l1.75,9.62a18.13,18.13,0,0,1-.3,3.07l-1.75-9.62a20.57,20.57,0,0,0,.3-3.07" transform="translate(-41.05 -523.93)"/><path class="cls-1" d="M285.73,563.69l1.75,9.62a24.13,24.13,0,0,1-.9,3.48l-1.76-9.62a25.59,25.59,0,0,0,.91-3.48" transform="translate(-41.05 -523.93)"/></g></g><path class="cls-5" d="M285.78,557.5l1.75,9.63a19.27,19.27,0,0,1-.95,9.66l-1.76-9.62A19.44,19.44,0,0,0,285.78,557.5Z" transform="translate(-41.05 -523.93)"/></g><g class="cls-2"><path class="cls-3" d="M345.83,557.1l1.76,9.62c-.23-1.25-1.22-2.26-3-2.9a17.31,17.31,0,0,0-5.6-.77c-6.83,0-11.52,2.21-13.09,5.16l-1.76-9.62c1.58-3,6.26-5.19,13.1-5.16a17.24,17.24,0,0,1,5.59.77C344.62,554.84,345.6,555.84,345.83,557.1Z" transform="translate(-41.05 -523.93)"/><g class="cls-13"><g class="cls-2"><path class="cls-1" d="M345.83,557.1l1.76,9.62c-.23-1.25-1.22-2.26-3-2.9a12.06,12.06,0,0,0-1.61-.43l-1.76-9.62a11.67,11.67,0,0,1,1.61.43c1.81.64,2.79,1.64,3,2.9" transform="translate(-41.05 -523.93)"/><path class="cls-1" d="M341.2,553.77l1.76,9.62c-.51-.1-1.07-.17-1.66-.23l-1.76-9.62a15.12,15.12,0,0,1,1.66.23" transform="translate(-41.05 -523.93)"/><path class="cls-1" d="M339.54,553.54l1.76,9.62c-.56,0-1.16-.09-1.8-.1l-1.76-9.62c.64,0,1.24,0,1.8.1" transform="translate(-41.05 -523.93)"/><path class="cls-1" d="M337.74,553.44l1.76,9.62H339c-.47,0-.93,0-1.39,0l-1.76-9.62c.46,0,.92,0,1.4,0h.52" transform="translate(-41.05 -523.93)"/><path class="cls-1" d="M335.82,553.46l1.76,9.62c-.54,0-1.07.06-1.58.11l-1.76-9.62c.51-.05,1-.09,1.58-.11" transform="translate(-41.05 -523.93)"/><path class="cls-1" d="M334.24,553.57l1.76,9.62c-.47,0-.93.11-1.37.18l-1.76-9.62c.44-.07.9-.13,1.37-.18" transform="translate(-41.05 -523.93)"/><path class="cls-1" d="M332.87,553.75l1.76,9.62q-.66.11-1.26.24L331.61,554q.61-.13,1.26-.24" transform="translate(-41.05 -523.93)"/><path class="cls-1" d="M331.61,554l1.76,9.62c-.42.09-.82.2-1.21.31l-1.76-9.62c.39-.12.79-.22,1.21-.31" transform="translate(-41.05 -523.93)"/><path class="cls-1" d="M330.4,554.3l1.76,9.62c-.44.13-.87.27-1.27.42l-1.76-9.62c.41-.15.83-.3,1.27-.42" transform="translate(-41.05 -523.93)"/><path class="cls-1" d="M329.13,554.72l1.76,9.62a11.79,11.79,0,0,0-1.64.75l-1.76-9.63a13.07,13.07,0,0,1,1.64-.74" transform="translate(-41.05 -523.93)"/><path class="cls-1" d="M327.49,555.46l1.76,9.63a9.78,9.78,0,0,0-1.89,1.29l-1.76-9.62a10.47,10.47,0,0,1,1.89-1.3" transform="translate(-41.05 -523.93)"/><path class="cls-1" d="M325.6,556.76l1.76,9.62a7.87,7.87,0,0,0-1,1.09l-1.75-9.63a7.2,7.2,0,0,1,1-1.08" transform="translate(-41.05 -523.93)"/><path class="cls-1" d="M324.6,557.84l1.75,9.63a5.39,5.39,0,0,0-.47.74l-1.76-9.62a6.28,6.28,0,0,1,.48-.75" transform="translate(-41.05 -523.93)"/></g></g><path class="cls-5" d="M345.83,557.1l1.76,9.62c-.23-1.25-1.22-2.26-3-2.9a17.31,17.31,0,0,0-5.6-.77c-6.83,0-11.52,2.21-13.09,5.16l-1.76-9.62c1.58-3,6.26-5.19,13.1-5.16a17.24,17.24,0,0,1,5.59.77C344.62,554.84,345.6,555.84,345.83,557.1Z" transform="translate(-41.05 -523.93)"/></g><polygon class="cls-1" points="382.81 7.44 384.57 17.07 380.39 29.45 378.63 19.82 382.81 7.44"/><polygon class="cls-1" points="128.93 66 130.68 75.62 106.26 75.53 104.5 65.91 128.93 66"/><polygon class="cls-1" points="135.66 46.08 137.41 55.7 130.68 75.62 128.93 66 135.66 46.08"/><path class="cls-1" d="M210.08,542.83l-5,14.71c-1.42-.1-2.88-.1-4.62-.11-13.23,0-20.94,4.24-23.77,12.58L170,589.93l-24.42-.09,15.89-47,23.42.09-3.46,10.22c4-6.27,11.93-10.73,23.12-10.69A30.47,30.47,0,0,1,210.08,542.83Z" transform="translate(-41.05 -523.93)"/><polygon class="cls-1" points="243.77 43.24 245.53 52.86 244.55 55.73 242.8 46.1 243.77 43.24"/><polygon class="cls-1" points="242.8 46.1 244.55 55.73 191.05 55.53 189.29 45.91 242.8 46.1"/><polygon class="cls-1" points="350.13 31.76 351.89 41.38 340.84 41.34 339.08 31.72 350.13 31.76"/><g class="cls-2"><path class="cls-3" d="M370.17,554.54l1.75,9.62a12.16,12.16,0,0,1-.59,6.1l-1.76-9.62A12.18,12.18,0,0,0,370.17,554.54Z" transform="translate(-41.05 -523.93)"/><g class="cls-14"><g class="cls-2"><path class="cls-1" d="M370.17,554.54l1.75,9.62c0,.08,0,.17.05.25l-1.76-9.62c0-.09,0-.17,0-.25" transform="translate(-41.05 -523.93)"/><path class="cls-1" d="M370.21,554.79l1.76,9.62a10.94,10.94,0,0,1,.11,1.73l-1.75-9.62a9.86,9.86,0,0,0-.12-1.73" transform="translate(-41.05 -523.93)"/><path class="cls-1" d="M370.33,556.52l1.75,9.62a11.75,11.75,0,0,1-.18,1.93l-1.76-9.62a11.89,11.89,0,0,0,.19-1.93" transform="translate(-41.05 -523.93)"/><path class="cls-1" d="M370.14,558.45l1.76,9.62a16.11,16.11,0,0,1-.57,2.19l-1.76-9.62a16.11,16.11,0,0,0,.57-2.19" transform="translate(-41.05 -523.93)"/></g></g><path class="cls-5" d="M370.17,554.54l1.75,9.62a12.16,12.16,0,0,1-.59,6.1l-1.76-9.62A12.18,12.18,0,0,0,370.17,554.54Z" transform="translate(-41.05 -523.93)"/></g><polygon class="cls-1" points="300.72 46.58 302.48 56.2 290.74 56.88 288.99 47.26 300.72 46.58"/><polygon class="cls-1" points="394.76 19.88 396.52 29.5 392.45 41.52 390.7 31.9 394.76 19.88"/><polygon class="cls-1" points="390.7 31.9 392.45 41.52 376.32 41.47 374.56 31.84 390.7 31.9"/><g class="cls-2"><path class="cls-3" d="M317.84,587.57,316.08,578a3.51,3.51,0,0,1,.16-1.7c1.22-3.58,6.67-4.64,13.8-5.07l1.76,9.63c-7.13.42-12.58,1.48-13.8,5.07A3.36,3.36,0,0,0,317.84,587.57Z" transform="translate(-41.05 -523.93)"/><g class="cls-15"><g class="cls-2"><path class="cls-1" d="M330,571.18l1.76,9.63c-1.1.06-2.15.14-3.16.25l-1.76-9.63c1-.1,2.07-.18,3.16-.25" transform="translate(-41.05 -523.93)"/><path class="cls-1" d="M326.88,571.43l1.76,9.63c-.88.09-1.73.19-2.53.32l-1.76-9.62c.8-.13,1.65-.24,2.53-.33" transform="translate(-41.05 -523.93)"/><path class="cls-1" d="M324.35,571.76l1.76,9.62c-.59.09-1.16.2-1.7.32l-1.76-9.62c.54-.12,1.11-.23,1.7-.32" transform="translate(-41.05 -523.93)"/><path class="cls-1" d="M322.65,572.08l1.76,9.62c-.45.1-.89.21-1.31.33l-1.76-9.62c.42-.12.86-.23,1.31-.33" transform="translate(-41.05 -523.93)"/><path class="cls-1" d="M321.34,572.41,323.1,582c-.4.12-.78.24-1.15.38l-1.75-9.62a11.71,11.71,0,0,1,1.14-.38" transform="translate(-41.05 -523.93)"/><path class="cls-1" d="M320.2,572.79l1.75,9.62a11.1,11.1,0,0,0-1.3.59l-1.75-9.62a8.65,8.65,0,0,1,1.3-.59" transform="translate(-41.05 -523.93)"/><path class="cls-1" d="M318.9,573.38l1.75,9.62a7.18,7.18,0,0,0-1.28.87l-1.75-9.62a6.83,6.83,0,0,1,1.28-.87" transform="translate(-41.05 -523.93)"/><path class="cls-1" d="M317.62,574.25l1.75,9.62a5.29,5.29,0,0,0-.72.78L316.89,575a5.26,5.26,0,0,1,.73-.77" transform="translate(-41.05 -523.93)"/><path class="cls-1" d="M316.89,575l1.76,9.63a4.67,4.67,0,0,0-.38.6l-1.76-9.62a4.78,4.78,0,0,1,.38-.61" transform="translate(-41.05 -523.93)"/><path class="cls-1" d="M316.51,575.63l1.76,9.62a4.14,4.14,0,0,0-.26.61l-1.76-9.63a4,4,0,0,1,.26-.6" transform="translate(-41.05 -523.93)"/><path class="cls-1" d="M316.25,576.23l1.76,9.63v0a3.29,3.29,0,0,0-.15.6l-1.76-9.63a3.76,3.76,0,0,1,.15-.6v0" transform="translate(-41.05 -523.93)"/><path class="cls-1" d="M316.09,576.85l1.76,9.63a3.31,3.31,0,0,0-.06.53L316,577.39a3.5,3.5,0,0,1,0-.54" transform="translate(-41.05 -523.93)"/><path class="cls-1" d="M316,577.39l1.75,9.62a2.63,2.63,0,0,0,0,.49l-1.76-9.62a2,2,0,0,1,0-.49" transform="translate(-41.05 -523.93)"/><path class="cls-1" d="M316.07,577.88l1.76,9.62a.17.17,0,0,0,0,.07L316.08,578s0-.05,0-.07" transform="translate(-41.05 -523.93)"/></g></g><path class="cls-5" d="M317.84,587.57,316.08,578a3.51,3.51,0,0,1,.16-1.7c1.22-3.58,6.67-4.64,13.8-5.07l1.76,9.63c-7.13.42-12.58,1.48-13.8,5.07A3.36,3.36,0,0,0,317.84,587.57Z" transform="translate(-41.05 -523.93)"/></g><g class="cls-2"><path class="cls-3" d="M209,584.89l-1.76-9.62c1.05,5.76,5.59,10.39,13.4,13.16,5.06,1.79,11.5,2.79,19.24,2.82,18.47.07,35.16-6.7,41.76-16.29l1.76,9.62c-6.6,9.59-23.3,16.36-41.76,16.29-7.75,0-14.18-1-19.24-2.82C214.55,595.28,210,590.66,209,584.89Z" transform="translate(-41.05 -523.93)"/><g class="cls-16"><g class="cls-2"><path class="cls-1" d="M281.6,575l1.76,9.62c-.16.23-.32.46-.49.68l-1.76-9.62.49-.68" transform="translate(-41.05 -523.93)"/><path class="cls-1" d="M281.11,575.64l1.76,9.62a25.09,25.09,0,0,1-3.5,3.77l-1.76-9.63a25.53,25.53,0,0,0,3.5-3.76" transform="translate(-41.05 -523.93)"/><path class="cls-1" d="M277.61,579.4l1.76,9.63a37.61,37.61,0,0,1-6.95,4.78l-1.76-9.62a37.64,37.64,0,0,0,6.95-4.79" transform="translate(-41.05 -523.93)"/><path class="cls-1" d="M270.66,584.19l1.76,9.62a50.22,50.22,0,0,1-6.19,2.81L264.47,587a51.75,51.75,0,0,0,6.19-2.81" transform="translate(-41.05 -523.93)"/><path class="cls-1" d="M264.47,587l1.76,9.62c-1.46.55-3,1.06-4.54,1.51l-1.76-9.62c1.56-.45,3.08-1,4.54-1.51" transform="translate(-41.05 -523.93)"/><path class="cls-1" d="M259.93,588.51l1.76,9.62c-1.35.4-2.73.75-4.15,1.06l-1.76-9.62c1.42-.31,2.8-.67,4.15-1.06" transform="translate(-41.05 -523.93)"/><path class="cls-1" d="M255.78,589.57l1.76,9.62c-1.32.29-2.67.55-4,.77l-1.76-9.62c1.37-.22,2.71-.48,4-.77" transform="translate(-41.05 -523.93)"/><path class="cls-1" d="M251.75,590.34l1.76,9.62c-1.35.21-2.73.39-4.12.53l-1.76-9.62c1.4-.14,2.77-.32,4.12-.53" transform="translate(-41.05 -523.93)"/><path class="cls-1" d="M247.63,590.87l1.76,9.62c-1.42.15-2.87.25-4.33.32l-1.76-9.63c1.46-.06,2.91-.16,4.33-.31" transform="translate(-41.05 -523.93)"/><path class="cls-1" d="M243.3,591.18l1.76,9.63c-1.15.05-2.3.07-3.46.06h-1.51l-1.75-9.63,1.5,0c1.16,0,2.32,0,3.46-.07" transform="translate(-41.05 -523.93)"/><path class="cls-1" d="M238.34,591.23l1.75,9.63q-3-.06-5.68-.32l-1.75-9.62c1.8.17,3.69.27,5.68.31" transform="translate(-41.05 -523.93)"/><path class="cls-1" d="M232.66,590.92l1.75,9.62c-2-.2-4-.47-5.8-.82l-1.76-9.62c1.82.35,3.75.62,5.81.82" transform="translate(-41.05 -523.93)"/><path class="cls-1" d="M226.85,590.1l1.76,9.62a43.56,43.56,0,0,1-6.25-1.67c-7.81-2.77-12.35-7.39-13.4-13.16l-1.76-9.62c1.05,5.76,5.59,10.39,13.4,13.16a46.75,46.75,0,0,0,6.25,1.67" transform="translate(-41.05 -523.93)"/></g></g><path class="cls-5" d="M209,584.89l-1.76-9.62c1.05,5.76,5.59,10.39,13.4,13.16,5.06,1.79,11.5,2.79,19.24,2.82,18.47.07,35.16-6.7,41.76-16.29l1.76,9.62c-6.6,9.59-23.3,16.36-41.76,16.29-7.75,0-14.18-1-19.24-2.82C214.55,595.28,210,590.66,209,584.89Z" transform="translate(-41.05 -523.93)"/></g><path class="cls-1" d="M281.6,575c-6.6,9.59-23.29,16.36-41.76,16.29-7.74,0-14.18-1-19.24-2.82-11.46-4.06-15.87-12.13-12.57-21.9,4.58-13.54,24-24.52,47.42-24.44a53.76,53.76,0,0,1,17.6,2.57c11.39,4,15.18,12.42,11.77,22.51l-1,2.86-53.5-.19c-.85,4,1.1,7.29,5.69,8.92a22.68,22.68,0,0,0,7.37,1.1c8.13,0,13.25-2.2,16.24-5ZM251.94,552.5c-8,0-14.65,3.27-18,7.92l30,.11c.3-3.2-1.61-5.72-5.32-7a20.35,20.35,0,0,0-6.66-1" transform="translate(-41.05 -523.93)"/><g class="cls-2"><path class="cls-3" d="M480.35,553.31l1.76,9.62c-8,0-14.64,3.28-18,7.93l-1.76-9.62C465.71,556.58,472.35,553.28,480.35,553.31Z" transform="translate(-41.05 -523.93)"/><g class="cls-17"><g class="cls-2"><path class="cls-1" d="M480.35,553.31l1.76,9.62q-.67,0-1.32,0L479,553.34l1.32,0" transform="translate(-41.05 -523.93)"/><path class="cls-1" d="M479,553.34l1.76,9.62q-.82,0-1.62.12l-1.75-9.63c.53-.05,1.07-.09,1.61-.11" transform="translate(-41.05 -523.93)"/><path class="cls-1" d="M477.42,553.45l1.75,9.63c-.51,0-1,.12-1.53.2l-1.75-9.63c.5-.08,1-.14,1.53-.2" transform="translate(-41.05 -523.93)"/><path class="cls-1" d="M475.89,553.65l1.75,9.63c-.51.08-1,.17-1.51.28l-1.76-9.62c.5-.11,1-.21,1.52-.29" transform="translate(-41.05 -523.93)"/><path class="cls-1" d="M474.37,553.94l1.76,9.62c-.54.12-1.06.26-1.58.41l-1.76-9.63c.52-.15,1-.28,1.58-.4" transform="translate(-41.05 -523.93)"/><path class="cls-1" d="M472.79,554.34l1.76,9.63c-.62.18-1.22.38-1.81.6L471,555c.59-.22,1.19-.43,1.81-.61" transform="translate(-41.05 -523.93)"/><path class="cls-1" d="M471,555l1.76,9.62a22.74,22.74,0,0,0-2.69,1.23l-1.75-9.62A21.88,21.88,0,0,1,471,555" transform="translate(-41.05 -523.93)"/><path class="cls-1" d="M468.3,556.18l1.75,9.62a18.93,18.93,0,0,0-3.59,2.5l-1.76-9.62a18.56,18.56,0,0,1,3.6-2.5" transform="translate(-41.05 -523.93)"/><path class="cls-1" d="M464.7,558.68l1.76,9.62a15.16,15.16,0,0,0-2.15,2.33L462.55,561a16.12,16.12,0,0,1,2.15-2.32" transform="translate(-41.05 -523.93)"/><path class="cls-1" d="M462.55,561l1.76,9.63c-.06.07-.11.15-.17.23l-1.76-9.62.17-.24" transform="translate(-41.05 -523.93)"/></g></g><path class="cls-5" d="M480.35,553.31l1.76,9.62c-8,0-14.64,3.28-18,7.93l-1.76-9.62C465.71,556.58,472.35,553.28,480.35,553.31Z" transform="translate(-41.05 -523.93)"/></g><polygon class="cls-1" points="374.56 31.84 376.32 41.47 370.4 58.96 368.64 49.34 374.56 31.84"/><g class="cls-2"><path class="cls-3" d="M492.27,559.59l1.76,9.62c-.43-2.36-2.26-4.21-5.26-5.27a20.34,20.34,0,0,0-6.66-1l-1.76-9.62a20.29,20.29,0,0,1,6.66,1C490,555.38,491.84,557.23,492.27,559.59Z" transform="translate(-41.05 -523.93)"/><g class="cls-18"><g class="cls-2"><path class="cls-1" d="M492.27,559.59l1.76,9.62c-.43-2.36-2.26-4.21-5.26-5.27a15.47,15.47,0,0,0-2.26-.61l-1.76-9.62a15.47,15.47,0,0,1,2.26.61c3,1.06,4.83,2.91,5.26,5.27" transform="translate(-41.05 -523.93)"/><path class="cls-1" d="M484.75,553.71l1.76,9.62a20.08,20.08,0,0,0-2-.28l-1.76-9.63c.71.07,1.38.17,2,.29" transform="translate(-41.05 -523.93)"/><path class="cls-1" d="M482.73,553.42l1.76,9.63c-.61-.06-1.24-.1-1.9-.11l-1.76-9.62c.66,0,1.3,0,1.9.1" transform="translate(-41.05 -523.93)"/><path class="cls-1" d="M480.83,553.32l1.76,9.62h-.48l-1.76-9.62h.48" transform="translate(-41.05 -523.93)"/></g></g><path class="cls-5" d="M492.27,559.59l1.76,9.62c-.43-2.36-2.26-4.21-5.26-5.27a20.34,20.34,0,0,0-6.66-1l-1.76-9.62a20.29,20.29,0,0,1,6.66,1C490,555.38,491.84,557.23,492.27,559.59Z" transform="translate(-41.05 -523.93)"/></g><g class="cls-2"><path class="cls-3" d="M411.19,585.26l-1.76-9.63a4.81,4.81,0,0,1,.26-2.36l1.76,9.62A4.72,4.72,0,0,0,411.19,585.26Z" transform="translate(-41.05 -523.93)"/><g class="cls-19"><g class="cls-2"><path class="cls-1" d="M409.69,573.27l1.76,9.62a6.19,6.19,0,0,0-.24.94l-1.76-9.63a5.8,5.8,0,0,1,.24-.93" transform="translate(-41.05 -523.93)"/><path class="cls-1" d="M409.45,574.2l1.76,9.63a4.78,4.78,0,0,0-.08.74l-1.75-9.63a3.93,3.93,0,0,1,.07-.74" transform="translate(-41.05 -523.93)"/><path class="cls-1" d="M409.38,574.94l1.75,9.63a3.86,3.86,0,0,0,0,.6l-1.75-9.62a3,3,0,0,1,0-.61" transform="translate(-41.05 -523.93)"/><path class="cls-1" d="M409.42,575.55l1.75,9.62s0,.06,0,.09l-1.76-9.63s0,0,0-.08" transform="translate(-41.05 -523.93)"/></g></g><path class="cls-5" d="M411.19,585.26l-1.76-9.63a4.81,4.81,0,0,1,.26-2.36l1.76,9.62A4.72,4.72,0,0,0,411.19,585.26Z" transform="translate(-41.05 -523.93)"/></g><g class="cls-2"><path class="cls-3" d="M293.64,591.37l-1.76-9.62c.63,3.47,3.49,6.17,8.21,7.84a41.06,41.06,0,0,0,13.32,1.92c10.76,0,20.14-3.16,24.44-7.27l1.76,9.62c-4.3,4.12-13.68,7.31-24.44,7.28a41.14,41.14,0,0,1-13.33-1.93C297.12,597.54,294.27,594.85,293.64,591.37Z" transform="translate(-41.05 -523.93)"/><g class="cls-20"><g class="cls-2"><path class="cls-1" d="M337.85,584.24l1.76,9.62-.39.36-1.76-9.62.39-.36" transform="translate(-41.05 -523.93)"/><path class="cls-1" d="M337.46,584.6l1.76,9.62a18.75,18.75,0,0,1-3.59,2.44L333.87,587a19.22,19.22,0,0,0,3.59-2.44" transform="translate(-41.05 -523.93)"/><path class="cls-1" d="M333.87,587l1.76,9.62a29.79,29.79,0,0,1-3.63,1.65l-1.76-9.63a30.65,30.65,0,0,0,3.63-1.64" transform="translate(-41.05 -523.93)"/><path class="cls-1" d="M330.24,588.68l1.76,9.63c-.92.34-1.88.66-2.88,1l-1.76-9.62c1-.29,2-.61,2.88-1" transform="translate(-41.05 -523.93)"/><path class="cls-1" d="M327.36,589.64l1.76,9.62c-.89.26-1.81.5-2.76.71l-1.75-9.63c.94-.21,1.86-.44,2.75-.7" transform="translate(-41.05 -523.93)"/><path class="cls-1" d="M324.61,590.34l1.75,9.63c-.9.19-1.82.37-2.77.52l-1.76-9.62c.95-.15,1.88-.33,2.78-.53" transform="translate(-41.05 -523.93)"/><path class="cls-1" d="M321.83,590.87l1.76,9.62c-.94.15-1.9.28-2.87.38L319,591.24c1-.1,1.94-.22,2.87-.37" transform="translate(-41.05 -523.93)"/><path class="cls-1" d="M319,591.24l1.76,9.63c-1,.1-2,.17-3.07.22l-1.76-9.63c1,0,2.06-.11,3.07-.22" transform="translate(-41.05 -523.93)"/><path class="cls-1" d="M315.89,591.46l1.76,9.63c-.82,0-1.65,0-2.48,0l-1.07,0-1.76-9.62h1.07c.84,0,1.66,0,2.48,0" transform="translate(-41.05 -523.93)"/><path class="cls-1" d="M312.34,591.5l1.76,9.62c-1.41,0-2.75-.1-4-.22l-1.76-9.63c1.28.13,2.62.2,4,.23" transform="translate(-41.05 -523.93)"/><path class="cls-1" d="M308.31,591.27l1.76,9.63c-1.43-.14-2.78-.33-4-.57l-1.75-9.62c1.26.24,2.6.43,4,.56" transform="translate(-41.05 -523.93)"/><path class="cls-1" d="M304.28,590.71l1.75,9.62a29.94,29.94,0,0,1-4.19-1.12c-4.72-1.67-7.57-4.36-8.2-7.84l-1.76-9.62c.63,3.47,3.49,6.17,8.21,7.84a29.21,29.21,0,0,0,4.19,1.12" transform="translate(-41.05 -523.93)"/></g></g><path class="cls-5" d="M293.64,591.37l-1.76-9.62c.63,3.47,3.49,6.17,8.21,7.84a41.06,41.06,0,0,0,13.32,1.92c10.76,0,20.14-3.16,24.44-7.27l1.76,9.62c-4.3,4.12-13.68,7.31-24.44,7.28a41.14,41.14,0,0,1-13.33-1.93C297.12,597.54,294.27,594.85,293.64,591.37Z" transform="translate(-41.05 -523.93)"/></g><polygon class="cls-1" points="328.51 36.71 330.27 46.33 320.14 76.29 318.38 66.67 328.51 36.71"/><path class="cls-1" d="M359.43,590.6l-23.69-.08,2.11-6.28c-4.3,4.11-13.68,7.31-24.44,7.27a41.06,41.06,0,0,1-13.32-1.92c-6.81-2.41-9.73-7-7.73-12.88,3.23-9.51,15-13.87,36.92-14.87l15.68-.75.67-2c.74-2.19-.13-4-2.82-4.91a17.24,17.24,0,0,0-5.59-.77c-6.84,0-11.52,2.2-13.1,5.16L301,558.51c5.63-9.77,20.9-16.18,40.09-16.12,7.89,0,14.24,1,19,2.64,8.56,3,11.89,8.51,9.49,15.61Zm-34.91-9.1c8.58,0,14.55-3,16.37-8.39l.89-2.6-11.74.67c-7.13.43-12.58,1.49-13.8,5.07-.69,2.06.38,3.61,2.82,4.48a17.08,17.08,0,0,0,5.46.77" transform="translate(-41.05 -523.93)"/><polygon class="cls-1" points="318.38 66.67 320.14 76.29 296.44 76.21 294.68 66.59 318.38 66.67"/><g class="cls-2"><path class="cls-3" d="M460.44,583.35l-1.76-9.63a7.94,7.94,0,0,1,.08-3.06l1.76,9.62A7.8,7.8,0,0,0,460.44,583.35Z" transform="translate(-41.05 -523.93)"/><g class="cls-21"><g class="cls-2"><path class="cls-1" d="M458.76,570.66l1.76,9.62-.06.31L458.7,571l.06-.31" transform="translate(-41.05 -523.93)"/><path class="cls-1" d="M458.7,571l1.76,9.62a9.37,9.37,0,0,0-.14,1.36l-1.75-9.62a7.92,7.92,0,0,1,.13-1.36" transform="translate(-41.05 -523.93)"/><path class="cls-1" d="M458.57,572.33l1.75,9.62a8.15,8.15,0,0,0,.09,1.22l-1.76-9.62a7.08,7.08,0,0,1-.08-1.22" transform="translate(-41.05 -523.93)"/><path class="cls-1" d="M458.65,573.55l1.76,9.62,0,.18-1.76-9.63,0-.17" transform="translate(-41.05 -523.93)"/></g></g><path class="cls-5" d="M460.44,583.35l-1.76-9.63a7.94,7.94,0,0,1,.08-3.06l1.76,9.62A7.8,7.8,0,0,0,460.44,583.35Z" transform="translate(-41.05 -523.93)"/></g><g class="cls-2"><path class="cls-3" d="M514.19,558.31l1.76,9.63a19.28,19.28,0,0,1-1,9.66L513.24,568A19.26,19.26,0,0,0,514.19,558.31Z" transform="translate(-41.05 -523.93)"/><g class="cls-22"><g class="cls-2"><path class="cls-1" d="M514.19,558.31l1.76,9.63c0,.13,0,.26.07.39l-1.76-9.62c0-.14,0-.27-.07-.4" transform="translate(-41.05 -523.93)"/><path class="cls-1" d="M514.26,558.71l1.76,9.62a17.35,17.35,0,0,1,.18,2.72l-1.76-9.62a15.17,15.17,0,0,0-.18-2.72" transform="translate(-41.05 -523.93)"/><path class="cls-1" d="M514.44,561.43l1.76,9.62a18.11,18.11,0,0,1-.3,3.06l-1.76-9.62a18.21,18.21,0,0,0,.3-3.06" transform="translate(-41.05 -523.93)"/><path class="cls-1" d="M514.14,564.49l1.76,9.62a23.92,23.92,0,0,1-.9,3.49L513.24,568a23.48,23.48,0,0,0,.9-3.48" transform="translate(-41.05 -523.93)"/></g></g><path class="cls-5" d="M514.19,558.31l1.76,9.63a19.28,19.28,0,0,1-1,9.66L513.24,568A19.26,19.26,0,0,0,514.19,558.31Z" transform="translate(-41.05 -523.93)"/></g><polygon class="cls-1" points="472.18 44.05 473.94 53.67 472.97 56.54 471.21 46.92 472.18 44.05"/><polygon class="cls-1" points="471.21 46.92 472.97 56.54 419.46 56.35 417.71 46.73 471.21 46.92"/><polygon class="cls-1" points="383.29 54.24 385.05 63.86 380.98 75.88 379.22 66.26 383.29 54.24"/><path class="cls-1" d="M423.87,531.37l-4.18,12.38,16.13.06-4.07,12-16.13-.06-5.93,17.5c-.82,2.43-.05,4.12,2.33,5a14.16,14.16,0,0,0,4.52.62,39.93,39.93,0,0,0,7.8-.69l-4.07,12a81.76,81.76,0,0,1-15.69,1.2,39.59,39.59,0,0,1-12.75-1.76c-7.15-2.53-9.49-7.78-6.8-15.73l6.16-18.21-11.05,0,4.07-12,11.05,0,4.18-12.38Z" transform="translate(-41.05 -523.93)"/><g class="cls-2"><path class="cls-3" d="M385.88,591.37l-1.76-9.62c.67,3.68,3.26,6.3,7.71,7.88a39.59,39.59,0,0,0,12.75,1.76,81.76,81.76,0,0,0,15.69-1.2l1.76,9.62a80.24,80.24,0,0,1-15.69,1.2,39.51,39.51,0,0,1-12.75-1.76C389.14,597.68,386.55,595.05,385.88,591.37Z" transform="translate(-41.05 -523.93)"/><g class="cls-23"><g class="cls-2"><path class="cls-1" d="M420.27,590.19l1.76,9.62c-.54.12-1.14.23-1.78.33l-1.76-9.62c.64-.1,1.24-.21,1.78-.33" transform="translate(-41.05 -523.93)"/><path class="cls-1" d="M418.49,590.52l1.76,9.62c-.94.15-2,.29-3.07.4l-1.76-9.63c1.11-.11,2.14-.24,3.07-.39" transform="translate(-41.05 -523.93)"/><path class="cls-1" d="M415.42,590.91l1.76,9.63c-1.62.16-3.4.29-5.26.36l-1.76-9.62c1.86-.08,3.64-.2,5.26-.37" transform="translate(-41.05 -523.93)"/><path class="cls-1" d="M410.16,591.28l1.76,9.62c-1.8.08-3.68.12-5.58.11h-1.17l-1.76-9.63,1.17,0c1.9,0,3.78,0,5.58-.11" transform="translate(-41.05 -523.93)"/><path class="cls-1" d="M403.41,591.37l1.76,9.63c-1.44,0-2.81-.11-4.1-.23l-1.75-9.62c1.28.12,2.65.19,4.09.22" transform="translate(-41.05 -523.93)"/><path class="cls-1" d="M399.32,591.15l1.75,9.62c-1.34-.13-2.6-.3-3.77-.53l-1.76-9.62c1.17.22,2.43.4,3.78.53" transform="translate(-41.05 -523.93)"/><path class="cls-1" d="M395.54,590.62l1.76,9.62a24.93,24.93,0,0,1-3.71-1c-4.45-1.57-7-4.2-7.71-7.88l-1.76-9.62c.67,3.68,3.26,6.3,7.71,7.88a28,28,0,0,0,3.71,1" transform="translate(-41.05 -523.93)"/></g></g><path class="cls-5" d="M385.88,591.37l-1.76-9.62c.67,3.68,3.26,6.3,7.71,7.88a39.59,39.59,0,0,0,12.75,1.76,81.76,81.76,0,0,0,15.69-1.2l1.76,9.62a80.24,80.24,0,0,1-15.69,1.2,39.51,39.51,0,0,1-12.75-1.76C389.14,597.68,386.55,595.05,385.88,591.37Z" transform="translate(-41.05 -523.93)"/></g><g class="cls-2"><path class="cls-3" d="M437.37,585.71l-1.76-9.62c1.06,5.76,5.6,10.39,13.41,13.15,5.06,1.79,11.49,2.8,19.24,2.83,18.47.06,35.16-6.7,41.75-16.29l1.76,9.62c-6.59,9.59-23.28,16.35-41.76,16.29-7.74,0-14.18-1-19.23-2.83C443,596.1,438.42,591.47,437.37,585.71Z" transform="translate(-41.05 -523.93)"/><g class="cls-24"><g class="cls-2"><path class="cls-1" d="M510,575.78l1.76,9.62c-.15.23-.32.45-.48.68l-1.76-9.63c.17-.22.33-.44.48-.67" transform="translate(-41.05 -523.93)"/><path class="cls-1" d="M509.53,576.45l1.76,9.63a25.61,25.61,0,0,1-3.51,3.76L506,580.22a24.66,24.66,0,0,0,3.51-3.77" transform="translate(-41.05 -523.93)"/><path class="cls-1" d="M506,580.22l1.76,9.62a36.48,36.48,0,0,1-6.95,4.78L499.08,585a36.72,36.72,0,0,0,6.94-4.78" transform="translate(-41.05 -523.93)"/><path class="cls-1" d="M499.08,585l1.75,9.62a50.91,50.91,0,0,1-6.18,2.82l-1.76-9.63a50.22,50.22,0,0,0,6.19-2.81" transform="translate(-41.05 -523.93)"/><path class="cls-1" d="M492.89,587.81l1.76,9.63c-1.46.55-3,1-4.54,1.51l-1.76-9.62c1.56-.46,3.08-1,4.54-1.52" transform="translate(-41.05 -523.93)"/><path class="cls-1" d="M488.35,589.33l1.76,9.62c-1.35.39-2.74.74-4.15,1.06l-1.76-9.63c1.42-.31,2.8-.66,4.15-1" transform="translate(-41.05 -523.93)"/><path class="cls-1" d="M484.2,590.38,486,600c-1.32.29-2.67.54-4,.76l-1.76-9.62c1.37-.22,2.72-.47,4-.77" transform="translate(-41.05 -523.93)"/><path class="cls-1" d="M480.16,591.15l1.76,9.62c-1.35.22-2.73.4-4.12.54L476,591.69c1.4-.14,2.77-.32,4.12-.54" transform="translate(-41.05 -523.93)"/><path class="cls-1" d="M476,591.69l1.76,9.62c-1.43.15-2.87.25-4.34.31L471.71,592c1.46-.06,2.91-.17,4.33-.31" transform="translate(-41.05 -523.93)"/><path class="cls-1" d="M471.71,592l1.75,9.62c-1.14,0-2.29.07-3.45.07l-1.5,0-1.76-9.62,1.51,0c1.15,0,2.3,0,3.45-.07" transform="translate(-41.05 -523.93)"/><path class="cls-1" d="M466.75,592.05l1.76,9.62c-2,0-3.88-.14-5.68-.31l-1.76-9.63c1.81.17,3.7.28,5.68.32" transform="translate(-41.05 -523.93)"/><path class="cls-1" d="M461.07,591.73l1.76,9.63c-2.05-.2-4-.47-5.81-.83l-1.75-9.62c1.81.35,3.75.63,5.8.82" transform="translate(-41.05 -523.93)"/><path class="cls-1" d="M455.27,590.91l1.75,9.62a43.41,43.41,0,0,1-6.24-1.67c-7.82-2.76-12.36-7.39-13.41-13.15l-1.76-9.62c1.06,5.76,5.6,10.39,13.41,13.15a43.21,43.21,0,0,0,6.25,1.67" transform="translate(-41.05 -523.93)"/></g></g><path class="cls-5" d="M437.37,585.71l-1.76-9.62c1.06,5.76,5.6,10.39,13.41,13.15,5.06,1.79,11.49,2.8,19.24,2.83,18.47.06,35.16-6.7,41.75-16.29l1.76,9.62c-6.59,9.59-23.28,16.35-41.76,16.29-7.74,0-14.18-1-19.23-2.83C443,596.1,438.42,591.47,437.37,585.71Z" transform="translate(-41.05 -523.93)"/></g><path class="cls-1" d="M510,575.78c-6.59,9.59-23.28,16.35-41.75,16.29-7.75,0-14.18-1-19.24-2.83-11.47-4.06-15.88-12.13-12.57-21.9,4.58-13.54,24-24.52,47.42-24.43a53.76,53.76,0,0,1,17.6,2.57c11.39,4,15.18,12.41,11.77,22.49l-1,2.88-53.51-.19c-.85,4,1.11,7.29,5.69,8.91a22.49,22.49,0,0,0,7.37,1.1c8.14,0,13.27-2.2,16.24-5Zm-29.66-22.47c-8,0-14.64,3.27-18,7.93l30,.11c.3-3.2-1.61-5.72-5.33-7a20.29,20.29,0,0,0-6.66-1" transform="translate(-41.05 -523.93)"/></g><g class="cls-2"><polygon class="cls-1" points="542.01 35.58 543.77 45.21 520.65 45.13 518.89 35.5 542.01 35.58"/><g class="cls-2"><path class="cls-3" d="M604.78,558l1.76,9.63c-.23-1.26-1.22-2.27-3-2.9a17.08,17.08,0,0,0-5.6-.77c-6.83,0-11.51,2.2-13.1,5.16l-1.75-9.63c1.58-3,6.26-5.18,13.09-5.16a17.59,17.59,0,0,1,5.6.77C603.56,555.76,604.55,556.77,604.78,558Z" transform="translate(-41.05 -523.93)"/><g class="cls-25"><g class="cls-2"><path class="cls-1" d="M604.78,558l1.76,9.63c-.23-1.26-1.22-2.27-3-2.9a12.61,12.61,0,0,0-1.62-.44l-1.76-9.62a11.83,11.83,0,0,1,1.62.43c1.8.64,2.79,1.65,3,2.9" transform="translate(-41.05 -523.93)"/><path class="cls-1" d="M600.14,554.69l1.76,9.62c-.52-.09-1.07-.17-1.67-.23l-1.76-9.62a15.32,15.32,0,0,1,1.67.23" transform="translate(-41.05 -523.93)"/><path class="cls-1" d="M598.47,554.46l1.76,9.62c-.56-.05-1.16-.09-1.8-.1l-1.76-9.62c.64,0,1.24,0,1.8.1" transform="translate(-41.05 -523.93)"/><path class="cls-1" d="M596.67,554.36l1.76,9.62h-.51c-.46,0-.92,0-1.37,0l-1.75-9.62c.44,0,.9,0,1.36,0h.51" transform="translate(-41.05 -523.93)"/><path class="cls-1" d="M594.8,554.38l1.75,9.62c-.54,0-1.07.06-1.59.12l-1.75-9.63c.51,0,1-.09,1.59-.11" transform="translate(-41.05 -523.93)"/><path class="cls-1" d="M593.21,554.49l1.75,9.63c-.47,0-.93.1-1.37.17l-1.76-9.62q.66-.1,1.38-.18" transform="translate(-41.05 -523.93)"/><path class="cls-1" d="M591.83,554.67l1.76,9.62c-.44.07-.86.15-1.27.24l-1.75-9.62q.6-.13,1.26-.24" transform="translate(-41.05 -523.93)"/><path class="cls-1" d="M590.57,554.91l1.75,9.62c-.42.1-.82.2-1.21.31l-1.76-9.62c.39-.11.8-.22,1.22-.31" transform="translate(-41.05 -523.93)"/><path class="cls-1" d="M589.35,555.22l1.76,9.62c-.44.13-.87.27-1.27.43l-1.76-9.63c.41-.15.83-.29,1.27-.42" transform="translate(-41.05 -523.93)"/><path class="cls-1" d="M588.08,555.64l1.76,9.63a13.92,13.92,0,0,0-1.65.74l-1.75-9.62a14.69,14.69,0,0,1,1.64-.75" transform="translate(-41.05 -523.93)"/><path class="cls-1" d="M586.44,556.39l1.75,9.62a10.47,10.47,0,0,0-1.89,1.3l-1.75-9.62a9.8,9.8,0,0,1,1.89-1.3" transform="translate(-41.05 -523.93)"/><path class="cls-1" d="M584.55,557.69l1.75,9.62a7.26,7.26,0,0,0-1,1.09l-1.76-9.63a6.79,6.79,0,0,1,1-1.08" transform="translate(-41.05 -523.93)"/><path class="cls-1" d="M583.54,558.77l1.76,9.63a5.84,5.84,0,0,0-.48.74l-1.75-9.63a5.39,5.39,0,0,1,.47-.74" transform="translate(-41.05 -523.93)"/></g></g><path class="cls-5" d="M604.78,558l1.76,9.63c-.23-1.26-1.22-2.27-3-2.9a17.08,17.08,0,0,0-5.6-.77c-6.83,0-11.51,2.2-13.1,5.16l-1.75-9.63c1.58-3,6.26-5.18,13.09-5.16a17.59,17.59,0,0,1,5.6.77C603.56,555.76,604.55,556.77,604.78,558Z" transform="translate(-41.05 -523.93)"/></g><g class="cls-2"><path class="cls-3" d="M629.11,555.46l1.76,9.62a12.06,12.06,0,0,1-.6,6.1l-1.75-9.62A12.17,12.17,0,0,0,629.11,555.46Z" transform="translate(-41.05 -523.93)"/><g class="cls-26"><g class="cls-2"><path class="cls-1" d="M629.11,555.46l1.76,9.62a2.17,2.17,0,0,1,0,.25l-1.75-9.62c0-.09,0-.17,0-.25" transform="translate(-41.05 -523.93)"/><path class="cls-1" d="M629.16,555.71l1.75,9.62a9.86,9.86,0,0,1,.12,1.73l-1.76-9.62a10.94,10.94,0,0,0-.11-1.73" transform="translate(-41.05 -523.93)"/><path class="cls-1" d="M629.27,557.44l1.76,9.62a11.79,11.79,0,0,1-.19,1.93l-1.75-9.62a13,13,0,0,0,.18-1.93" transform="translate(-41.05 -523.93)"/><path class="cls-1" d="M629.09,559.37l1.75,9.62a13.63,13.63,0,0,1-.57,2.19l-1.75-9.62a16.11,16.11,0,0,0,.57-2.19" transform="translate(-41.05 -523.93)"/></g></g><path class="cls-5" d="M629.11,555.46l1.76,9.62a12.06,12.06,0,0,1-.6,6.1l-1.75-9.62A12.17,12.17,0,0,0,629.11,555.46Z" transform="translate(-41.05 -523.93)"/></g><polygon class="cls-1" points="559.67 47.5 561.43 57.13 549.7 57.8 547.94 48.18 559.67 47.5"/><g class="cls-2"><path class="cls-3" d="M576.79,588.5,575,578.87a3.36,3.36,0,0,1,.16-1.69c1.22-3.59,6.67-4.65,13.8-5.07l1.76,9.62c-7.13.43-12.58,1.48-13.8,5.07A3.29,3.29,0,0,0,576.79,588.5Z" transform="translate(-41.05 -523.93)"/><g class="cls-27"><g class="cls-2"><path class="cls-1" d="M589,572.11l1.76,9.62c-1.1.07-2.16.15-3.18.25l-1.75-9.62c1-.11,2.07-.19,3.17-.25" transform="translate(-41.05 -523.93)"/><path class="cls-1" d="M585.82,572.36l1.75,9.62c-.88.09-1.72.2-2.52.32l-1.76-9.62c.8-.13,1.65-.23,2.53-.32" transform="translate(-41.05 -523.93)"/><path class="cls-1" d="M583.29,572.68l1.76,9.62c-.59.1-1.15.2-1.69.32L581.6,573c.54-.12,1.1-.23,1.69-.32" transform="translate(-41.05 -523.93)"/><path class="cls-1" d="M581.6,573l1.76,9.62c-.46.1-.89.21-1.31.33l-1.76-9.62c.42-.12.86-.23,1.31-.33" transform="translate(-41.05 -523.93)"/><path class="cls-1" d="M580.29,573.33l1.76,9.62c-.4.12-.78.24-1.14.38l-1.76-9.62c.36-.14.74-.26,1.14-.38" transform="translate(-41.05 -523.93)"/><path class="cls-1" d="M579.15,573.71l1.76,9.62a9.78,9.78,0,0,0-1.3.59l-1.76-9.62a10.4,10.4,0,0,1,1.3-.59" transform="translate(-41.05 -523.93)"/><path class="cls-1" d="M577.85,574.3l1.76,9.62a6.83,6.83,0,0,0-1.28.87l-1.76-9.62a7.18,7.18,0,0,1,1.28-.87" transform="translate(-41.05 -523.93)"/><path class="cls-1" d="M576.57,575.17l1.76,9.62a4.86,4.86,0,0,0-.73.78L575.85,576a4.79,4.79,0,0,1,.72-.78" transform="translate(-41.05 -523.93)"/><path class="cls-1" d="M575.85,576l1.75,9.62a4.67,4.67,0,0,0-.38.6l-1.76-9.62a3.85,3.85,0,0,1,.39-.6" transform="translate(-41.05 -523.93)"/><path class="cls-1" d="M575.46,576.55l1.76,9.62c-.1.2-.19.41-.27.62l-1.75-9.62a4.26,4.26,0,0,1,.26-.62" transform="translate(-41.05 -523.93)"/><path class="cls-1" d="M575.2,577.17l1.75,9.62h0a5,5,0,0,0-.16.61L575,577.78a3.76,3.76,0,0,1,.15-.6h0" transform="translate(-41.05 -523.93)"/><path class="cls-1" d="M575,577.78l1.75,9.63a3.27,3.27,0,0,0,0,.53L575,578.32a3.43,3.43,0,0,1,.06-.54" transform="translate(-41.05 -523.93)"/><path class="cls-1" d="M575,578.32l1.76,9.62a3.64,3.64,0,0,0,0,.48L575,578.8a2.59,2.59,0,0,1,0-.48" transform="translate(-41.05 -523.93)"/><path class="cls-1" d="M575,578.8l1.75,9.62,0,.08L575,578.87a.15.15,0,0,1,0-.07" transform="translate(-41.05 -523.93)"/></g></g><path class="cls-5" d="M576.79,588.5,575,578.87a3.36,3.36,0,0,1,.16-1.69c1.22-3.59,6.67-4.65,13.8-5.07l1.76,9.62c-7.13.43-12.58,1.48-13.8,5.07A3.29,3.29,0,0,0,576.79,588.5Z" transform="translate(-41.05 -523.93)"/></g><g class="cls-2"><path class="cls-3" d="M552.58,592.3l-1.76-9.63c.64,3.48,3.49,6.17,8.21,7.84a41.16,41.16,0,0,0,13.34,1.93c10.75,0,20.13-3.17,24.44-7.28l1.75,9.62c-4.3,4.12-13.68,7.32-24.44,7.28a41.16,41.16,0,0,1-13.33-1.92C556.07,598.47,553.22,595.77,552.58,592.3Z" transform="translate(-41.05 -523.93)"/><g class="cls-28"><g class="cls-2"><path class="cls-1" d="M596.81,585.16l1.75,9.62-.38.35-1.76-9.62.39-.35" transform="translate(-41.05 -523.93)"/><path class="cls-1" d="M596.42,585.51l1.76,9.62a18.55,18.55,0,0,1-3.6,2.45L592.83,588a19.24,19.24,0,0,0,3.59-2.45" transform="translate(-41.05 -523.93)"/><path class="cls-1" d="M592.83,588l1.75,9.62a29.79,29.79,0,0,1-3.63,1.65l-1.76-9.62a29.28,29.28,0,0,0,3.64-1.65" transform="translate(-41.05 -523.93)"/><path class="cls-1" d="M589.19,589.61l1.76,9.62c-.92.34-1.88.67-2.89,1l-1.75-9.62q1.5-.45,2.88-1" transform="translate(-41.05 -523.93)"/><path class="cls-1" d="M586.31,590.57l1.75,9.62c-.88.26-1.8.49-2.75.7l-1.76-9.62c1-.21,1.87-.45,2.76-.7" transform="translate(-41.05 -523.93)"/><path class="cls-1" d="M583.55,591.27l1.76,9.62c-.9.2-1.82.37-2.77.53l-1.76-9.63c1-.15,1.87-.32,2.77-.52" transform="translate(-41.05 -523.93)"/><path class="cls-1" d="M580.78,591.79l1.76,9.63c-.94.15-1.9.27-2.88.37l-1.75-9.62c1-.1,1.93-.23,2.87-.38" transform="translate(-41.05 -523.93)"/><path class="cls-1" d="M577.91,592.17l1.75,9.62c-1,.1-2,.18-3.06.22l-1.76-9.62c1,0,2.06-.12,3.07-.22" transform="translate(-41.05 -523.93)"/><path class="cls-1" d="M574.84,592.39,576.6,602c-.82,0-1.64,0-2.48,0H573l-1.76-9.63,1.09,0c.83,0,1.65,0,2.47-.05" transform="translate(-41.05 -523.93)"/><path class="cls-1" d="M571.28,592.42l1.76,9.63c-1.41,0-2.76-.11-4-.23l-1.76-9.62c1.28.12,2.62.19,4,.22" transform="translate(-41.05 -523.93)"/><path class="cls-1" d="M567.25,592.2l1.76,9.62a38.92,38.92,0,0,1-4-.57l-1.75-9.62c1.26.24,2.6.43,4,.57" transform="translate(-41.05 -523.93)"/><path class="cls-1" d="M563.22,591.63l1.75,9.62a29.45,29.45,0,0,1-4.18-1.11c-4.72-1.67-7.57-4.37-8.21-7.84l-1.76-9.63c.64,3.48,3.49,6.17,8.21,7.84a29.21,29.21,0,0,0,4.19,1.12" transform="translate(-41.05 -523.93)"/></g></g><path class="cls-5" d="M552.58,592.3l-1.76-9.63c.64,3.48,3.49,6.17,8.21,7.84a41.16,41.16,0,0,0,13.34,1.93c10.75,0,20.13-3.17,24.44-7.28l1.75,9.62c-4.3,4.12-13.68,7.32-24.44,7.28a41.16,41.16,0,0,1-13.33-1.92C556.07,598.47,553.22,595.77,552.58,592.3Z" transform="translate(-41.05 -523.93)"/></g><polygon class="cls-1" points="587.46 37.63 589.22 47.26 579.08 77.22 577.32 67.59 587.46 37.63"/><polygon class="cls-1" points="577.32 67.59 579.08 77.22 555.38 77.14 553.62 67.51 577.32 67.59"/><path class="cls-1" d="M618.38,591.52l-23.7-.08,2.13-6.28c-4.31,4.11-13.69,7.32-24.44,7.28A41.16,41.16,0,0,1,559,590.51c-6.8-2.4-9.73-6.94-7.72-12.88,3.22-9.5,15-13.86,36.91-14.86l15.69-.76.66-2c.75-2.19-.12-4-2.81-4.92a17.59,17.59,0,0,0-5.6-.77c-6.83,0-11.51,2.21-13.09,5.16L560,559.43c5.63-9.77,20.9-16.18,40.1-16.11,7.88,0,14.23.95,19,2.63,8.56,3,11.89,8.51,9.49,15.61Zm-34.92-9.1c8.58,0,14.55-3,16.38-8.38l.88-2.61-11.73.68c-7.13.42-12.58,1.48-13.8,5.07-.69,2.05.37,3.6,2.81,4.47a17.12,17.12,0,0,0,5.46.77" transform="translate(-41.05 -523.93)"/></g><g class="cls-2"><polygon class="cls-1" points="691.09 1.99 692.84 11.61 688.96 23.09 687.21 13.47 691.09 1.99"/><g class="cls-2"><path class="cls-3" d="M728.26,537.4,730,547a43.74,43.74,0,0,0-6-.38c-6.4,0-10.3,2-11.48,5.53l-1.76-9.62c1.19-3.5,5.09-5.56,11.48-5.53A42.16,42.16,0,0,1,728.26,537.4Z" transform="translate(-41.05 -523.93)"/><g class="cls-29"><g class="cls-2"><path class="cls-1" d="M728.26,537.4,730,547c-.43-.06-.94-.12-1.54-.18l-1.75-9.62c.59,0,1.1.12,1.53.18" transform="translate(-41.05 -523.93)"/><path class="cls-1" d="M726.73,537.22l1.75,9.62c-.91-.09-2-.16-3.35-.18L723.38,537c1.32,0,2.43.1,3.35.19" transform="translate(-41.05 -523.93)"/><path class="cls-1" d="M723.38,537l1.75,9.63-1.1,0q-.66,0-1.29,0L721,537.05q.63,0,1.29,0h1.11" transform="translate(-41.05 -523.93)"/><path class="cls-1" d="M721,537.05l1.76,9.62c-.48,0-.94.05-1.38.1l-1.76-9.63q.67-.06,1.38-.09" transform="translate(-41.05 -523.93)"/><path class="cls-1" d="M719.6,537.14l1.76,9.63-1.14.14-1.76-9.62q.56-.09,1.14-.15" transform="translate(-41.05 -523.93)"/><path class="cls-1" d="M718.46,537.29l1.76,9.62c-.35.06-.68.12-1,.2l-1.76-9.63,1-.19" transform="translate(-41.05 -523.93)"/><path class="cls-1" d="M717.45,537.48l1.76,9.63c-.32.07-.64.15-.94.24l-1.76-9.63c.3-.09.62-.17.94-.24" transform="translate(-41.05 -523.93)"/><path class="cls-1" d="M716.51,537.72l1.76,9.63a9.37,9.37,0,0,0-1,.32l-1.76-9.62c.31-.12.64-.23,1-.33" transform="translate(-41.05 -523.93)"/><path class="cls-1" d="M715.53,538.05l1.76,9.62a10.57,10.57,0,0,0-1.31.6l-1.76-9.62a11.29,11.29,0,0,1,1.31-.6" transform="translate(-41.05 -523.93)"/><path class="cls-1" d="M714.22,538.65l1.76,9.62a8.14,8.14,0,0,0-1.53,1.06l-1.76-9.62a8.14,8.14,0,0,1,1.53-1.06" transform="translate(-41.05 -523.93)"/><path class="cls-1" d="M712.69,539.71l1.76,9.62a7.15,7.15,0,0,0-1,1l-1.75-9.62a6.56,6.56,0,0,1,1-1" transform="translate(-41.05 -523.93)"/><path class="cls-1" d="M711.74,540.74l1.75,9.62a7.86,7.86,0,0,0-.54.87l-1.76-9.62a6.68,6.68,0,0,1,.55-.87" transform="translate(-41.05 -523.93)"/><path class="cls-1" d="M711.19,541.61l1.76,9.62a6.87,6.87,0,0,0-.39.92l-1.76-9.63a7.33,7.33,0,0,1,.39-.91" transform="translate(-41.05 -523.93)"/><path class="cls-1" d="M710.8,542.52l1.76,9.63v0l-1.76-9.62v0" transform="translate(-41.05 -523.93)"/></g></g><path class="cls-5" d="M728.26,537.4,730,547a43.74,43.74,0,0,0-6-.38c-6.4,0-10.3,2-11.48,5.53l-1.76-9.62c1.19-3.5,5.09-5.56,11.48-5.53A42.16,42.16,0,0,1,728.26,537.4Z" transform="translate(-41.05 -523.93)"/></g><polygon class="cls-1" points="669.74 18.62 671.5 28.24 670.74 30.48 668.98 20.86 669.74 18.62"/><polygon class="cls-1" points="640.49 32.79 642.25 42.41 631.63 42.38 629.87 32.75 640.49 32.79"/><polygon class="cls-1" points="684.1 20.91 685.86 30.53 681.79 42.55 680.03 32.93 684.1 20.91"/><polygon class="cls-1" points="680.03 32.93 681.79 42.55 666.67 42.5 664.91 32.88 680.03 32.93"/><g class="cls-2"><path class="cls-3" d="M779.56,563.81l1.76,9.63c-.51-2.8-2.48-5.23-6.13-6.52a19.56,19.56,0,0,0-6.45-1c-10.76,0-18.37,6.14-20.41,12.15a9.62,9.62,0,0,0-.42,4.75l-1.76-9.63a9.64,9.64,0,0,1,.42-4.75c2-6,9.66-12.18,20.41-12.14a19.67,19.67,0,0,1,6.46,1C777.09,558.59,779.05,561,779.56,563.81Z" transform="translate(-41.05 -523.93)"/><g class="cls-30"><g class="cls-2"><path class="cls-1" d="M779.56,563.81l1.76,9.63c-.51-2.8-2.48-5.23-6.13-6.52a15.13,15.13,0,0,0-2.26-.61l-1.75-9.62a15.82,15.82,0,0,1,2.26.61c3.65,1.29,5.61,3.72,6.12,6.51" transform="translate(-41.05 -523.93)"/><path class="cls-1" d="M771.18,556.69l1.75,9.62A18.32,18.32,0,0,0,771,566l-1.76-9.63c.68.07,1.32.16,1.94.28" transform="translate(-41.05 -523.93)"/><path class="cls-1" d="M769.24,556.41,771,566c-.58-.06-1.18-.09-1.8-.1l-1.76-9.63c.63,0,1.23.05,1.8.1" transform="translate(-41.05 -523.93)"/><path class="cls-1" d="M767.44,556.31l1.76,9.63h-.46c-.43,0-.85,0-1.27,0l-1.76-9.63c.42,0,.84,0,1.27,0h.46" transform="translate(-41.05 -523.93)"/><path class="cls-1" d="M765.71,556.33l1.76,9.63c-.53,0-1.05.06-1.57.11l-1.75-9.63c.51-.05,1-.09,1.56-.11" transform="translate(-41.05 -523.93)"/><path class="cls-1" d="M764.15,556.44l1.75,9.63c-.5,0-1,.11-1.48.19l-1.75-9.62c.48-.08,1-.14,1.48-.2" transform="translate(-41.05 -523.93)"/><path class="cls-1" d="M762.67,556.64l1.75,9.62c-.5.08-1,.17-1.47.28l-1.75-9.62c.48-.11,1-.2,1.47-.28" transform="translate(-41.05 -523.93)"/><path class="cls-1" d="M761.2,556.92l1.75,9.62c-.52.12-1,.25-1.54.39l-1.76-9.62c.5-.14,1-.28,1.55-.39" transform="translate(-41.05 -523.93)"/><path class="cls-1" d="M759.65,557.31l1.76,9.62c-.63.19-1.24.39-1.83.62l-1.76-9.63c.59-.22,1.2-.43,1.83-.61" transform="translate(-41.05 -523.93)"/><path class="cls-1" d="M757.82,557.92l1.76,9.63a21.7,21.7,0,0,0-2.8,1.28L755,559.21a23,23,0,0,1,2.79-1.29" transform="translate(-41.05 -523.93)"/><path class="cls-1" d="M755,559.21l1.75,9.62a20.79,20.79,0,0,0-3.9,2.72l-1.75-9.62a20.47,20.47,0,0,1,3.9-2.72" transform="translate(-41.05 -523.93)"/><path class="cls-1" d="M751.13,561.93l1.75,9.62a17.87,17.87,0,0,0-2.49,2.7l-1.76-9.62a18,18,0,0,1,2.5-2.7" transform="translate(-41.05 -523.93)"/><path class="cls-1" d="M748.63,564.63l1.76,9.62a13.89,13.89,0,0,0-1.28,2l-1.76-9.62a14.8,14.8,0,0,1,1.28-2" transform="translate(-41.05 -523.93)"/><path class="cls-1" d="M747.35,566.65l1.76,9.62a12.33,12.33,0,0,0-.77,1.77l-1.76-9.62a13.56,13.56,0,0,1,.77-1.77" transform="translate(-41.05 -523.93)"/><path class="cls-1" d="M746.58,568.42l1.76,9.62v0a9.93,9.93,0,0,0-.4,1.56L746.17,570a11.3,11.3,0,0,1,.4-1.57v0" transform="translate(-41.05 -523.93)"/><path class="cls-1" d="M746.17,570l1.76,9.62a8.09,8.09,0,0,0-.15,1.53L746,571.55a9.91,9.91,0,0,1,.15-1.53" transform="translate(-41.05 -523.93)"/><path class="cls-1" d="M746,571.55l1.76,9.62a7.63,7.63,0,0,0,.1,1.44L746.12,573a8.57,8.57,0,0,1-.1-1.44" transform="translate(-41.05 -523.93)"/><path class="cls-1" d="M746.12,573l1.76,9.62,0,.22-1.76-9.63,0-.21" transform="translate(-41.05 -523.93)"/></g></g><path class="cls-5" d="M779.56,563.81l1.76,9.63c-.51-2.8-2.48-5.23-6.13-6.52a19.56,19.56,0,0,0-6.45-1c-10.76,0-18.37,6.14-20.41,12.15a9.62,9.62,0,0,0-.42,4.75l-1.76-9.63a9.64,9.64,0,0,1,.42-4.75c2-6,9.66-12.18,20.41-12.14a19.67,19.67,0,0,1,6.46,1C777.09,558.59,779.05,561,779.56,563.81Z" transform="translate(-41.05 -523.93)"/></g><g class="cls-2"><path class="cls-3" d="M804,560.58l1.76,9.63a16.13,16.13,0,0,1-.72,8.07l-1.76-9.63A16,16,0,0,0,804,560.58Z" transform="translate(-41.05 -523.93)"/><g class="cls-31"><g class="cls-2"><path class="cls-1" d="M804,560.58l1.76,9.63.06.36L804.06,561l-.06-.37" transform="translate(-41.05 -523.93)"/><path class="cls-1" d="M804.06,561l1.76,9.62A15,15,0,0,1,806,573l-1.76-9.63a14.91,14.91,0,0,0-.17-2.42" transform="translate(-41.05 -523.93)"/><path class="cls-1" d="M804.23,563.37,806,573a17.33,17.33,0,0,1-.25,2.55L804,565.93a15.09,15.09,0,0,0,.25-2.56" transform="translate(-41.05 -523.93)"/><path class="cls-1" d="M804,565.93l1.76,9.62a19.23,19.23,0,0,1-.7,2.73l-1.76-9.63a19.1,19.1,0,0,0,.7-2.72" transform="translate(-41.05 -523.93)"/></g></g><path class="cls-5" d="M804,560.58l1.76,9.63a16.13,16.13,0,0,1-.72,8.07l-1.76-9.63A16,16,0,0,0,804,560.58Z" transform="translate(-41.05 -523.93)"/></g><polygon class="cls-1" points="653.08 67.87 654.84 77.49 630.41 77.4 628.65 67.78 653.08 67.87"/><polygon class="cls-1" points="664.91 32.88 666.67 42.5 654.84 77.49 653.08 67.87 664.91 32.88"/><path class="cls-1" d="M732.14,525.92l-3.88,11.48a42.16,42.16,0,0,0-6-.38c-6.39,0-10.29,2-11.48,5.53l-.76,2.24,15.12.05-4.06,12L706,556.81l-11.84,35-24.42-.09,11.83-35-10.61,0,4.07-12,10.6,0,.77-2.24c3.74-11,14.29-17.28,34.79-17.21A74,74,0,0,1,732.14,525.92Z" transform="translate(-41.05 -523.93)"/><g class="cls-2"><path class="cls-3" d="M910.23,563.88l1.76,9.63c-.5-2.76-2.45-4.87-5.72-6a20.07,20.07,0,0,0-6.55-1c-10.18,0-18.14,5.86-20.24,12a9.24,9.24,0,0,0-.41,4.64l-1.76-9.62a9.34,9.34,0,0,1,.41-4.64c2.1-6.19,10.06-12.09,20.24-12a19.8,19.8,0,0,1,6.55,1C907.78,559,909.73,561.13,910.23,563.88Z" transform="translate(-41.05 -523.93)"/><g class="cls-32"><g class="cls-2"><path class="cls-1" d="M910.23,563.88l1.76,9.63c-.5-2.76-2.45-4.87-5.72-6a17,17,0,0,0-2.24-.6l-1.76-9.62a14.35,14.35,0,0,1,2.24.6c3.27,1.16,5.22,3.27,5.72,6" transform="translate(-41.05 -523.93)"/><path class="cls-1" d="M902.27,557.26l1.76,9.62c-.63-.12-1.28-.21-2-.28L900.3,557a19.06,19.06,0,0,1,2,.28" transform="translate(-41.05 -523.93)"/><path class="cls-1" d="M900.3,557l1.76,9.62c-.6-.05-1.21-.09-1.86-.1l-1.75-9.63c.64,0,1.26,0,1.85.11" transform="translate(-41.05 -523.93)"/><path class="cls-1" d="M898.45,556.87l1.75,9.63h-.48l-1.2,0-1.76-9.62c.4,0,.8,0,1.2,0h.49" transform="translate(-41.05 -523.93)"/><path class="cls-1" d="M896.76,556.89l1.76,9.62c-.51,0-1,.06-1.51.11L895.25,557c.5,0,1-.09,1.51-.11" transform="translate(-41.05 -523.93)"/><path class="cls-1" d="M895.25,557l1.76,9.62c-.48,0-1,.11-1.44.19l-1.75-9.62c.47-.08.95-.14,1.43-.19" transform="translate(-41.05 -523.93)"/><path class="cls-1" d="M893.82,557.19l1.75,9.62c-.49.08-1,.17-1.45.28l-1.75-9.63c.47-.1,1-.19,1.45-.27" transform="translate(-41.05 -523.93)"/><path class="cls-1" d="M892.37,557.46l1.75,9.63c-.52.11-1,.24-1.54.39l-1.75-9.62c.5-.15,1-.28,1.54-.4" transform="translate(-41.05 -523.93)"/><path class="cls-1" d="M890.83,557.86l1.75,9.62c-.63.18-1.25.39-1.85.62L889,558.48c.6-.23,1.22-.44,1.86-.62" transform="translate(-41.05 -523.93)"/><path class="cls-1" d="M889,558.48l1.76,9.62a22.66,22.66,0,0,0-2.82,1.29l-1.75-9.62a21.76,21.76,0,0,1,2.81-1.29" transform="translate(-41.05 -523.93)"/><path class="cls-1" d="M886.16,559.77l1.75,9.62a21.51,21.51,0,0,0-4,2.76l-1.75-9.62a20.72,20.72,0,0,1,4-2.76" transform="translate(-41.05 -523.93)"/><path class="cls-1" d="M882.19,562.53l1.75,9.62a18.48,18.48,0,0,0-2.46,2.66l-1.76-9.62a18,18,0,0,1,2.47-2.66" transform="translate(-41.05 -523.93)"/><path class="cls-1" d="M879.72,565.19l1.76,9.62a16,16,0,0,0-1.24,2l-1.75-9.62a14.18,14.18,0,0,1,1.23-2" transform="translate(-41.05 -523.93)"/><path class="cls-1" d="M878.49,567.15l1.75,9.62a13.63,13.63,0,0,0-.74,1.73l-1.76-9.63a12.82,12.82,0,0,1,.75-1.72" transform="translate(-41.05 -523.93)"/><path class="cls-1" d="M877.74,568.87l1.76,9.63,0,0a11.28,11.28,0,0,0-.4,1.54l-1.75-9.62a11.21,11.21,0,0,1,.39-1.54l0,0" transform="translate(-41.05 -523.93)"/><path class="cls-1" d="M877.33,570.46l1.75,9.62a9.61,9.61,0,0,0-.14,1.49L877.18,572a9.53,9.53,0,0,1,.15-1.49" transform="translate(-41.05 -523.93)"/><path class="cls-1" d="M877.18,572l1.76,9.62a7.16,7.16,0,0,0,.1,1.4l-1.76-9.62a9.32,9.32,0,0,1-.1-1.4" transform="translate(-41.05 -523.93)"/><path class="cls-1" d="M877.28,573.35,879,583l0,.21-1.76-9.62,0-.21" transform="translate(-41.05 -523.93)"/></g></g><path class="cls-5" d="M910.23,563.88l1.76,9.63c-.5-2.76-2.45-4.87-5.72-6a20.07,20.07,0,0,0-6.55-1c-10.18,0-18.14,5.86-20.24,12a9.24,9.24,0,0,0-.41,4.64l-1.76-9.62a9.34,9.34,0,0,1,.41-4.64c2.1-6.19,10.06-12.09,20.24-12a19.8,19.8,0,0,1,6.55,1C907.78,559,909.73,561.13,910.23,563.88Z" transform="translate(-41.05 -523.93)"/></g><g class="cls-2"><path class="cls-3" d="M723.47,586.05l-1.75-9.62c1.1,6,6.1,10.94,14.27,13.83a56.59,56.59,0,0,0,18.55,2.83c24,.08,44.07-10.62,48.74-24.44l1.76,9.63c-4.68,13.81-24.75,24.51-48.74,24.43a56.87,56.87,0,0,1-18.55-2.82C729.58,597,724.57,592.08,723.47,586.05Z" transform="translate(-41.05 -523.93)"/><g class="cls-33"><g class="cls-2"><path class="cls-1" d="M803.28,568.65l1.76,9.63,0,.08-1.76-9.63,0-.08" transform="translate(-41.05 -523.93)"/><path class="cls-1" d="M803.25,568.73l1.76,9.63a23.22,23.22,0,0,1-1.32,3l-1.76-9.63a21,21,0,0,0,1.32-3" transform="translate(-41.05 -523.93)"/><path class="cls-1" d="M801.93,571.78l1.76,9.63a25.4,25.4,0,0,1-2.14,3.37l-1.76-9.62a25.5,25.5,0,0,0,2.14-3.38" transform="translate(-41.05 -523.93)"/><path class="cls-1" d="M799.79,575.16l1.76,9.62a32.23,32.23,0,0,1-4.35,4.69l-1.76-9.63a30.63,30.63,0,0,0,4.35-4.68" transform="translate(-41.05 -523.93)"/><path class="cls-1" d="M795.44,579.84l1.76,9.63a43.56,43.56,0,0,1-8.13,5.63l-1.76-9.63a42.63,42.63,0,0,0,8.13-5.63" transform="translate(-41.05 -523.93)"/><path class="cls-1" d="M787.31,585.47l1.76,9.63a57.47,57.47,0,0,1-6.9,3.14l-1.75-9.63a54.36,54.36,0,0,0,6.89-3.14" transform="translate(-41.05 -523.93)"/><path class="cls-1" d="M780.42,588.61l1.75,9.63c-1.54.58-3.15,1.12-4.8,1.6l-1.76-9.62c1.65-.48,3.26-1,4.81-1.61" transform="translate(-41.05 -523.93)"/><path class="cls-1" d="M775.61,590.22l1.76,9.62c-1.42.41-2.87.78-4.36,1.11l-1.76-9.62c1.49-.33,2.94-.7,4.36-1.11" transform="translate(-41.05 -523.93)"/><path class="cls-1" d="M771.25,591.33,773,601c-1.37.31-2.78.57-4.2.8l-1.76-9.62c1.43-.23,2.83-.5,4.2-.8" transform="translate(-41.05 -523.93)"/><path class="cls-1" d="M767.05,592.13l1.76,9.62c-1.41.23-2.84.41-4.3.56l-1.75-9.62c1.45-.15,2.88-.34,4.29-.56" transform="translate(-41.05 -523.93)"/><path class="cls-1" d="M762.76,592.69l1.75,9.62q-2.24.23-4.53.33L758.22,593c1.53-.06,3-.17,4.54-.32" transform="translate(-41.05 -523.93)"/><path class="cls-1" d="M758.22,593l1.76,9.63c-1.21.05-2.44.07-3.68.07l-1.33,0-1.75-9.62,1.32,0c1.24,0,2.47,0,3.68-.08" transform="translate(-41.05 -523.93)"/><path class="cls-1" d="M753.22,593.07l1.75,9.62c-1.8,0-3.53-.13-5.2-.29L748,592.78c1.66.15,3.4.25,5.2.29" transform="translate(-41.05 -523.93)"/><path class="cls-1" d="M748,592.78l1.75,9.62c-2-.19-3.84-.45-5.62-.8L742.4,592c1.77.34,3.65.61,5.62.8" transform="translate(-41.05 -523.93)"/><path class="cls-1" d="M742.4,592l1.75,9.62a44.1,44.1,0,0,1-6.4-1.71c-8.17-2.89-13.18-7.81-14.28-13.84l-1.75-9.62c1.1,6,6.1,10.94,14.27,13.83A44.22,44.22,0,0,0,742.4,592" transform="translate(-41.05 -523.93)"/></g></g><path class="cls-5" d="M723.47,586.05l-1.75-9.62c1.1,6,6.1,10.94,14.27,13.83a56.59,56.59,0,0,0,18.55,2.83c24,.08,44.07-10.62,48.74-24.44l1.76,9.63c-4.68,13.81-24.75,24.51-48.74,24.43a56.87,56.87,0,0,1-18.55-2.82C729.58,597,724.57,592.08,723.47,586.05Z" transform="translate(-41.05 -523.93)"/></g><path class="cls-1" d="M803.28,568.65c-4.67,13.82-24.75,24.52-48.74,24.44A56.59,56.59,0,0,1,736,590.26c-11.58-4.1-16.81-12.27-13.55-21.9,4.67-13.81,24.75-24.52,48.73-24.43a56.83,56.83,0,0,1,18.55,2.82C801.31,550.85,806.53,559,803.28,568.65Zm-44.55,12.06c10.76,0,18.38-6.13,20.41-12.15,1.55-4.57-.08-9.27-5.7-11.26a19.67,19.67,0,0,0-6.46-1c-10.75,0-18.37,6.13-20.41,12.14-1.54,4.58.08,9.28,5.71,11.27a19.65,19.65,0,0,0,6.45,1" transform="translate(-41.05 -523.93)"/><g class="cls-2"><path class="cls-3" d="M990.12,555.13l1.76,9.62c-8,0-14.66,3.27-18,7.93l-1.75-9.62C975.47,558.4,982.12,555.1,990.12,555.13Z" transform="translate(-41.05 -523.93)"/><g class="cls-34"><g class="cls-2"><path class="cls-1" d="M990.12,555.13l1.76,9.62c-.45,0-.89,0-1.33,0l-1.75-9.63c.43,0,.87,0,1.32,0" transform="translate(-41.05 -523.93)"/><path class="cls-1" d="M988.8,555.15l1.75,9.63c-.54,0-1.08.06-1.61.11l-1.76-9.62q.8-.07,1.62-.12" transform="translate(-41.05 -523.93)"/><path class="cls-1" d="M987.18,555.27l1.76,9.62c-.52.05-1,.12-1.53.2l-1.76-9.62c.5-.08,1-.15,1.53-.2" transform="translate(-41.05 -523.93)"/><path class="cls-1" d="M985.65,555.47l1.76,9.62c-.52.08-1,.18-1.52.29l-1.75-9.62c.49-.11,1-.21,1.51-.29" transform="translate(-41.05 -523.93)"/><path class="cls-1" d="M984.14,555.76l1.75,9.62c-.53.12-1.06.25-1.58.4l-1.75-9.62c.51-.15,1-.28,1.58-.4" transform="translate(-41.05 -523.93)"/><path class="cls-1" d="M982.56,556.16l1.75,9.62c-.62.18-1.22.38-1.81.61l-1.75-9.63c.58-.22,1.19-.42,1.81-.6" transform="translate(-41.05 -523.93)"/><path class="cls-1" d="M980.75,556.76l1.75,9.63a23.45,23.45,0,0,0-2.68,1.22L978.06,558a22,22,0,0,1,2.69-1.23" transform="translate(-41.05 -523.93)"/><path class="cls-1" d="M978.06,558l1.76,9.62a19.06,19.06,0,0,0-3.59,2.5l-1.76-9.62a18.93,18.93,0,0,1,3.59-2.5" transform="translate(-41.05 -523.93)"/><path class="cls-1" d="M974.47,560.49l1.76,9.62a15.5,15.5,0,0,0-2.14,2.32l-1.76-9.62a15.5,15.5,0,0,1,2.14-2.32" transform="translate(-41.05 -523.93)"/><path class="cls-1" d="M972.33,562.81l1.76,9.62-.19.25-1.75-9.62.18-.25" transform="translate(-41.05 -523.93)"/></g></g><path class="cls-5" d="M990.12,555.13l1.76,9.62c-8,0-14.66,3.27-18,7.93l-1.75-9.62C975.47,558.4,982.12,555.1,990.12,555.13Z" transform="translate(-41.05 -523.93)"/></g><polygon class="cls-1" points="813.65 2.87 815.41 12.5 793.25 77.98 791.49 68.36 813.65 2.87"/><polygon class="cls-1" points="791.49 68.36 793.25 77.98 768.82 77.89 767.07 68.27 791.49 68.36"/><polygon class="cls-1" points="813.65 2.87 791.49 68.36 767.07 68.27 789.23 2.79 813.65 2.87"/><g class="cls-2"><path class="cls-3" d="M1002,561.4l1.75,9.62c-.43-2.36-2.25-4.21-5.25-5.27a20.29,20.29,0,0,0-6.65-1l-1.76-9.62a20.35,20.35,0,0,1,6.66,1C999.78,557.19,1001.6,559,1002,561.4Z" transform="translate(-41.05 -523.93)"/><g class="cls-35"><g class="cls-2"><path class="cls-1" d="M1002,561.4l1.75,9.62c-.43-2.36-2.25-4.21-5.25-5.27a16.47,16.47,0,0,0-2.26-.6l-1.75-9.63a16.84,16.84,0,0,1,2.26.61c3,1.06,4.82,2.91,5.25,5.27" transform="translate(-41.05 -523.93)"/><path class="cls-1" d="M994.52,555.52l1.75,9.63a19.41,19.41,0,0,0-2-.29l-1.75-9.62c.7.07,1.37.16,2,.28" transform="translate(-41.05 -523.93)"/><path class="cls-1" d="M992.51,555.24l1.75,9.62c-.6-.05-1.23-.09-1.89-.1l-1.76-9.63c.66,0,1.29,0,1.9.11" transform="translate(-41.05 -523.93)"/><path class="cls-1" d="M990.61,555.13l1.76,9.63h-.49l-1.76-9.62h.49" transform="translate(-41.05 -523.93)"/></g></g><path class="cls-5" d="M1002,561.4l1.75,9.62c-.43-2.36-2.25-4.21-5.25-5.27a20.29,20.29,0,0,0-6.65-1l-1.76-9.62a20.35,20.35,0,0,1,6.66,1C999.78,557.19,1001.6,559,1002,561.4Z" transform="translate(-41.05 -523.93)"/></g><polygon class="cls-1" points="1025.79 22.13 1027.55 31.75 1024.09 41.98 1022.33 32.36 1025.79 22.13"/><g class="cls-2"><path class="cls-3" d="M970.2,585.16l-1.76-9.63a7.94,7.94,0,0,1,.08-3.06l1.76,9.63A7.94,7.94,0,0,0,970.2,585.16Z" transform="translate(-41.05 -523.93)"/><g class="cls-36"><g class="cls-2"><path class="cls-1" d="M968.52,572.47l1.76,9.63-.06.29-1.76-9.62.06-.3" transform="translate(-41.05 -523.93)"/><path class="cls-1" d="M968.46,572.77l1.76,9.62a8.11,8.11,0,0,0-.13,1.36l-1.76-9.62a8,8,0,0,1,.13-1.36" transform="translate(-41.05 -523.93)"/><path class="cls-1" d="M968.33,574.13l1.76,9.62a7.13,7.13,0,0,0,.08,1.23l-1.76-9.63a7,7,0,0,1-.08-1.22" transform="translate(-41.05 -523.93)"/><path class="cls-1" d="M968.41,575.35l1.76,9.63,0,.18-1.76-9.63,0-.18" transform="translate(-41.05 -523.93)"/></g></g><path class="cls-5" d="M970.2,585.16l-1.76-9.63a7.94,7.94,0,0,1,.08-3.06l1.76,9.63A7.94,7.94,0,0,0,970.2,585.16Z" transform="translate(-41.05 -523.93)"/></g><g class="cls-2"><path class="cls-3" d="M854.23,587.51l-1.76-9.63c1.09,6,5.72,10.8,13.15,13.44a43.63,43.63,0,0,0,14.26,2.21c11.34.05,19.49-3,24.76-7.36l1.76,9.62c-5.27,4.38-13.43,7.41-24.77,7.36a43.34,43.34,0,0,1-14.25-2.21C859.94,598.31,855.32,593.51,854.23,587.51Z" transform="translate(-41.05 -523.93)"/><g class="cls-37"><g class="cls-2"><path class="cls-1" d="M904.64,586.17l1.76,9.62a26,26,0,0,1-4.4,3l-1.76-9.62a26.57,26.57,0,0,0,4.4-3" transform="translate(-41.05 -523.93)"/><path class="cls-1" d="M900.24,589.12l1.76,9.62a30.3,30.3,0,0,1-3.81,1.73l-1.76-9.62a31.8,31.8,0,0,0,3.81-1.73" transform="translate(-41.05 -523.93)"/><path class="cls-1" d="M896.43,590.85l1.76,9.62c-.87.33-1.78.64-2.73.91l-1.76-9.62c.95-.28,1.86-.58,2.73-.91" transform="translate(-41.05 -523.93)"/><path class="cls-1" d="M893.7,591.76l1.76,9.62c-.81.24-1.66.45-2.53.65l-1.76-9.63c.88-.19,1.72-.4,2.53-.64" transform="translate(-41.05 -523.93)"/><path class="cls-1" d="M891.17,592.4l1.76,9.63c-.83.18-1.68.34-2.57.48l-1.75-9.62c.88-.14,1.73-.3,2.56-.49" transform="translate(-41.05 -523.93)"/><path class="cls-1" d="M888.61,592.89l1.75,9.62c-.89.15-1.82.27-2.77.36l-1.75-9.62c.95-.09,1.87-.22,2.77-.36" transform="translate(-41.05 -523.93)"/><path class="cls-1" d="M885.84,593.25l1.75,9.62c-1,.11-2.08.18-3.17.23l-1.75-9.62c1.09-.05,2.14-.12,3.17-.23" transform="translate(-41.05 -523.93)"/><path class="cls-1" d="M882.67,593.48l1.75,9.62c-.9,0-1.83.06-2.79,0h-1l-1.76-9.62h1c1,0,1.88,0,2.79,0" transform="translate(-41.05 -523.93)"/><path class="cls-1" d="M878.9,593.52l1.76,9.62c-1.33,0-2.62-.1-3.86-.22L875,593.3c1.24.12,2.53.19,3.86.22" transform="translate(-41.05 -523.93)"/><path class="cls-1" d="M875,593.3l1.76,9.62a42.79,42.79,0,0,1-4.3-.61l-1.75-9.62a42.59,42.59,0,0,0,4.29.61" transform="translate(-41.05 -523.93)"/><path class="cls-1" d="M870.75,592.69l1.75,9.62a35,35,0,0,1-5.12-1.37c-7.44-2.63-12.06-7.43-13.15-13.43l-1.76-9.63c1.09,6,5.72,10.8,13.15,13.44a35.52,35.52,0,0,0,5.13,1.37" transform="translate(-41.05 -523.93)"/></g></g><path class="cls-5" d="M854.23,587.51l-1.76-9.63c1.09,6,5.72,10.8,13.15,13.44a43.63,43.63,0,0,0,14.26,2.21c11.34.05,19.49-3,24.76-7.36l1.76,9.62c-5.27,4.38-13.43,7.41-24.77,7.36a43.34,43.34,0,0,1-14.25-2.21C859.94,598.31,855.32,593.51,854.23,587.51Z" transform="translate(-41.05 -523.93)"/></g><g class="cls-2"><path class="cls-3" d="M1024,560.13l1.76,9.62a19.32,19.32,0,0,1-1,9.67l-1.75-9.63A19.26,19.26,0,0,0,1024,560.13Z" transform="translate(-41.05 -523.93)"/><g class="cls-38"><g class="cls-2"><path class="cls-1" d="M1024,560.13l1.76,9.62.06.4-1.75-9.63c0-.13,0-.26-.07-.39" transform="translate(-41.05 -523.93)"/><path class="cls-1" d="M1024,560.52l1.75,9.63a16.21,16.21,0,0,1,.19,2.72l-1.76-9.63a17.43,17.43,0,0,0-.18-2.72" transform="translate(-41.05 -523.93)"/><path class="cls-1" d="M1024.2,563.24l1.76,9.63a20.44,20.44,0,0,1-.3,3.06l-1.76-9.62a18.23,18.23,0,0,0,.3-3.07" transform="translate(-41.05 -523.93)"/><path class="cls-1" d="M1023.9,566.31l1.76,9.62a24,24,0,0,1-.91,3.49l-1.75-9.63a23.8,23.8,0,0,0,.9-3.48" transform="translate(-41.05 -523.93)"/></g></g><path class="cls-5" d="M1024,560.13l1.76,9.62a19.32,19.32,0,0,1-1,9.67l-1.75-9.63A19.26,19.26,0,0,0,1024,560.13Z" transform="translate(-41.05 -523.93)"/></g><polygon class="cls-1" points="1051 22.04 1052.76 31.66 1047.78 46.37 1046.02 36.75 1051 22.04"/><polygon class="cls-1" points="981.94 45.86 983.7 55.49 982.73 58.36 980.98 48.73 981.94 45.86"/><polygon class="cls-1" points="980.98 48.73 982.73 58.36 929.22 58.17 927.47 48.55 980.98 48.73"/><path class="cls-1" d="M948.34,527.14l-22.16,65.48-23.7-.08,2.16-6.37c-5.27,4.38-13.42,7.41-24.76,7.36a43.63,43.63,0,0,1-14.26-2.21c-10.89-3.86-15.75-12.37-12.32-22.49C858,555,875.86,544.3,896.37,544.38a36,36,0,0,1,11.83,1.68c3.77,1.34,6.11,3.38,7.31,5.84l8.41-24.85Zm-58.57,54c9.88,0,17.54-5,19.94-12.06,1.77-5.24-.1-9.37-5.2-11.17a19.8,19.8,0,0,0-6.55-1c-10.18,0-18.14,5.86-20.24,12-1.59,4.7.31,9.26,5.78,11.2a19.12,19.12,0,0,0,6.27,1" transform="translate(-41.05 -523.93)"/><polygon class="cls-1" points="885.13 68.69 886.89 78.32 863.18 78.23 861.43 68.61 885.13 68.69"/><polygon class="cls-1" points="907.29 3.21 909.04 12.83 886.89 78.32 885.13 68.69 907.29 3.21"/><g class="cls-2"><path class="cls-3" d="M1087.07,560.68l1.76,9.62c-1.42-.09-2.87-.1-4.62-.1-13.23,0-20.94,4.24-23.76,12.58l-1.76-9.62c2.82-8.35,10.53-12.63,23.77-12.58C1084.2,560.58,1085.65,560.59,1087.07,560.68Z" transform="translate(-41.05 -523.93)"/><g class="cls-39"><g class="cls-2"><path class="cls-1" d="M1087.07,560.68l1.76,9.62c-.66,0-1.33-.06-2-.08L1085,560.6c.7,0,1.37,0,2,.08" transform="translate(-41.05 -523.93)"/><path class="cls-1" d="M1085,560.6l1.76,9.62-2.59,0c-.88,0-1.73,0-2.56,0l-1.76-9.62c.83,0,1.69,0,2.57,0s1.78,0,2.58,0" transform="translate(-41.05 -523.93)"/><path class="cls-1" d="M1079.89,560.63l1.76,9.62c-1,0-1.87.1-2.76.19l-1.76-9.62c.89-.09,1.81-.15,2.76-.19" transform="translate(-41.05 -523.93)"/><path class="cls-1" d="M1077.13,560.82l1.76,9.62q-1.16.12-2.25.3l-1.75-9.63c.72-.11,1.47-.21,2.24-.29" transform="translate(-41.05 -523.93)"/><path class="cls-1" d="M1074.89,561.11l1.75,9.63c-.67.1-1.33.23-2,.37l-1.76-9.63c.64-.14,1.29-.26,2-.37" transform="translate(-41.05 -523.93)"/><path class="cls-1" d="M1072.92,561.48l1.76,9.63c-.64.14-1.25.29-1.85.47l-1.75-9.62c.59-.18,1.21-.33,1.84-.48" transform="translate(-41.05 -523.93)"/><path class="cls-1" d="M1071.08,562l1.75,9.62c-.65.19-1.28.4-1.88.63l-1.76-9.63c.6-.23,1.23-.44,1.89-.62" transform="translate(-41.05 -523.93)"/><path class="cls-1" d="M1069.19,562.58l1.76,9.63a20.84,20.84,0,0,0-2.57,1.16l-1.76-9.62a20.87,20.87,0,0,1,2.57-1.17" transform="translate(-41.05 -523.93)"/><path class="cls-1" d="M1066.62,563.75l1.76,9.62a17.44,17.44,0,0,0-3.3,2.29l-1.75-9.63a17.46,17.46,0,0,1,3.29-2.28" transform="translate(-41.05 -523.93)"/><path class="cls-1" d="M1063.33,566l1.75,9.63a15.48,15.48,0,0,0-2.16,2.35l-1.76-9.62a16.12,16.12,0,0,1,2.17-2.36" transform="translate(-41.05 -523.93)"/><path class="cls-1" d="M1061.16,568.39l1.76,9.62a17.27,17.27,0,0,0-1.37,2.17l-1.75-9.62a15.53,15.53,0,0,1,1.36-2.17" transform="translate(-41.05 -523.93)"/><path class="cls-1" d="M1059.8,570.56l1.75,9.62a19.84,19.84,0,0,0-1.08,2.53l-1.75-9.63a17.69,17.69,0,0,1,1.08-2.52" transform="translate(-41.05 -523.93)"/><path class="cls-1" d="M1058.72,573.08l1.75,9.63,0,.07-1.76-9.62,0-.08" transform="translate(-41.05 -523.93)"/></g></g><path class="cls-5" d="M1087.07,560.68l1.76,9.62c-1.42-.09-2.87-.1-4.62-.1-13.23,0-20.94,4.24-23.76,12.58l-1.76-9.62c2.82-8.35,10.53-12.63,23.77-12.58C1084.2,560.58,1085.65,560.59,1087.07,560.68Z" transform="translate(-41.05 -523.93)"/></g><g class="cls-2"><path class="cls-3" d="M947.13,587.53l-1.75-9.63c1,5.76,5.59,10.39,13.4,13.16,5.06,1.79,11.49,2.79,19.24,2.82,18.47.07,35.16-6.69,41.75-16.28l1.76,9.62c-6.6,9.59-23.29,16.35-41.75,16.28-7.75,0-14.19-1-19.25-2.82C952.72,597.91,948.18,593.29,947.13,587.53Z" transform="translate(-41.05 -523.93)"/><g class="cls-40"><g class="cls-2"><path class="cls-1" d="M1019.77,577.6l1.76,9.62-.49.68-1.75-9.63c.16-.22.33-.45.48-.67" transform="translate(-41.05 -523.93)"/><path class="cls-1" d="M1019.29,578.27l1.75,9.63a25.53,25.53,0,0,1-3.5,3.76l-1.76-9.62a25.18,25.18,0,0,0,3.51-3.77" transform="translate(-41.05 -523.93)"/><path class="cls-1" d="M1015.78,582l1.76,9.62a36.48,36.48,0,0,1-6.95,4.78l-1.75-9.62a37.19,37.19,0,0,0,6.94-4.78" transform="translate(-41.05 -523.93)"/><path class="cls-1" d="M1008.84,586.82l1.75,9.62a49.41,49.41,0,0,1-6.18,2.81l-1.76-9.62a50.22,50.22,0,0,0,6.19-2.81" transform="translate(-41.05 -523.93)"/><path class="cls-1" d="M1002.65,589.63l1.76,9.62c-1.46.56-3,1.06-4.54,1.51l-1.76-9.62c1.57-.45,3.08-1,4.54-1.51" transform="translate(-41.05 -523.93)"/><path class="cls-1" d="M998.11,591.14l1.76,9.62c-1.35.4-2.73.75-4.15,1.06L994,592.2c1.41-.31,2.8-.67,4.14-1.06" transform="translate(-41.05 -523.93)"/><path class="cls-1" d="M994,592.2l1.75,9.62c-1.32.29-2.66.55-4,.77L989.93,593c1.37-.22,2.72-.48,4-.77" transform="translate(-41.05 -523.93)"/><path class="cls-1" d="M989.93,593l1.76,9.62c-1.35.21-2.72.39-4.12.54l-1.75-9.63c1.39-.14,2.76-.32,4.11-.53" transform="translate(-41.05 -523.93)"/><path class="cls-1" d="M985.82,593.5l1.75,9.63c-1.42.14-2.87.24-4.33.31l-1.76-9.63c1.46-.06,2.91-.16,4.34-.31" transform="translate(-41.05 -523.93)"/><path class="cls-1" d="M981.48,593.81l1.76,9.63c-1.14,0-2.3.07-3.46.06h-1.51l-1.76-9.63,1.51,0c1.16,0,2.32,0,3.46-.07" transform="translate(-41.05 -523.93)"/><path class="cls-1" d="M976.51,593.86l1.76,9.63c-2,0-3.88-.15-5.68-.32l-1.76-9.62q2.71.26,5.68.31" transform="translate(-41.05 -523.93)"/><path class="cls-1" d="M970.83,593.55l1.76,9.62c-2.05-.19-4-.47-5.81-.82L965,592.73c1.81.35,3.75.62,5.8.82" transform="translate(-41.05 -523.93)"/><path class="cls-1" d="M965,592.73l1.75,9.62a43.92,43.92,0,0,1-6.25-1.67c-7.81-2.77-12.35-7.39-13.4-13.15l-1.75-9.63c1,5.76,5.59,10.39,13.4,13.16a46,46,0,0,0,6.25,1.67" transform="translate(-41.05 -523.93)"/></g></g><path class="cls-5" d="M947.13,587.53l-1.75-9.63c1,5.76,5.59,10.39,13.4,13.16,5.06,1.79,11.49,2.79,19.24,2.82,18.47.07,35.16-6.69,41.75-16.28l1.76,9.62c-6.6,9.59-23.29,16.35-41.75,16.28-7.75,0-14.19-1-19.25-2.82C952.72,597.91,948.18,593.29,947.13,587.53Z" transform="translate(-41.05 -523.93)"/></g><path class="cls-1" d="M1019.77,577.6c-6.59,9.59-23.28,16.35-41.75,16.28-7.75,0-14.18-1-19.24-2.82-11.46-4.06-15.88-12.13-12.57-21.9,4.58-13.54,24-24.52,47.42-24.44a53.74,53.74,0,0,1,17.6,2.58c11.38,4,15.18,12.41,11.77,22.49l-1,2.87-53.51-.19c-.85,4,1.11,7.3,5.7,8.92a22.39,22.39,0,0,0,7.36,1.1c8.14,0,13.26-2.2,16.24-5Zm-29.65-22.47c-8,0-14.65,3.27-18,7.93l30,.11c.3-3.21-1.61-5.73-5.32-7a20.35,20.35,0,0,0-6.66-1" transform="translate(-41.05 -523.93)"/><path class="cls-1" d="M1092.05,546l-5,14.71c-1.42-.09-2.87-.1-4.61-.1-13.24-.05-21,4.23-23.77,12.58L1052,593.07l-24.43-.09,15.91-47,23.41.08-3.46,10.23c4-6.27,11.93-10.74,23.12-10.7A32.31,32.31,0,0,1,1092.05,546Z" transform="translate(-41.05 -523.93)"/><polygon class="cls-1" points="1017.64 49.23 1019.4 58.85 1012.65 78.76 1010.89 69.14 1017.64 49.23"/><polygon class="cls-1" points="1010.89 69.14 1012.65 78.76 988.23 78.68 986.47 69.06 1010.89 69.14"/></g></svg>