<svg id="Ebene_1" data-name="Ebene 1" xmlns="http://www.w3.org/2000/svg" xmlns:xlink="http://www.w3.org/1999/xlink" viewBox="0 0 1109.68 726.41"><defs><style>.cls-1,.cls-3{fill:#fff;}.cls-1,.cls-12,.cls-5,.cls-7{stroke:#1d1d1b;stroke-miterlimit:10;stroke-width:1.35px;}.cls-2{isolation:isolate;}.cls-4{clip-path:url(#clip-path);}.cls-5{fill:none;}.cls-6{clip-path:url(#clip-path-2);}.cls-7{fill:#312783;}.cls-8{clip-path:url(#clip-path-3);}.cls-9{clip-path:url(#clip-path-4);}.cls-10{clip-path:url(#clip-path-5);}.cls-11{clip-path:url(#clip-path-6);}.cls-12{fill:#e30613;}.cls-13{clip-path:url(#clip-path-7);}.cls-14{clip-path:url(#clip-path-8);}.cls-15{clip-path:url(#clip-path-9);}.cls-16{clip-path:url(#clip-path-10);}.cls-17{clip-path:url(#clip-path-11);}.cls-18{clip-path:url(#clip-path-12);}.cls-19{clip-path:url(#clip-path-13);}</style><clipPath id="clip-path" transform="translate(-11.82 -236.47)"><path class="cls-1" d="M296.56,295.6l-.13,44.81a72.27,72.27,0,0,0-12.25-8.57c-14.18-8.18-28.65-8-41.14-.74l.13-44.81c12.49-7.26,27-7.45,41.13.74A72,72,0,0,1,296.56,295.6Z"/></clipPath><clipPath id="clip-path-2" transform="translate(-11.82 -236.47)"><path class="cls-1" d="M346.4,415.28l-.13,44.81c-2.9-2-6.12-3.91-10-6.14-29.34-16.93-58.57-16-88.36,1.31l.12-44.81c29.8-17.32,59-18.25,88.37-1.31C340.27,411.37,343.5,413.23,346.4,415.28Z"/></clipPath><clipPath id="clip-path-3" transform="translate(-11.82 -236.47)"><path class="cls-1" d="M479.07,480.86l-.13,44.81c0-6.63-4.6-13.16-14.14-18.67-17.73-10.24-41.84-10.42-62.36-3l.13-44.81c20.51-7.45,44.63-7.26,62.36,3C474.47,467.7,479.09,474.23,479.07,480.86Z"/></clipPath><clipPath id="clip-path-4" transform="translate(-11.82 -236.47)"><path class="cls-1" d="M353.09,544.21l.13-44.82c0-7.33,5.21-14.71,14.75-21.2L367.85,523C358.31,529.49,353.12,536.88,353.09,544.21Z"/></clipPath><clipPath id="clip-path-5" transform="translate(-11.82 -236.47)"><path class="cls-1" d="M539.19,488l-.13,44.81c0,18.6-15.33,37.05-42.33,52.74l.13-44.81C523.86,525.05,539.13,506.6,539.19,488Z"/></clipPath><clipPath id="clip-path-6" transform="translate(-11.82 -236.47)"><path class="cls-1" d="M288.17,537.09l.13-44.81c-.05,17.65,12.86,35.65,40.51,51.62,40.94,23.64,97.21,27.92,138.9,12.29L467.58,601c-41.69,15.64-98,11.35-138.89-12.29C301,572.75,288.12,554.74,288.17,537.09Z"/></clipPath><clipPath id="clip-path-7" transform="translate(-11.82 -236.47)"><path class="cls-1" d="M657.18,590.83l-.13,44.81c0-4.53-3.11-9-10.38-13.24-17.08-9.87-36.68-8.19-54.93,2.42l.13-44.81c18.25-10.61,37.85-12.29,54.93-2.42C654.07,581.78,657.19,586.3,657.18,590.83Z"/></clipPath><clipPath id="clip-path-8" transform="translate(-11.82 -236.47)"><path class="cls-1" d="M738.15,594.68,738,639.5c0,14.09-12.86,28.42-35.75,41.71l.13-44.81C725.29,623.1,738.11,608.77,738.15,594.68Z"/></clipPath><clipPath id="clip-path-9" transform="translate(-11.82 -236.47)"><path class="cls-1" d="M854.11,706.44,854,751.25c0-6.3-4-12.61-13.57-18.11C816.57,719.37,785.1,725,763,737.79c-13,7.57-21.69,17-21.72,26.33l.13-44.81c0-9.31,8.69-18.76,21.72-26.33,22.1-12.84,53.56-18.42,77.41-4.65C850.07,693.83,854.13,700.13,854.11,706.44Z"/></clipPath><clipPath id="clip-path-10" transform="translate(-11.82 -236.47)"><path class="cls-1" d="M923.94,711.36l-.13,44.81c0,14.36-9,28.45-26.47,40.63l.12-44.81C914.89,739.8,923.9,725.71,923.94,711.36Z"/></clipPath><clipPath id="clip-path-11" transform="translate(-11.82 -236.47)"><path class="cls-1" d="M670.71,757.4l.12-44.82c-.05,17.78,12.31,35.89,39,51.32,48,27.73,109.74,28.85,155.57,6.7l-.13,44.81c-45.83,22.15-107.53,21-155.56-6.7C683,793.29,670.66,775.17,670.71,757.4Z"/></clipPath><clipPath id="clip-path-12" transform="translate(-11.82 -236.47)"><path class="cls-1" d="M1039.85,811.77l-.13,44.81c0-4.54-3.11-9.06-10.38-13.25-17.08-9.86-36.68-8.19-54.93,2.42l.12-44.81c18.26-10.61,37.85-12.29,54.94-2.42C1036.73,802.71,1039.86,807.23,1039.85,811.77Z"/></clipPath><clipPath id="clip-path-13" transform="translate(-11.82 -236.47)"><path class="cls-1" d="M1120.82,815.62l-.13,44.81c0,14.09-12.86,28.42-35.75,41.72l.13-44.81C1108,844,1120.78,829.71,1120.82,815.62Z"/></clipPath></defs><polygon class="cls-1" points="126.27 48.14 126.14 92.95 102.61 79.37 102.74 34.55 126.27 48.14"/><polygon class="cls-1" points="231.35 49.82 231.22 94.63 223.22 99.28 223.34 54.47 231.35 49.82"/><polygon class="cls-1" points="325.74 35.3 325.61 80.11 284.62 103.94 284.74 59.13 325.74 35.3"/><g class="cls-2"><path class="cls-3" d="M296.56,295.6l-.13,44.81a72.27,72.27,0,0,0-12.25-8.57c-14.18-8.18-28.65-8-41.14-.74l.13-44.81c12.49-7.26,27-7.45,41.13.74A72,72,0,0,1,296.56,295.6Z" transform="translate(-11.82 -236.47)"/><g class="cls-4"><g class="cls-2"><path class="cls-1" d="M296.56,295.6l-.13,44.81a72.27,72.27,0,0,0-12.25-8.57,50.79,50.79,0,0,0-6.66-3.23l.12-44.81A49.6,49.6,0,0,1,284.3,287a72,72,0,0,1,12.26,8.57" transform="translate(-11.82 -236.47)"/><path class="cls-1" d="M277.64,283.8l-.12,44.81c-1.37-.54-2.74-1-4.11-1.39l.13-44.81c1.37.39,2.73.85,4.1,1.39" transform="translate(-11.82 -236.47)"/><path class="cls-1" d="M273.54,282.41l-.13,44.81c-1-.28-2-.52-2.93-.72l.12-44.81q1.47.3,2.94.72" transform="translate(-11.82 -236.47)"/><path class="cls-1" d="M270.6,281.69l-.12,44.81c-.84-.18-1.67-.32-2.5-.44l.13-44.81c.83.12,1.66.26,2.49.44" transform="translate(-11.82 -236.47)"/><path class="cls-1" d="M268.11,281.25,268,326.06c-.76-.11-1.51-.19-2.26-.25l.12-44.82c.76.07,1.51.15,2.27.26" transform="translate(-11.82 -236.47)"/><path class="cls-1" d="M265.84,281l-.12,44.82c-.73-.06-1.46-.1-2.18-.12l.12-44.81c.73,0,1.45.05,2.18.11" transform="translate(-11.82 -236.47)"/><path class="cls-1" d="M263.66,280.88l-.12,44.81c-.75,0-1.49,0-2.22,0l.12-44.81c.74,0,1.48,0,2.22,0" transform="translate(-11.82 -236.47)"/><path class="cls-1" d="M261.44,280.89l-.12,44.81c-.81,0-1.61.08-2.4.16l.12-44.81c.8-.08,1.6-.13,2.4-.16" transform="translate(-11.82 -236.47)"/><path class="cls-1" d="M259,281.05l-.12,44.81c-1,.1-2,.24-3,.42l.13-44.81c1-.18,2-.32,3-.42" transform="translate(-11.82 -236.47)"/><path class="cls-1" d="M256.06,281.47l-.13,44.81a39.41,39.41,0,0,0-4.87,1.22l.13-44.81a37.7,37.7,0,0,1,4.87-1.22" transform="translate(-11.82 -236.47)"/><path class="cls-1" d="M251.19,282.69l-.13,44.81a41.46,41.46,0,0,0-8,3.6l.13-44.81a40.93,40.93,0,0,1,8-3.6" transform="translate(-11.82 -236.47)"/></g></g><path class="cls-5" d="M296.56,295.6l-.13,44.81a72.27,72.27,0,0,0-12.25-8.57c-14.18-8.18-28.65-8-41.14-.74l.13-44.81c12.49-7.26,27-7.45,41.13.74A72,72,0,0,1,296.56,295.6Z" transform="translate(-11.82 -236.47)"/></g><polygon class="cls-1" points="256.87 73.83 256.75 118.64 213.83 143.58 213.96 98.77 256.87 73.83"/><polygon class="cls-1" points="213.96 98.77 213.83 143.58 180.3 124.22 180.43 79.41 213.96 98.77"/><polygon class="cls-1" points="180.43 79.41 180.3 124.22 55.38 196.82 55.51 152 180.43 79.41"/><polygon class="cls-1" points="55.51 152 55.38 196.82 1.22 165.55 1.35 120.73 55.51 152"/><path class="cls-1" d="M315,256.14c10.95,6.32,19,12.1,22.57,15.63l-41,23.83A72,72,0,0,0,284.3,287c-14.18-8.19-28.64-8-41.13-.74l-8,4.65,33.53,19.36-42.91,24.94-33.54-19.36L67.33,388.48,13.17,357.21l124.91-72.6L114.55,271l42.91-24.94L181,259.67l8-4.65C228.4,232.13,269.53,229.89,315,256.14Z" transform="translate(-11.82 -236.47)"/><polygon class="cls-1" points="330.7 116.46 330.58 161.27 294.07 182.49 294.2 137.67 330.7 116.46"/><polygon class="cls-1" points="387.12 148.28 386.99 193.09 334.46 223.62 334.59 178.81 387.12 148.28"/><g class="cls-2"><path class="cls-3" d="M346.4,415.28l-.13,44.81c-2.9-2-6.12-3.91-10-6.14-29.34-16.93-58.57-16-88.36,1.31l.12-44.81c29.8-17.32,59-18.25,88.37-1.31C340.27,411.37,343.5,413.23,346.4,415.28Z" transform="translate(-11.82 -236.47)"/><g class="cls-6"><g class="cls-2"><path class="cls-1" d="M346.4,415.28l-.13,44.81c-2.9-2-6.12-3.91-10-6.14a101.14,101.14,0,0,0-13.37-6.49l.13-44.81a101.75,101.75,0,0,1,13.37,6.49c3.86,2.23,7.09,4.09,10,6.14" transform="translate(-11.82 -236.47)"/><path class="cls-1" d="M323,402.65l-.13,44.81c-2.64-1-5.29-1.93-7.93-2.69l.13-44.81q4,1.13,7.93,2.69" transform="translate(-11.82 -236.47)"/><path class="cls-1" d="M315.11,400,315,444.77q-2.88-.82-5.78-1.42l.13-44.81c1.93.4,3.85.87,5.78,1.42" transform="translate(-11.82 -236.47)"/><path class="cls-1" d="M309.33,398.54l-.13,44.81c-1.61-.34-3.23-.62-4.84-.85l.13-44.81c1.61.23,3.23.51,4.84.85" transform="translate(-11.82 -236.47)"/><path class="cls-1" d="M304.49,397.69l-.13,44.81c-1.48-.21-3-.37-4.45-.5l.13-44.81c1.48.12,3,.29,4.45.5" transform="translate(-11.82 -236.47)"/><path class="cls-1" d="M300,397.19,299.91,442c-1.44-.12-2.89-.19-4.33-.23L295.7,397c1.45,0,2.89.11,4.34.23" transform="translate(-11.82 -236.47)"/><path class="cls-1" d="M295.7,397l-.12,44.81c-1.5,0-3,0-4.49,0l.13-44.81c1.49-.05,3-.06,4.48,0" transform="translate(-11.82 -236.47)"/><path class="cls-1" d="M291.22,397l-.13,44.81c-1.67.06-3.34.17-5,.34l.12-44.81c1.67-.17,3.35-.28,5-.34" transform="translate(-11.82 -236.47)"/><path class="cls-1" d="M286.2,397.32l-.12,44.81c-2.07.21-4.15.5-6.22.88l.13-44.82q3.11-.56,6.21-.87" transform="translate(-11.82 -236.47)"/><path class="cls-1" d="M280,398.19,279.86,443a86.11,86.11,0,0,0-11.14,2.81l.12-44.81A88,88,0,0,1,280,398.19" transform="translate(-11.82 -236.47)"/><path class="cls-1" d="M268.84,401l-.12,44.81a107.09,107.09,0,0,0-20.8,9.44l.12-44.81a107.63,107.63,0,0,1,20.8-9.44" transform="translate(-11.82 -236.47)"/></g></g><path class="cls-5" d="M346.4,415.28l-.13,44.81c-2.9-2-6.12-3.91-10-6.14-29.34-16.93-58.57-16-88.36,1.31l.12-44.81c29.8-17.32,59-18.25,88.37-1.31C340.27,411.37,343.5,413.23,346.4,415.28Z" transform="translate(-11.82 -236.47)"/></g><path class="cls-7" d="M387.64,376.75c4.84,2.79,9,5.58,11.29,8L346.4,415.28c-2.9-2-6.13-3.91-10-6.14-29.34-16.94-58.57-16-88.37,1.31l-71.1,41.31L122.78,420.5,290.61,323l51.91,30L306,374.15C332.62,363.54,362.82,362.42,387.64,376.75Z" transform="translate(-11.82 -236.47)"/><polygon class="cls-1" points="236.23 173.97 236.1 218.78 165 260.1 165.13 215.29 236.23 173.97"/><polygon class="cls-1" points="165.13 215.29 165 260.1 110.84 228.84 110.97 184.02 165.13 215.29"/><g class="cls-2"><path class="cls-3" d="M479.07,480.86l-.13,44.81c0-6.63-4.6-13.16-14.14-18.67-17.73-10.24-41.84-10.42-62.36-3l.13-44.81c20.51-7.45,44.63-7.26,62.36,3C474.47,467.7,479.09,474.23,479.07,480.86Z" transform="translate(-11.82 -236.47)"/><g class="cls-8"><g class="cls-2"><path class="cls-1" d="M479.07,480.86l-.13,44.81c0-6.63-4.6-13.16-14.14-18.67a56,56,0,0,0-7.4-3.57l.12-44.81a55.56,55.56,0,0,1,7.41,3.57c9.54,5.51,14.16,12,14.14,18.67" transform="translate(-11.82 -236.47)"/><path class="cls-1" d="M457.52,458.62l-.12,44.81q-2.79-1.1-5.7-1.92l.13-44.82q2.91.84,5.69,1.93" transform="translate(-11.82 -236.47)"/><path class="cls-1" d="M451.83,456.69l-.13,44.82q-2.35-.67-4.77-1.17l.13-44.82q2.42.51,4.77,1.17" transform="translate(-11.82 -236.47)"/><path class="cls-1" d="M447.06,455.52l-.13,44.82c-1.45-.3-2.92-.56-4.39-.77l.12-44.81c1.48.21,2.95.46,4.4.76" transform="translate(-11.82 -236.47)"/><path class="cls-1" d="M442.66,454.76l-.12,44.81c-1.44-.2-2.88-.36-4.34-.48l.13-44.81c1.45.12,2.9.28,4.33.48" transform="translate(-11.82 -236.47)"/><path class="cls-1" d="M438.33,454.28l-.13,44.81q-2.22-.18-4.47-.24l.13-44.81q2.25,0,4.47.24" transform="translate(-11.82 -236.47)"/><path class="cls-1" d="M433.86,454l-.13,44.81c-1.59,0-3.19,0-4.79,0l.12-44.81c1.61-.05,3.21-.06,4.8,0" transform="translate(-11.82 -236.47)"/><path class="cls-1" d="M429.06,454.06l-.12,44.81c-1.83.07-3.66.19-5.48.37l.12-44.81c1.83-.18,3.66-.31,5.48-.37" transform="translate(-11.82 -236.47)"/><path class="cls-1" d="M423.58,454.43l-.12,44.81q-3.42.35-6.83,1l.13-44.81c2.26-.41,4.54-.73,6.82-1" transform="translate(-11.82 -236.47)"/><path class="cls-1" d="M416.76,455.39l-.13,44.81a87.42,87.42,0,0,0-11.1,2.77l.12-44.81a86.31,86.31,0,0,1,11.11-2.77" transform="translate(-11.82 -236.47)"/><path class="cls-1" d="M405.65,458.16,405.53,503q-1.56.5-3.09,1l.13-44.81c1-.37,2.05-.72,3.08-1" transform="translate(-11.82 -236.47)"/></g></g><path class="cls-5" d="M479.07,480.86l-.13,44.81c0-6.63-4.6-13.16-14.14-18.67-17.73-10.24-41.84-10.42-62.36-3l.13-44.81c20.51-7.45,44.63-7.26,62.36,3C474.47,467.7,479.09,474.23,479.07,480.86Z" transform="translate(-11.82 -236.47)"/></g><g class="cls-2"><path class="cls-3" d="M353.09,544.21l.13-44.82c0-7.33,5.21-14.71,14.75-21.2L367.85,523C358.31,529.49,353.12,536.88,353.09,544.21Z" transform="translate(-11.82 -236.47)"/><g class="cls-9"><g class="cls-2"><path class="cls-1" d="M368,478.19,367.85,523a50.13,50.13,0,0,0-6.05,4.75l.13-44.81a51.87,51.87,0,0,1,6-4.76" transform="translate(-11.82 -236.47)"/><path class="cls-1" d="M361.93,483l-.13,44.81a36.67,36.67,0,0,0-3.9,4.18l.13-44.81a35,35,0,0,1,3.9-4.18" transform="translate(-11.82 -236.47)"/><path class="cls-1" d="M358,487.13l-.13,44.81a26.67,26.67,0,0,0-2.29,3.4l.12-44.81a27.12,27.12,0,0,1,2.3-3.4" transform="translate(-11.82 -236.47)"/><path class="cls-1" d="M355.73,490.53l-.12,44.81a20.25,20.25,0,0,0-1.39,3l.12-44.81a22.57,22.57,0,0,1,1.39-3" transform="translate(-11.82 -236.47)"/><path class="cls-1" d="M354.34,493.49l-.12,44.81a18.22,18.22,0,0,0-.81,2.78l.13-44.81a19,19,0,0,1,.8-2.78" transform="translate(-11.82 -236.47)"/><path class="cls-1" d="M353.54,496.27l-.13,44.81a16.8,16.8,0,0,0-.31,2.71l.13-44.81a15.63,15.63,0,0,1,.31-2.71" transform="translate(-11.82 -236.47)"/><path class="cls-1" d="M353.23,499l-.13,44.81c0,.14,0,.28,0,.42l.13-44.82c0-.13,0-.27,0-.41" transform="translate(-11.82 -236.47)"/></g></g><path class="cls-5" d="M353.09,544.21l.13-44.82c0-7.33,5.21-14.71,14.75-21.2L367.85,523C358.31,529.49,353.12,536.88,353.09,544.21Z" transform="translate(-11.82 -236.47)"/></g><g class="cls-2"><path class="cls-3" d="M539.19,488l-.13,44.81c0,18.6-15.33,37.05-42.33,52.74l.13-44.81C523.86,525.05,539.13,506.6,539.19,488Z" transform="translate(-11.82 -236.47)"/><g class="cls-10"><g class="cls-2"><path class="cls-1" d="M539.19,488l-.13,44.81c0,.3,0,.59,0,.89l.13-44.81c0-.3,0-.6,0-.89" transform="translate(-11.82 -236.47)"/><path class="cls-1" d="M539.17,488.89,539,533.7a34.1,34.1,0,0,1-.68,5.92l.13-44.81a35.1,35.1,0,0,0,.68-5.92" transform="translate(-11.82 -236.47)"/><path class="cls-1" d="M538.49,494.81l-.13,44.81a38.58,38.58,0,0,1-1.74,6l.13-44.81a40,40,0,0,0,1.74-6" transform="translate(-11.82 -236.47)"/><path class="cls-1" d="M536.75,500.85l-.13,44.81a47.29,47.29,0,0,1-3,6.48l.13-44.82a46.63,46.63,0,0,0,3-6.47" transform="translate(-11.82 -236.47)"/><path class="cls-1" d="M533.71,507.32l-.13,44.82a59.57,59.57,0,0,1-5,7.45l.13-44.81a58.94,58.94,0,0,0,5-7.46" transform="translate(-11.82 -236.47)"/><path class="cls-1" d="M528.67,514.78l-.13,44.81a81.85,81.85,0,0,1-8.64,9.26L520,524a80.18,80.18,0,0,0,8.65-9.25" transform="translate(-11.82 -236.47)"/><path class="cls-1" d="M520,524l-.12,44.82a129.12,129.12,0,0,1-20.82,15.31l.13-44.81A128.44,128.44,0,0,0,520,524" transform="translate(-11.82 -236.47)"/><path class="cls-1" d="M499.21,539.35l-.13,44.81-2.35,1.39.13-44.81,2.35-1.39" transform="translate(-11.82 -236.47)"/></g></g><path class="cls-5" d="M539.19,488l-.13,44.81c0,18.6-15.33,37.05-42.33,52.74l.13-44.81C523.86,525.05,539.13,506.6,539.19,488Z" transform="translate(-11.82 -236.47)"/></g><polygon class="cls-1" points="485.04 304.27 484.91 349.08 474.67 355.03 474.8 310.22 485.04 304.27"/><polygon class="cls-1" points="474.8 310.22 474.67 355.03 356.03 286.53 356.16 241.72 474.8 310.22"/><g class="cls-2"><path class="cls-3" d="M288.17,537.09l.13-44.81c-.05,17.65,12.86,35.65,40.51,51.62,40.94,23.64,97.21,27.92,138.9,12.29L467.58,601c-41.69,15.64-98,11.35-138.89-12.29C301,572.75,288.12,554.74,288.17,537.09Z" transform="translate(-11.82 -236.47)"/><g class="cls-11"><g class="cls-2"><path class="cls-1" d="M467.71,556.19,467.58,601c-1.91.71-3.85,1.39-5.82,2l.12-44.81c2-.63,3.91-1.31,5.83-2" transform="translate(-11.82 -236.47)"/><path class="cls-1" d="M461.88,558.21,461.76,603a144.49,144.49,0,0,1-18.47,4.59l.12-44.81a143.66,143.66,0,0,0,18.47-4.59" transform="translate(-11.82 -236.47)"/><path class="cls-1" d="M443.41,562.8l-.12,44.81c-4.19.76-8.46,1.35-12.78,1.78l.13-44.81q6.48-.65,12.77-1.78" transform="translate(-11.82 -236.47)"/><path class="cls-1" d="M430.64,564.58l-.13,44.81c-3.7.37-7.45.62-11.22.75l.12-44.82q5.67-.18,11.23-.74" transform="translate(-11.82 -236.47)"/><path class="cls-1" d="M419.41,565.32l-.12,44.82c-3.5.11-7,.13-10.55,0l.13-44.81c3.53.09,7.05.07,10.54,0" transform="translate(-11.82 -236.47)"/><path class="cls-1" d="M408.87,565.37l-.13,44.81c-3.47-.09-7-.27-10.44-.56l.13-44.81c3.48.29,7,.47,10.44.56" transform="translate(-11.82 -236.47)"/><path class="cls-1" d="M398.43,564.81l-.13,44.81q-5.35-.43-10.7-1.2l.13-44.81c3.56.51,7.13.9,10.7,1.2" transform="translate(-11.82 -236.47)"/><path class="cls-1" d="M387.73,563.61l-.13,44.81q-5.66-.79-11.26-2l.13-44.81q5.59,1.15,11.26,2" transform="translate(-11.82 -236.47)"/><path class="cls-1" d="M376.47,561.65l-.13,44.81q-6.37-1.32-12.62-3.09l.13-44.82c4.15,1.19,8.37,2.22,12.62,3.1" transform="translate(-11.82 -236.47)"/><path class="cls-1" d="M363.85,558.55l-.13,44.82c-5.18-1.48-10.27-3.2-15.23-5.15l.13-44.81c5,2,10.05,3.67,15.23,5.14" transform="translate(-11.82 -236.47)"/><path class="cls-1" d="M348.62,553.41l-.13,44.81a146.71,146.71,0,0,1-19.8-9.51c-27.66-16-40.57-34-40.52-51.62l.13-44.81c-.05,17.65,12.86,35.65,40.51,51.62a147.41,147.41,0,0,0,19.81,9.51" transform="translate(-11.82 -236.47)"/></g></g><path class="cls-5" d="M288.17,537.09l.13-44.81c-.05,17.65,12.86,35.65,40.51,51.62,40.94,23.64,97.21,27.92,138.9,12.29L467.58,601c-41.69,15.64-98,11.35-138.89-12.29C301,572.75,288.12,554.74,288.17,537.09Z" transform="translate(-11.82 -236.47)"/></g><path class="cls-12" d="M496.86,540.74l-10.25,6L368,478.19c-18.89,12.85-20.72,29.23.87,41.7,18.06,10.42,35.73,11.35,50.18,8.19l48.69,28.11c-41.69,15.63-98,11.35-138.9-12.29-56.09-32.39-51.5-73.15-1.21-102.37,48.36-28.11,122.58-30.9,174.48-.93C556.88,472.24,547.46,511.33,496.86,540.74Zm-94.29-81.53L469,497.55c14.4-11.35,13.67-25.13-4.05-35.36s-41.85-10.43-62.36-3" transform="translate(-11.82 -236.47)"/><polygon class="cls-1" points="650.18 300.91 650.05 345.72 626.03 359.68 626.15 314.87 650.18 300.91"/><g class="cls-2"><path class="cls-3" d="M657.18,590.83l-.13,44.81c0-4.53-3.11-9-10.38-13.24-17.08-9.87-36.68-8.19-54.93,2.42l.13-44.81c18.25-10.61,37.85-12.29,54.93-2.42C654.07,581.78,657.19,586.3,657.18,590.83Z" transform="translate(-11.82 -236.47)"/><g class="cls-13"><g class="cls-2"><path class="cls-1" d="M657.18,590.83l-.13,44.81c0-4.53-3.11-9-10.38-13.24a49.33,49.33,0,0,0-6.59-3.2l.13-44.81a50.54,50.54,0,0,1,6.59,3.2c7.27,4.19,10.39,8.71,10.38,13.24" transform="translate(-11.82 -236.47)"/><path class="cls-1" d="M640.21,574.39l-.13,44.81c-1.47-.58-3-1.08-4.46-1.51l.12-44.82c1.51.43,3,.94,4.47,1.52" transform="translate(-11.82 -236.47)"/><path class="cls-1" d="M635.74,572.87l-.12,44.82c-1.12-.32-2.25-.6-3.38-.84l.13-44.81c1.13.24,2.25.51,3.37.83" transform="translate(-11.82 -236.47)"/><path class="cls-1" d="M632.37,572l-.13,44.81c-1-.2-2-.37-3-.52l.13-44.81c1,.14,2,.32,3,.52" transform="translate(-11.82 -236.47)"/><path class="cls-1" d="M629.39,571.52l-.13,44.81c-.93-.13-1.87-.23-2.81-.31l.13-44.81c.94.07,1.87.18,2.81.31" transform="translate(-11.82 -236.47)"/><path class="cls-1" d="M626.58,571.21,626.45,616c-.93-.08-1.87-.13-2.81-.15l.13-44.81c.94,0,1.88.07,2.81.15" transform="translate(-11.82 -236.47)"/><path class="cls-1" d="M623.77,571.06l-.13,44.81c-1,0-2,0-3,0l.13-44.81c1,0,2,0,3,0" transform="translate(-11.82 -236.47)"/><path class="cls-1" d="M620.81,571.07l-.13,44.81c-1.11,0-2.23.12-3.34.23l.12-44.81c1.12-.11,2.23-.19,3.35-.23" transform="translate(-11.82 -236.47)"/><path class="cls-1" d="M617.46,571.3l-.12,44.81c-1.43.14-2.86.34-4.3.6l.13-44.81c1.43-.26,2.87-.46,4.29-.6" transform="translate(-11.82 -236.47)"/><path class="cls-1" d="M613.17,571.9,613,616.71a59.75,59.75,0,0,0-7.45,1.88l.13-44.82a59.26,59.26,0,0,1,7.45-1.87" transform="translate(-11.82 -236.47)"/><path class="cls-1" d="M605.72,573.77l-.13,44.82a69.88,69.88,0,0,0-13.85,6.23l.13-44.81a70.51,70.51,0,0,1,13.85-6.24" transform="translate(-11.82 -236.47)"/></g></g><path class="cls-5" d="M657.18,590.83l-.13,44.81c0-4.53-3.11-9-10.38-13.24-17.08-9.87-36.68-8.19-54.93,2.42l.13-44.81c18.25-10.61,37.85-12.29,54.93-2.42C654.07,581.78,657.19,586.3,657.18,590.83Z" transform="translate(-11.82 -236.47)"/></g><g class="cls-2"><path class="cls-3" d="M738.15,594.68,738,639.5c0,14.09-12.86,28.42-35.75,41.71l.13-44.81C725.29,623.1,738.11,608.77,738.15,594.68Z" transform="translate(-11.82 -236.47)"/><g class="cls-14"><g class="cls-2"><path class="cls-1" d="M738.15,594.68,738,639.5c0,.2,0,.41,0,.61l.12-44.81c0-.2,0-.41,0-.62" transform="translate(-11.82 -236.47)"/><path class="cls-1" d="M738.14,595.3,738,640.11a23.65,23.65,0,0,1-.48,4.08l.13-44.82a24.41,24.41,0,0,0,.47-4.07" transform="translate(-11.82 -236.47)"/><path class="cls-1" d="M737.67,599.37l-.13,44.82a25.88,25.88,0,0,1-1.23,4.25l.13-44.81a26.28,26.28,0,0,0,1.23-4.26" transform="translate(-11.82 -236.47)"/><path class="cls-1" d="M736.44,603.63l-.13,44.81a34.41,34.41,0,0,1-2.21,4.71l.12-44.81a33.34,33.34,0,0,0,2.22-4.71" transform="translate(-11.82 -236.47)"/><path class="cls-1" d="M734.22,608.34l-.12,44.81a44.3,44.3,0,0,1-3.72,5.49l.13-44.81a45.32,45.32,0,0,0,3.71-5.49" transform="translate(-11.82 -236.47)"/><path class="cls-1" d="M730.51,613.83l-.13,44.81A63.7,63.7,0,0,1,723.5,666l.12-44.81a63,63,0,0,0,6.89-7.37" transform="translate(-11.82 -236.47)"/><path class="cls-1" d="M723.62,621.2,723.5,666a116.16,116.16,0,0,1-18.84,13.79l.13-44.81a116,116,0,0,0,18.83-13.79" transform="translate(-11.82 -236.47)"/><path class="cls-1" d="M704.79,635l-.13,44.81-2.39,1.41.13-44.81,2.39-1.41" transform="translate(-11.82 -236.47)"/></g></g><path class="cls-5" d="M738.15,594.68,738,639.5c0,14.09-12.86,28.42-35.75,41.71l.13-44.81C725.29,623.1,738.11,608.77,738.15,594.68Z" transform="translate(-11.82 -236.47)"/></g><polygon class="cls-1" points="580.05 343.53 579.92 388.35 483.84 444.18 483.96 399.37 580.05 343.53"/><polygon class="cls-1" points="483.96 399.37 483.84 444.18 429.68 412.92 429.8 368.1 483.96 399.37"/><polygon class="cls-1" points="690.59 399.93 690.46 444.74 587.97 504.3 588.09 459.49 690.59 399.93"/><polygon class="cls-1" points="588.09 459.49 587.97 504.3 533.81 473.03 533.93 428.22 588.09 459.49"/><path class="cls-1" d="M712,561.76c40.3,23.27,31.77,50.63-9.55,74.64L599.91,696l-54.16-31.27L641.52,609c16.33-9.49,22.69-21.41,5.28-31.45-17.08-9.87-36.68-8.19-54.93,2.42l-96.09,55.83-54.16-31.26L609.45,507,662,537.38l-24,14C662.05,546,687.45,547.62,712,561.76Z" transform="translate(-11.82 -236.47)"/><g class="cls-2"><path class="cls-3" d="M854.11,706.44,854,751.25c0-6.3-4-12.61-13.57-18.11C816.57,719.37,785.1,725,763,737.79c-13,7.57-21.69,17-21.72,26.33l.13-44.81c0-9.31,8.69-18.76,21.72-26.33,22.1-12.84,53.56-18.42,77.41-4.65C850.07,693.83,854.13,700.13,854.11,706.44Z" transform="translate(-11.82 -236.47)"/><g class="cls-15"><g class="cls-2"><path class="cls-1" d="M854.11,706.44,854,751.25c0-6.3-4-12.61-13.57-18.11a55.06,55.06,0,0,0-7.55-3.63L833,684.7a55.51,55.51,0,0,1,7.54,3.63c9.53,5.5,13.59,11.8,13.57,18.11" transform="translate(-11.82 -236.47)"/><path class="cls-1" d="M833,684.7l-.13,44.81a55,55,0,0,0-5.43-1.84l.13-44.82c1.83.53,3.65,1.14,5.43,1.85" transform="translate(-11.82 -236.47)"/><path class="cls-1" d="M827.57,682.85l-.13,44.82c-1.5-.43-3-.8-4.53-1.12l.13-44.81q2.28.48,4.53,1.11" transform="translate(-11.82 -236.47)"/><path class="cls-1" d="M823,681.74l-.13,44.81c-1.37-.28-2.76-.52-4.15-.72l.13-44.81c1.39.2,2.78.44,4.15.72" transform="translate(-11.82 -236.47)"/><path class="cls-1" d="M818.89,681l-.13,44.81c-1.35-.19-2.71-.34-4.08-.46l.13-44.81c1.37.11,2.72.27,4.08.46" transform="translate(-11.82 -236.47)"/><path class="cls-1" d="M814.81,680.56l-.13,44.81c-1.4-.11-2.8-.19-4.21-.22l.13-44.81c1.41,0,2.81.11,4.21.22" transform="translate(-11.82 -236.47)"/><path class="cls-1" d="M810.6,680.34l-.13,44.81c-1.52,0-3.05,0-4.57,0l.12-44.81c1.53-.05,3.06-.06,4.58,0" transform="translate(-11.82 -236.47)"/><path class="cls-1" d="M806,680.36l-.12,44.81c-1.78.06-3.55.18-5.32.36l.13-44.81q2.65-.27,5.31-.36" transform="translate(-11.82 -236.47)"/><path class="cls-1" d="M800.71,680.72l-.13,44.81c-2.31.23-4.61.56-6.89,1l.12-44.81q3.44-.63,6.9-1" transform="translate(-11.82 -236.47)"/><path class="cls-1" d="M793.81,681.69l-.12,44.81a94.36,94.36,0,0,0-12.05,3l.13-44.81a94.21,94.21,0,0,1,12-3" transform="translate(-11.82 -236.47)"/><path class="cls-1" d="M781.77,684.71l-.13,44.81A95.54,95.54,0,0,0,763,737.79l-1.23.73.13-44.81c.4-.25.82-.49,1.23-.73a95.54,95.54,0,0,1,18.64-8.27" transform="translate(-11.82 -236.47)"/><path class="cls-1" d="M761.9,693.71l-.13,44.81a67.18,67.18,0,0,0-10.86,8l.13-44.81a66.31,66.31,0,0,1,10.86-8" transform="translate(-11.82 -236.47)"/><path class="cls-1" d="M751,701.72l-.13,44.81a41.33,41.33,0,0,0-4.48,4.8l.13-44.81a40.54,40.54,0,0,1,4.48-4.8" transform="translate(-11.82 -236.47)"/><path class="cls-1" d="M746.56,706.52l-.13,44.81a31.37,31.37,0,0,0-2.54,3.75l.13-44.81a28.48,28.48,0,0,1,2.54-3.75" transform="translate(-11.82 -236.47)"/><path class="cls-1" d="M744,710.27l-.13,44.81a22.65,22.65,0,0,0-1.47,3.13l.13-44.81a22.65,22.65,0,0,1,1.47-3.13" transform="translate(-11.82 -236.47)"/><path class="cls-1" d="M742.55,713.4l-.13,44.81a18.86,18.86,0,0,0-.82,2.83l.13-44.81a17.75,17.75,0,0,1,.82-2.83" transform="translate(-11.82 -236.47)"/><path class="cls-1" d="M741.73,716.23,741.6,761a16.44,16.44,0,0,0-.31,2.68l.13-44.81a15.19,15.19,0,0,1,.31-2.68" transform="translate(-11.82 -236.47)"/><path class="cls-1" d="M741.42,718.91l-.13,44.81c0,.13,0,.27,0,.4l.13-44.81c0-.14,0-.27,0-.4" transform="translate(-11.82 -236.47)"/></g></g><path class="cls-5" d="M854.11,706.44,854,751.25c0-6.3-4-12.61-13.57-18.11C816.57,719.37,785.1,725,763,737.79c-13,7.57-21.69,17-21.72,26.33l.13-44.81c0-9.31,8.69-18.76,21.72-26.33,22.1-12.84,53.56-18.42,77.41-4.65C850.07,693.83,854.13,700.13,854.11,706.44Z" transform="translate(-11.82 -236.47)"/></g><g class="cls-2"><path class="cls-3" d="M923.94,711.36l-.13,44.81c0,14.36-9,28.45-26.47,40.63l.12-44.81C914.89,739.8,923.9,725.71,923.94,711.36Z" transform="translate(-11.82 -236.47)"/><g class="cls-16"><g class="cls-2"><path class="cls-1" d="M923.94,711.36l-.13,44.81c0,.3,0,.6,0,.91l.13-44.82c0-.3,0-.6,0-.9" transform="translate(-11.82 -236.47)"/><path class="cls-1" d="M923.93,712.26l-.13,44.82a35.07,35.07,0,0,1-.67,5.85l.12-44.81a35.2,35.2,0,0,0,.68-5.86" transform="translate(-11.82 -236.47)"/><path class="cls-1" d="M923.25,718.12l-.12,44.81a36.69,36.69,0,0,1-1.68,5.83l.13-44.82a37.61,37.61,0,0,0,1.67-5.82" transform="translate(-11.82 -236.47)"/><path class="cls-1" d="M921.58,723.94l-.13,44.82a43.25,43.25,0,0,1-2.81,6l.12-44.81a43.44,43.44,0,0,0,2.82-6" transform="translate(-11.82 -236.47)"/><path class="cls-1" d="M918.76,730l-.12,44.81a52.79,52.79,0,0,1-4.44,6.58l.13-44.81a52.33,52.33,0,0,0,4.43-6.58" transform="translate(-11.82 -236.47)"/><path class="cls-1" d="M914.33,736.53l-.13,44.81a66.73,66.73,0,0,1-7.2,7.73l.13-44.81a68.53,68.53,0,0,0,7.2-7.73" transform="translate(-11.82 -236.47)"/><path class="cls-1" d="M907.13,744.26,907,789.07a91,91,0,0,1-9.66,7.73l.12-44.81a91.18,91.18,0,0,0,9.67-7.73" transform="translate(-11.82 -236.47)"/></g></g><path class="cls-5" d="M923.94,711.36l-.13,44.81c0,14.36-9,28.45-26.47,40.63l.12-44.81C914.89,739.8,923.9,725.71,923.94,711.36Z" transform="translate(-11.82 -236.47)"/></g><polygon class="cls-1" points="885.65 515.51 885.52 560.33 833.93 530.54 834.06 485.73 885.65 515.51"/><g class="cls-2"><path class="cls-3" d="M670.71,757.4l.12-44.82c-.05,17.78,12.31,35.89,39,51.32,48,27.73,109.74,28.85,155.57,6.7l-.13,44.81c-45.83,22.15-107.53,21-155.56-6.7C683,793.29,670.66,775.17,670.71,757.4Z" transform="translate(-11.82 -236.47)"/><g class="cls-17"><g class="cls-2"><path class="cls-1" d="M865.43,770.6l-.13,44.81a145.51,145.51,0,0,1-18.7,7.48l.13-44.81a147.57,147.57,0,0,0,18.7-7.48" transform="translate(-11.82 -236.47)"/><path class="cls-1" d="M846.73,778.08l-.13,44.81a159.47,159.47,0,0,1-20.94,5.24l.13-44.81a159.47,159.47,0,0,0,20.94-5.24" transform="translate(-11.82 -236.47)"/><path class="cls-1" d="M825.79,783.32l-.13,44.81c-4.46.81-9,1.44-13.55,1.9l.13-44.81c4.56-.46,9.09-1.09,13.55-1.9" transform="translate(-11.82 -236.47)"/><path class="cls-1" d="M812.24,785.22,812.11,830q-5.61.56-11.3.75l.13-44.81q5.68-.19,11.3-.75" transform="translate(-11.82 -236.47)"/><path class="cls-1" d="M800.94,786l-.13,44.81q-5.23.18-10.5.05l.13-44.81c3.51.08,7,.07,10.5,0" transform="translate(-11.82 -236.47)"/><path class="cls-1" d="M790.44,786l-.13,44.81q-5.09-.14-10.19-.55l.13-44.81q5.1.42,10.19.55" transform="translate(-11.82 -236.47)"/><path class="cls-1" d="M780.25,785.47l-.13,44.81c-3.46-.28-6.92-.67-10.36-1.16l.12-44.81q5.18.74,10.37,1.16" transform="translate(-11.82 -236.47)"/><path class="cls-1" d="M769.88,784.31l-.12,44.81q-5.52-.78-11-1.91l.13-44.82c3.64.76,7.31,1.4,11,1.92" transform="translate(-11.82 -236.47)"/><path class="cls-1" d="M758.9,782.39l-.13,44.82q-6.21-1.29-12.32-3l.13-44.81q6.1,1.74,12.32,3" transform="translate(-11.82 -236.47)"/><path class="cls-1" d="M746.58,779.37l-.13,44.81c-5.23-1.49-10.4-3.24-15.47-5.24l.12-44.81q7.62,3,15.48,5.24" transform="translate(-11.82 -236.47)"/><path class="cls-1" d="M731.1,774.13,731,818.94a158.84,158.84,0,0,1-21.24-10.23c-26.73-15.42-39.08-33.54-39-51.31l.12-44.82c-.05,17.78,12.31,35.89,39,51.32a159.43,159.43,0,0,0,21.24,10.23" transform="translate(-11.82 -236.47)"/></g></g><path class="cls-5" d="M670.71,757.4l.12-44.82c-.05,17.78,12.31,35.89,39,51.32,48,27.73,109.74,28.85,155.57,6.7l-.13,44.81c-45.83,22.15-107.53,21-155.56-6.7C683,793.29,670.66,775.17,670.71,757.4Z" transform="translate(-11.82 -236.47)"/></g><path class="cls-7" d="M885.39,661.9c48,27.73,50.16,63.47,12.07,90.09L845.88,722.2c11.19-10.6,12.4-23.63-5.34-33.87-23.85-13.77-55.31-8.19-77.41,4.65s-31.64,31.09-7.78,44.86c17.73,10.24,40.22,9.5,58.49,3l51.59,29.78c-45.83,22.15-107.53,21-155.57-6.7-54.48-31.45-49.26-74.08-.89-102.19S830.91,630.44,885.39,661.9Z" transform="translate(-11.82 -236.47)"/><polygon class="cls-1" points="1100.45 484.43 1100.32 529.24 1011.27 580.99 1011.4 536.17 1100.45 484.43"/><g class="cls-2"><path class="cls-3" d="M1039.85,811.77l-.13,44.81c0-4.54-3.11-9.06-10.38-13.25-17.08-9.86-36.68-8.19-54.93,2.42l.12-44.81c18.26-10.61,37.85-12.29,54.94-2.42C1036.73,802.71,1039.86,807.23,1039.85,811.77Z" transform="translate(-11.82 -236.47)"/><g class="cls-18"><g class="cls-2"><path class="cls-1" d="M1039.85,811.77l-.13,44.81c0-4.54-3.11-9.06-10.38-13.25a49.21,49.21,0,0,0-6.59-3.19l.13-44.81a49.21,49.21,0,0,1,6.59,3.19c7.26,4.19,10.39,8.71,10.38,13.25" transform="translate(-11.82 -236.47)"/><path class="cls-1" d="M1022.88,795.33l-.13,44.81a46.14,46.14,0,0,0-4.47-1.52l.13-44.81a47.08,47.08,0,0,1,4.47,1.52" transform="translate(-11.82 -236.47)"/><path class="cls-1" d="M1018.41,793.81l-.13,44.81c-1.12-.32-2.24-.6-3.37-.83L1015,793c1.13.24,2.26.52,3.38.84" transform="translate(-11.82 -236.47)"/><path class="cls-1" d="M1015,793l-.12,44.82c-1-.21-2-.38-3-.52l.13-44.82c1,.15,2,.32,3,.52" transform="translate(-11.82 -236.47)"/><path class="cls-1" d="M1012.06,792.45l-.13,44.82c-.93-.14-1.87-.24-2.81-.32l.13-44.81c.94.08,1.87.18,2.81.31" transform="translate(-11.82 -236.47)"/><path class="cls-1" d="M1009.25,792.14l-.13,44.81c-.93-.08-1.87-.12-2.81-.15l.13-44.81c.94,0,1.87.07,2.81.15" transform="translate(-11.82 -236.47)"/><path class="cls-1" d="M1006.44,792l-.13,44.81c-1,0-2,0-3,0l.12-44.81c1,0,2,0,3,0" transform="translate(-11.82 -236.47)"/><path class="cls-1" d="M1003.47,792l-.12,44.81c-1.12,0-2.23.11-3.35.22l.13-44.81c1.12-.11,2.23-.19,3.34-.22" transform="translate(-11.82 -236.47)"/><path class="cls-1" d="M1000.13,792.23,1000,837c-1.42.14-2.86.35-4.29.61l.13-44.81c1.43-.27,2.86-.47,4.29-.61" transform="translate(-11.82 -236.47)"/><path class="cls-1" d="M995.84,792.84l-.13,44.81a58,58,0,0,0-7.45,1.87l.12-44.81a58.13,58.13,0,0,1,7.46-1.87" transform="translate(-11.82 -236.47)"/><path class="cls-1" d="M988.38,794.71l-.12,44.81a69.88,69.88,0,0,0-13.85,6.23l.12-44.81a70.14,70.14,0,0,1,13.85-6.23" transform="translate(-11.82 -236.47)"/></g></g><path class="cls-5" d="M1039.85,811.77l-.13,44.81c0-4.54-3.11-9.06-10.38-13.25-17.08-9.86-36.68-8.19-54.93,2.42l.12-44.81c18.26-10.61,37.85-12.29,54.94-2.42C1036.73,802.71,1039.86,807.23,1039.85,811.77Z" transform="translate(-11.82 -236.47)"/></g><g class="cls-2"><path class="cls-3" d="M1120.82,815.62l-.13,44.81c0,14.09-12.86,28.42-35.75,41.72l.13-44.81C1108,844,1120.78,829.71,1120.82,815.62Z" transform="translate(-11.82 -236.47)"/><g class="cls-19"><g class="cls-2"><path class="cls-1" d="M1120.82,815.62l-.13,44.81c0,.2,0,.41,0,.62l.13-44.82c0-.2,0-.41,0-.61" transform="translate(-11.82 -236.47)"/><path class="cls-1" d="M1120.81,816.23l-.13,44.82a23.63,23.63,0,0,1-.47,4.07l.13-44.81a24.65,24.65,0,0,0,.47-4.08" transform="translate(-11.82 -236.47)"/><path class="cls-1" d="M1120.34,820.31l-.13,44.81a26.28,26.28,0,0,1-1.23,4.26l.13-44.81a28.46,28.46,0,0,0,1.23-4.26" transform="translate(-11.82 -236.47)"/><path class="cls-1" d="M1119.11,824.57l-.13,44.81a33.24,33.24,0,0,1-2.22,4.7l.13-44.81a33.77,33.77,0,0,0,2.22-4.7" transform="translate(-11.82 -236.47)"/><path class="cls-1" d="M1116.89,829.27l-.13,44.81a44.55,44.55,0,0,1-3.71,5.49l.13-44.81a45.32,45.32,0,0,0,3.71-5.49" transform="translate(-11.82 -236.47)"/><path class="cls-1" d="M1113.18,834.76l-.13,44.81a63.82,63.82,0,0,1-6.89,7.38l.13-44.82a64.71,64.71,0,0,0,6.89-7.37" transform="translate(-11.82 -236.47)"/><path class="cls-1" d="M1106.29,842.13l-.13,44.82a116.63,116.63,0,0,1-18.83,13.78l.12-44.81a115.72,115.72,0,0,0,18.84-13.79" transform="translate(-11.82 -236.47)"/><path class="cls-1" d="M1087.45,855.92l-.12,44.81c-.79.48-1.58.95-2.39,1.42l.13-44.81c.81-.47,1.6-.94,2.38-1.42" transform="translate(-11.82 -236.47)"/></g></g><path class="cls-5" d="M1120.82,815.62l-.13,44.81c0,14.09-12.86,28.42-35.75,41.72l.13-44.81C1108,844,1120.78,829.71,1120.82,815.62Z" transform="translate(-11.82 -236.47)"/></g><polygon class="cls-1" points="962.72 564.47 962.59 609.28 866.5 665.12 866.63 620.31 962.72 564.47"/><polygon class="cls-1" points="866.63 620.31 866.5 665.12 812.34 633.85 812.47 589.04 866.63 620.31"/><polygon class="cls-1" points="970.76 680.42 970.63 725.24 916.47 693.97 916.6 649.15 970.76 680.42"/><polygon class="cls-1" points="1073.25 620.86 1073.13 665.67 970.63 725.24 970.76 680.42 1073.25 620.86"/><path class="cls-12" d="M1112.26,720.9l-89,51.75a96,96,0,0,1,71.39,10.05c40.3,23.26,31.77,50.63-9.54,74.64L982.58,916.9l-54.16-31.27L1024.18,830c16.34-9.49,22.69-21.4,5.29-31.45-17.09-9.87-36.68-8.19-54.94,2.42l-96.08,55.84-54.16-31.27L1058.1,689.63Z" transform="translate(-11.82 -236.47)"/></svg>