<svg xmlns="http://www.w3.org/2000/svg" viewBox="0 0 1114.84 723.42"><defs><style>.cls-1{fill:none;stroke:#1d1d1b;stroke-miterlimit:10;}</style></defs><g id="Ebene_1" data-name="Ebene 1"><path class="cls-1" d="M2.15,373.37a43,43,0,0,0,4.14-1.88Q108,312.41,209.59,253.26a8.79,8.79,0,0,0,1-.62c1.11-.87,2.11-.66,3.29,0,7.51,4.4,15.06,8.74,22.6,13.1l128.07,74c1.13.65,2.7,1,3.29,2s0,2.41,0,3.65c0,8.87-.1,17.75,0,26.62a3.53,3.53,0,0,1-2.12,3.52c-6.61,3.74-13.15,7.6-19.71,11.42-.76.43-1.49.91-2.32,1.42,15.59,9,31,18,46.57,26.81,2.33,1.31,3.26,2.44,2.92,5.12a69.84,69.84,0,0,0-.08,8.6,82,82,0,0,1,27.86,3.88,77.93,77.93,0,0,1,24.49,13.52v32.59c1.39-.06,2.64-.11,3.9-.18,27.39-1.6,53.9,2.11,79.15,13.25a117,117,0,0,1,29.63,18.39,59.89,59.89,0,0,1,11.43,12.87,36.67,36.67,0,0,1,6.17,20.81c-.15,9.59-.19,19.19,0,28.78a39.23,39.23,0,0,1-6.92,23c-1.91,2.84-4.2,5.43-6.31,8.14a2.61,2.61,0,0,0-.7,1.51q39.22-22.8,78.49-45.63c.84.46,1.61.87,2.36,1.31l41.11,23.74c2,1.18,4.13,2.29,6.2,3.44l-.09,7.06c0,.93,0,1.87,0,2.94l6,.39a90.48,90.48,0,0,1,50.89,19.55,42.12,42.12,0,0,1,9.47,10.1,25.1,25.1,0,0,1,4.38,14.44c-.12,9.59-.25,19.19,0,28.78a30.75,30.75,0,0,1-6.81,20A10,10,0,0,0,752,694.3c.73-.24,1.48-.46,2.2-.72A170.17,170.17,0,0,1,795,684.16a180,180,0,0,1,40.45.12c24.48,2.88,47.4,10.31,68.13,23.88,8,5.24,15.3,11.32,21.06,19.06,4.42,5.93,7.55,12.45,8.26,19.89.34,3.57.21,7.18.21,10.78,0,7.83-.12,15.67-.05,23.5A38.05,38.05,0,0,1,925.66,804a12.12,12.12,0,0,0-1.59,2.8c.73-.39,1.48-.75,2.19-1.16L1054.54,731a13.73,13.73,0,0,0,1.23-.73,1.94,1.94,0,0,1,2.42,0c2,1.21,4,2.33,6,3.5l40.88,23.65c1,.58,2.47.88,3,1.74s0,2.25,0,3.41q-.06,13.42-.09,26.85c0,.72,0,1.43,0,2.32l-30.77,17.94c1.08.48,1.84.83,2.6,1.14a90,90,0,0,1,22,12.63,43.8,43.8,0,0,1,9.71,10.21c2.22,3.37,4,6.93,4.16,11.08a4,4,0,0,0,.4,1.09V870.8c-.1.86-.27,1.73-.29,2.59-.07,2.56-.11,5.12-.1,7.67a22.91,22.91,0,0,1-3.29,11.14,49,49,0,0,1-9.77,12.07,115.12,115.12,0,0,1-21,15.05l-91.39,53.17c-1.19.7-2.36,2-3.54,2s-2.31-1.36-3.5-2l-45-26c-.76-.44-1.51-.9-2.47-1.48v-2.49q0-13.32,0-26.63c0-1.16-.48-2.56,0-3.43s1.93-1.15,2.93-1.73l82.49-48c.66-.39,1.29-.83,2.2-1.42a27.6,27.6,0,0,0-8.47-2.46c-12.51-2-23.95,1.24-34.71,7.4-11.23,6.44-22.39,13-33.59,19.5l-53.25,31c-1.14.67-2.25,1.86-3.4,1.9s-2.08-1.24-3.17-1.86c-15.21-8.81-30.42-17.64-45.68-26.36a3.88,3.88,0,0,1-2.23-4c.16-8.95.32-17.91.14-26.86-.06-2.45.44-3.64,2.69-4.71,3.59-1.72,6.94-4,10.39-6a6.73,6.73,0,0,0,1.83-1.44c-3.49.77-7,1.59-10.48,2.29a161.11,161.11,0,0,1-44.16,2.45,157.73,157.73,0,0,1-53.38-13.58c-12.07-5.48-23.38-12.21-33-21.43a55.84,55.84,0,0,1-13.87-19.91c-2.37-6-2.72-12.27-2.61-18.62.08-4.79.08-9.59.11-14.38,0-4.4,0-8.79.09-13.19.09-8,2.89-15.14,7.16-21.79.56-.86,1.13-1.71,1.69-2.56l-.28-.42c-.72.37-1.46.71-2.15,1.12q-30.78,17.9-61.55,35.82c-3.1,1.81-6.17,3.68-9.21,5.57a1.41,1.41,0,0,1-1.71,0q-17.48-10.25-35-20.43c-4.48-2.62-9-5.25-13.5-7.78a3.11,3.11,0,0,1-1.92-3.16c.13-9.35.14-18.7.19-28.05a2.93,2.93,0,0,0-.07-1.19c-.53-1.18-.15-1.73,1.08-2a6.54,6.54,0,0,0,1.69-.89l82.69-48.1c.67-.4,1.32-.84,2.31-1.46-.88-.37-1.48-.67-2.1-.87-10.56-3.39-21-2.72-31.23,1.24a96,96,0,0,0-13.3,6.56q-42,24.3-83.91,48.87c-2.22,1.31-3.47,1.4-5.78,0-15.11-9-30.39-17.68-45.61-26.48l-2.54-1.51V670.14q0-8.16,0-16.31a6.19,6.19,0,0,0-.1-1.67c-.32-1.13-.11-1.82,1.2-1.87a1.54,1.54,0,0,0,.66-.28c3.78-2.21,7.57-4.42,11.27-7a3.77,3.77,0,0,0-.95,0,164.65,164.65,0,0,1-108.28-11.21c-11.7-5.71-22.57-12.69-31.76-22-6.07-6.19-11-13.12-13.2-21.65a39.93,39.93,0,0,1-1.27-9.22c-.15-9.83.09-19.66-.05-29.5a42.17,42.17,0,0,1,8.54-26.16,75.55,75.55,0,0,1,16.91-16.53c3.3-2.39,6.78-4.53,10.18-6.78.65-.43,1.32-.84,2.29-1.46-.68-.36-1.11-.63-1.57-.84a72.93,72.93,0,0,0-34-6.7,78.25,78.25,0,0,0-31.23,8.52c-4.64,2.33-9.14,4.94-13.63,7.55q-28.2,16.35-56.37,32.79c-1,.59-1.94,1.39-3,1.94a2,2,0,0,1-1.63,0c-1.11-.59-2.08-1.44-3.17-2.07-14.94-8.65-29.87-17.32-44.85-25.89a3.85,3.85,0,0,1-2.23-3.95c.11-8.79.08-17.59.09-26.38,0-1.24-.52-2.72,0-3.64s2-1.23,3.1-1.85q64.67-37.62,129.3-75.26c.83-.48,1.64-1,2.54-1.51-.57-1.35-1.73-1.83-2.77-2.43L254.13,361c-10.93-6.32-21.88-12.6-32.77-19a3.38,3.38,0,0,0-4.1,0c-2.6,1.69-5.34,3.17-8.25,4.86a11,11,0,0,0,1.16,1c22.56,13,45.09,26.11,67.72,39,1.81,1,2.25,1.88,2.21,3.93-.21,9.27-.16,18.55-.09,27.82a3.36,3.36,0,0,1-1.95,3.38c-13.37,7.7-26.68,15.49-40,23.25-1.08.63-2.12,1.83-3.19,1.83s-2.12-1.17-3.2-1.79l-94-54.34c-.69-.4-1.39-.78-2.19-1.23-.82.45-1.65.89-2.47,1.36L58.35,434.49c-1,.59-2,1.69-3,1.7s-2-1.12-3-1.69C36.68,425.42,21,416.31,5.24,407.31a3.82,3.82,0,0,1-2.18-4c.12-9,.08-18.06.09-27.1,0-.92.28-2-1-2.4ZM986.72,940.92c.63-.34,1-.56,1.47-.8q47.34-27.55,94.68-55.11a103.8,103.8,0,0,0,17.86-12.89,49.2,49.2,0,0,0,10.32-12.53c5-9.05,4.37-17.74-1.7-26.07a43.39,43.39,0,0,0-9.32-9.28q-33.09-24.51-73.45-16.14c-1.87.39-3.73.86-5.59,1.29l-.15-.44,84.72-49.3c-1.08-.65-1.81-1.1-2.55-1.53-14.6-8.45-29.21-16.86-43.76-25.37a3.89,3.89,0,0,0-4.53,0q-75.47,44-151,87.91Q884,832.1,864.39,843.59c-6.9,4-13.83,8-20.74,12-.64.37-1.24.8-2.08,1.35,1.12.67,1.86,1.13,2.62,1.57q21.59,12.48,43.17,25c3.15,1.81,2.2,1.85,5.31,0q42.8-24.88,85.58-49.8a66.8,66.8,0,0,1,15.55-6.78c13.45-3.79,26.24-2.4,38.25,5a21.72,21.72,0,0,1,6.58,5.86,10.87,10.87,0,0,1,1.58,10c-.78,2.54-2.49,4.44-4.21,6.31-3.29,3.57-7.39,6.08-11.54,8.5l-83.93,48.81c-.71.41-1.4.86-2.38,1.46ZM365.21,342.13c-1-.59-1.67-1.06-2.4-1.48q-74.19-42.9-148.37-85.84a3.89,3.89,0,0,0-4.54.09q-49,28.57-98,57L8.29,372.23c-.78.46-1.55.95-2.64,1.63L55.4,402.64c.85-.48,1.62-.89,2.37-1.32Q95,379.67,132.16,358c1.08-.63,2.12-1.9,3.16-1.88s2.29,1.18,3.43,1.84l49.61,28.67q22.32,12.9,44.62,25.8c1.17.68,2.12,1,3.49.24,13.16-7.74,26.37-15.39,39.56-23.07a10.2,10.2,0,0,0,1.29-1.11l-99-57.24c1-.64,1.77-1.1,2.5-1.53,11.95-7,23.94-13.86,35.81-20.93,2-1.21,3.25-1.4,5.45-.12,32.86,19.17,65.82,38.16,98.72,57.25a3.35,3.35,0,0,0,3.91-.07q19.13-11.22,38.32-22.33C363.68,343.17,364.31,342.72,365.21,342.13ZM640.26,561.71,486,651.42c1.16.7,2,1.19,2.77,1.66Q510.38,665.58,532,678c3.21,1.85,2,1.89,5.29,0q43-25,86-50a60.25,60.25,0,0,1,23.83-8.25,44.46,44.46,0,0,1,31.14,7.81,31.1,31.1,0,0,1,4.41,4c3,3.12,2.56,7,2.32,10.87a2.08,2.08,0,0,1-.39.86,29.85,29.85,0,0,1-8,8.82c-2.42,1.68-4.85,3.35-7.39,4.84q-42.26,24.63-84.54,49.21c-.57.33-1.09.75-1.74,1.2.51.35.75.55,1,.71q22.93,13.26,45.86,26.53a2.81,2.81,0,0,0,3.26-.11c6.27-3.7,12.56-7.34,18.85-11q37.5-21.82,75-43.66a103.83,103.83,0,0,0,19.51-14.27A46,46,0,0,0,756.21,653c4.13-8.25,3.58-16.18-1.53-23.83a42.18,42.18,0,0,0-9-9.56,89.56,89.56,0,0,0-25.22-14.07c-17.75-6.47-35.8-6.78-54.07-2.65-1.08.25-2.17.48-3.26.72l-.13-.41,24.38-14.23ZM506.57,606.39c-1.14-.72-1.78-1.16-2.45-1.55-12.94-7.48-25.89-14.93-38.8-22.46a6.18,6.18,0,0,0-4.51-.81,63.52,63.52,0,0,1-37.06-4.42c-7.55-3.25-14.52-7.37-19.52-14.17-1.13-1.54-2.58-3-2.76-4.94-.46-5.12.12-10,3.16-14.43A38.44,38.44,0,0,1,413,535c.93-.72,1.79-2,2.73-2.09s2.08,1.11,3.14,1.72l57.07,33q24.18,14,48.35,28a3,3,0,0,0,3.68,0c3.31-2.09,6.77-3.95,10.12-6a114.82,114.82,0,0,0,18.12-13.35c5.88-5.39,11-11.35,14.47-18.63q7.56-16-1.17-31.46a56.33,56.33,0,0,0-12.52-14.73,115,115,0,0,0-26.42-16.81c-16.73-7.89-34.4-12.23-52.77-14a179.24,179.24,0,0,0-43.3,1.12c-18.46,2.73-36.12,8-52.58,17A113.29,113.29,0,0,0,360.07,514,58.21,58.21,0,0,0,347,530.43q-8.65,16.79.1,33.54a56.13,56.13,0,0,0,11.08,14.37c9.21,8.83,19.87,15.55,31.35,21a157.77,157.77,0,0,0,56.79,14.47,152.77,152.77,0,0,0,50.17-4.4C499.7,608.54,502.86,607.5,506.57,606.39ZM876.15,806c-.73-.56-1.07-.88-1.46-1.11Q853,792.35,831.32,779.81a3,3,0,0,0-2.69-.34,77.38,77.38,0,0,1-18.76,3.75,61.41,61.41,0,0,1-29.32-4.54,43.49,43.49,0,0,1-13.69-9.07,10.2,10.2,0,0,1-3.06-5.44,38.72,38.72,0,0,1-.22-10.48,14,14,0,0,1,4.3-9.11,67.38,67.38,0,0,1,8.38-7.49c17.51-12.14,36.83-17.86,58.2-15.39a52,52,0,0,1,24.6,9.4,23.27,23.27,0,0,1,6.67,6.81c3.16,5.26,3.69,10.66.41,16.07-1.4,2.3-3,4.46-4.69,6.85l46.21,26.73c8.28-5.93,15.45-12.64,20.07-21.71a32.65,32.65,0,0,0,3.54-19,36.68,36.68,0,0,0-5.45-15A62.44,62.44,0,0,0,912.7,717a121.11,121.11,0,0,0-28-17.45,164,164,0,0,0-58.53-14.48,177.63,177.63,0,0,0-52.61,4.39,155,155,0,0,0-28.3,9.62c-11.67,5.27-22.49,11.77-31.69,20.76a54.38,54.38,0,0,0-12.45,17.46,35.59,35.59,0,0,0,0,29.31A54.26,54.26,0,0,0,714,784.34c9,8.59,19.49,15,30.71,20.21a158.87,158.87,0,0,0,76.68,14.6,150,150,0,0,0,41.06-7.86C867,809.74,871.38,807.86,876.15,806ZM443.32,446.84c-1.11-.88-1.82-1.51-2.58-2.07a74.42,74.42,0,0,0-43.23-14.28A97.69,97.69,0,0,0,361.14,437a9.36,9.36,0,0,1-1.8.62,1.11,1.11,0,0,1-1-.41,1.06,1.06,0,0,1,.21-1,9.54,9.54,0,0,1,1.61-1l28-16.3c.73-.43,1.42-.91,2.35-1.5L344,390.46,189.83,480.17c1,.65,1.64,1.11,2.31,1.49,14.66,8.49,29.34,16.94,44,25.47a3.86,3.86,0,0,0,4.53.06Q272,488.8,303.38,470.57a106.53,106.53,0,0,1,17.29-8.23,74.45,74.45,0,0,1,39.63-3.54,83.68,83.68,0,0,1,26.92,10.36c2.9,1.69,5.77,3.42,8.78,5.22ZM239.24,539.45c1-.51,1.67-.84,2.34-1.23Q261,527,280.33,515.67c7.87-4.58,15.65-9.32,23.59-13.79a101.46,101.46,0,0,1,21.25-9.25,69.44,69.44,0,0,1,17.61-3.16,99.65,99.65,0,0,1,13.38.49,64.87,64.87,0,0,1,21.33,6c2.38,1.14,4.26,1.3,6.6-.11a91.4,91.4,0,0,1,8.64-4.14c.72-.33,1.43-.68,2.36-1.12,0-4.3-.06-8.61,0-12.91a3,3,0,0,0-1.63-2.89c-8.32-5.27-16.93-9.89-26.47-12.63a69.63,69.63,0,0,0-22.59-3,81.21,81.21,0,0,0-21.56,4.12c-7.65,2.49-14.64,6.33-21.55,10.35q-29.94,17.42-59.87,34.86c-.75.43-1.47.91-2.21,1.38Zm-19-229.79c-.07,1.23-.14,1.92-.15,2.62,0,8.23,0,16.46-.11,24.69a3.7,3.7,0,0,0,2.19,3.74q25.07,14.35,50,28.86,23.46,13.56,46.91,27.1c.77.44,1.46,1.24,2.6,1V368.32Zm13.58,134.87c.07-.88.16-1.48.17-2.08,0-8.48,0-16.95.08-25.42a3.13,3.13,0,0,0-1.85-3.19C223.64,409,215.07,404,206.5,399l-67.44-39c-.78-.44-1.59-.84-2.84-1.49v8.9c0,6.15.06,12.31-.1,18.46a3.46,3.46,0,0,0,2.06,3.54q46.71,26.93,93.4,53.94C232.24,443.75,233,444.07,233.85,444.53ZM1081,888.13c-.92.48-1.62.8-2.28,1.19q-44.64,26-89.28,51.89a3.38,3.38,0,0,0-1.93,3.4c0,8.55-.06,17.1-.09,25.64a17,17,0,0,0,.21,1.82L1081,917.75ZM632.13,766.55c1.21-.63,2-1,2.71-1.44q36.57-21.27,73.13-42.56a12.43,12.43,0,0,0,2.62-2,84.54,84.54,0,0,1,13.33-11.3,3.53,3.53,0,0,0,1.78-3.31c-.06-6.88,0-13.75,0-20.62,0-.77-.08-1.53-.13-2.55-.87.42-1.51.69-2.1,1q-44.76,26-89.52,52a3.16,3.16,0,0,0-1.85,3.2c.06,8.31,0,16.62,0,24.93ZM623,630.08,535.43,681v29.52c.8-.39,1.44-.66,2-1q41.85-24.33,83.71-48.66a3.19,3.19,0,0,0,1.82-3.22c0-8.47.06-16.94.09-25.41C623.1,631.71,623,631.17,623,630.08ZM978.33,835.66c-1.13.62-1.89,1-2.64,1.46l-45.78,26.64q-18.64,10.85-37.29,21.68a3,3,0,0,0-1.82,3c.06,8.55,0,17.1,0,25.65a19.61,19.61,0,0,0,.24,2l87.28-50.76ZM416.76,565.12c.35.24.66.49,1,.69Q430,572.91,442.25,580a7.28,7.28,0,0,0,2.71.81,52.89,52.89,0,0,0,16-.83,6.37,6.37,0,0,1,4.75.78q20.4,11.88,40.87,23.64c1.08.63,2.18,1.22,3.22,1.8-.53,1.82-.69,9.51-.29,12.68,4.54,2.62,9.16,5.32,13.81,7.95,1.18.67,1.78.29,1.92-1a13.84,13.84,0,0,0,0-1.44q0-11.75,0-23.5v-2.5c-3.91-2.87-106.75-62.05-108.52-62.45ZM56.26,433.7c.93-.48,1.5-.74,2-1.05Q95.57,411,132.85,389.32a3.2,3.2,0,0,0,1.8-3.23c0-8.63,0-17.25,0-25.88a12.11,12.11,0,0,0-.19-1.51c-.77.39-1.34.65-1.88,1Q95.34,381.34,58.05,403a3,3,0,0,0-1.79,3c.06,7.5,0,15,0,22.52C56.25,430.09,56.26,431.68,56.26,433.7ZM773.48,772.93c.89.6,1.51,1.08,2.17,1.47a50.08,50.08,0,0,0,14.41,5.75c12.8,2.93,25.4,1.89,37.79-2.16a4.88,4.88,0,0,1,4.43.49q21.75,12.66,43.56,25.2c.71.41,1.47.74,2.2,1.12l.29-.56L859,793c0-8.87-.05-17.42,0-26a3.88,3.88,0,0,0-2-3.7,53.6,53.6,0,0,0-16.63-7.19,69.06,69.06,0,0,0-31.36,0A84.53,84.53,0,0,0,775.82,771C775.08,771.55,774.39,772.18,773.48,772.93ZM397,634.18c0-.72.08-1.12.08-1.51q0-12.95.05-25.89c0-2.79,0-2.27-2.26-3.24a131.28,131.28,0,0,1-32.09-18.92c-8.29-6.75-15.29-14.53-19.29-24.64a4.15,4.15,0,0,0-.57-.76c-.09.79-.21,1.31-.21,1.82-.05,5.75-.08,11.5-.12,17.26a35.36,35.36,0,0,0,3,14.43,54.34,54.34,0,0,0,13.08,17.86c10.8,10.13,23.39,17.44,36.95,23.2A13.85,13.85,0,0,0,397,634.18ZM752.23,839.43V809.67c-2.44-1.07-4.79-2.06-7.1-3.13-11.3-5.24-21.93-11.53-31.15-20-6.55-6-12-12.87-15.14-21.3a5.2,5.2,0,0,0-.57-.87c-.35,6.19-.28,12.26-.37,18.33A38.49,38.49,0,0,0,703.45,803c4.21,7.22,9.95,13.08,16.46,18.23a130.75,130.75,0,0,0,30.65,17.65C751,839.07,751.44,839.18,752.23,839.43Zm278.4-34.3.23.4c2.21-.29,4.42-.64,6.64-.85a89.67,89.67,0,0,1,36,3.87,3.47,3.47,0,0,0,3.13-.38q14.06-8.25,28.18-16.4a2.82,2.82,0,0,0,1.63-2.83c0-8.56,0-17.11,0-25.66,0-.59-.11-1.18-.21-2.13ZM4.85,405c.26.18.7.52,1.17.8l48,27.58c.05,0,.15,0,.22-.05a3,3,0,0,0,.34-.22v-1.55c0-8.38,0-16.77.14-25.16a3.51,3.51,0,0,0-2-3.56q-22.76-13-45.43-26.23c-.67-.38-1.36-.72-2.36-1.26ZM485.1,682.72l48.52,28V680.89c-16.07-9.26-32.1-18.6-48.52-28ZM237.29,539.43a10.85,10.85,0,0,0,.19-1.27c.07-8.94.12-17.88.23-26.82a2.49,2.49,0,0,0-1.57-2.39q-22.81-13.14-45.62-26.33a11,11,0,0,0-1.65-.62v2.15c0,8.3,0,16.6-.09,24.91a3.67,3.67,0,0,0,2.19,3.72c14.69,8.4,29.32,16.9,44,25.36C235.62,538.53,236.32,538.9,237.29,539.43ZM937.48,914.34c-.1.84-.19,1.29-.2,1.75,0,8.71,0,17.43-.15,26.14a2.82,2.82,0,0,0,1.73,2.79Q961.3,958,983.7,970.91c.6.35,1.24.6,2.11,1V942.26Zm-96.8-55.87c-.07.75-.14,1.13-.15,1.51,0,8.87,0,17.74-.11,26.61,0,1.4.72,1.94,1.74,2.52l45,26c.52.3,1.09.51,1.81.83,0-.86.11-1.48.12-2.11,0-8.31,0-16.62.12-24.92a3.69,3.69,0,0,0-2.13-3.77c-14.7-8.4-29.35-16.91-44-25.38C842.42,859.38,841.72,859,840.68,858.47Zm-210.4-92c.07-.69.13-1,.13-1.31,0-8.87,0-17.74.07-26.61a2.63,2.63,0,0,0-1.54-2.64q-22.65-13-45.25-26.09a15.05,15.05,0,0,0-1.79-.76c0,.9-.11,1.53-.11,2.17,0,8.39,0,16.78-.09,25.16a3.33,3.33,0,0,0,2,3.34q22.23,12.76,44.41,25.62C628.74,765.74,629.37,766,630.28,766.51Zm230.41-4.12c-.05,1.06-.12,1.77-.12,2.47,0,8.39,0,16.77-.05,25.15a3.18,3.18,0,0,0,1.88,3.18q20.36,11.65,40.65,23.45c.42.23.82.51,1.25.71a1.61,1.61,0,0,0,2.52-1.4c0-.4,0-.8,0-1.2,0-7.82,0-15.65.08-23.47a3.49,3.49,0,0,0-2.1-3.53c-14-8-27.92-16.11-41.88-24.17C862.33,763.22,861.69,762.91,860.69,762.39ZM366.18,343.88a5.34,5.34,0,0,0-1,.3Q345,355.9,324.79,367.62a2.56,2.56,0,0,0-1.32,2.55c0,8.7-.06,17.4-.08,26.1a9.62,9.62,0,0,0,.27,1.59,4.9,4.9,0,0,0,.84-.29q20.17-11.71,40.37-23.44a2.1,2.1,0,0,0,1.27-2.08c0-.72.07-1.44.07-2.15q.06-11.86.08-23.71C366.29,345.49,366.23,344.8,366.18,343.88Zm-87.82,46.47c-.65.27-1,.37-1.23.52q-20,11.63-40,23.22a2.64,2.64,0,0,0-1.42,2.7c0,8.47,0,16.94-.05,25.4,0,.69.1,1.37.17,2.3.79-.39,1.35-.63,1.88-.94q19.47-11.31,39-22.62a3.06,3.06,0,0,0,1.76-3c0-8.38,0-16.77,0-25.16C278.47,392.05,278.41,391.36,278.36,390.35ZM396.64,490c.91-.29,1.44-.44,1.95-.64a173.51,173.51,0,0,1,42.09-10,13.65,13.65,0,0,0,2.95-1V448.63c-.85.45-1.47.76-2.08,1.11l-43.08,25.1a3.68,3.68,0,0,0-1,.63,2.55,2.55,0,0,0-.79,1.33C396.61,481.11,396.64,485.42,396.64,490ZM181.46,331.24l25.66,14.83c3.37-2,6.51-3.87,9.73-5.63a3,3,0,0,0,1.73-3c-.05-8.38,0-16.77,0-25.15,0-.69-.07-1.38-.14-2.55C206.05,316.91,194,323.94,181.46,331.24ZM842,848.2c4.67-.5,15.09-3.23,17.6-4.59V814.16L842,818.52ZM556.32,578.85l-17.59,12.68v27a2.09,2.09,0,0,0,.63,0c4.56-2.64,9.12-5.26,13.66-7.94.75-.44,1.35-1.12,2.06-1.63a2.89,2.89,0,0,0,1.19-2.69c0-2.39.05-4.78.05-7.18C556.33,592.42,556.32,585.8,556.32,578.85Zm243,148.43a8,8,0,0,0-1.24.3c-4.65,2.1-9.28,4.24-13.93,6.31a2.65,2.65,0,0,0-1.61,2.85c0,8.54,0,17.09,0,25.63,0,.6.07,1.19.1,1.8l16.7-7.41ZM1100.7,874.84c-5.06,3.51-9.81,6.87-14.64,10.11-1.09.74-1.08,1.63-1.09,2.67q0,12.92-.07,25.84c0,.51.08,1,.14,1.71a9.35,9.35,0,0,0,1.28-.64c4.37-3.2,8.72-6.44,13.1-9.63a3.39,3.39,0,0,0,1.36-3.08c0-8.21,0-16.43,0-24.65C1100.82,876.41,1100.75,875.65,1100.7,874.84ZM502.16,609.62l-15.29,3.79V643.2a102.86,102.86,0,0,0,15.29-3.78Zm359.25,204v29.55c.77-.35,1.35-.54,1.87-.84,4.07-2.35,8.11-4.77,12.22-7.06a2.81,2.81,0,0,0,1.61-2.84c0-7.58,0-15.15,0-22.73,0-.69-.08-1.38-.13-2.25Zm-12.68-86.36v29.71l10.2,5.48c-.11-2.27,1.69-3.26,2.74-4.75a37.12,37.12,0,0,0,3.7-5.85,13,13,0,0,0-1.41-13.6C860.2,733,854.82,729.94,848.73,727.22ZM745.35,669.1c-.73.5-1.23.84-1.71,1.19-4.1,2.93-8.13,5.93-12.31,8.74a3.47,3.47,0,0,0-1.81,3.26c.05,7.12,0,14.23,0,21.34a8.28,8.28,0,0,0,.27,1.51L745.35,697ZM411.09,639.34v-30l-12.37-4.12v29.91Zm355.48,175.3-12.45-4.17v30l12.45,4.23Zm112.28,18.59,24.75-14.4-24.75-14.3ZM635.6,653.79c.57-7.13.5-27.5-.15-29.66a54.66,54.66,0,0,0-10.79,5.06c.09,9.8-.14,19.48,0,29.39ZM980.18,834.54V864l11.05-4.85V829.49A54.7,54.7,0,0,0,980.18,834.54Zm-140,14.21v-30l-10.82,1.49c.14,10-.2,19.93,0,30ZM422.81,641.94V612.22L413,609.84v30c2.9.73,5.67,1.43,8.46,2.1A6.6,6.6,0,0,0,422.81,641.94Zm52.13,3a60.64,60.64,0,0,0,10.12-1.46c-.12-10,.2-19.88,0-29.86l-10.1,1.44ZM778,847.53v-30l-9.61-2.36c0,1,0,1.74,0,2.51q0,10.41-.07,20.82c0,1.75-.13,3.51-.06,5.26,0,.53.39,1.39.78,1.5C772,846.06,774.89,846.74,778,847.53ZM1024.77,860a5.45,5.45,0,0,0,1.17-.17c4.08-2.41,7.88-5.16,10.73-9,3.77-5.1,3.39-10-1.34-14.24a56.75,56.75,0,0,0-7-4.88,25.9,25.9,0,0,0-3-1.43C1025.1,840.35,1024.94,850,1024.77,860ZM801.13,726.41v29.94l9.41-2.32V724.1ZM669.76,624.74c-.07.75-.15,1.21-.15,1.67q0,13.86.08,27.72a.31.31,0,0,0,.12.18,1,1,0,0,0,.22.09,32,32,0,0,0,10.75-8.51,18.15,18.15,0,0,0,2.29-3.89,8.18,8.18,0,0,0-.59-7.8C679.51,629.46,674.83,627,669.76,624.74Zm-205-9c-.59,2.91-.46,28.25.18,30.06l8.26-.61c.06-10.07.26-20,.07-30Zm-31.4,28.37v-30l-8.7-1.47v30ZM788.26,849.38V819.31l-8.4-1.44v30ZM819,821v30c3-.28,5.78-.09,8.7-.72-.09-10.08.16-19.91,0-29.9ZM780.9,735.75c-2.37,1.75-4.26,3.2-6.21,4.56a5,5,0,0,0-2.31,4.6c.1,8.22,0,16.43,0,24.65,0,.51.1,1,.18,1.75,2.32-1.63,4.31-3.22,6.48-4.52a3.69,3.69,0,0,0,2-3.67c-.07-8.22,0-16.44,0-24.66C781,737.77,781,737.07,780.9,735.75ZM454.83,616v29.77h7.85V616ZM443,645.29c.52-3.15.46-28.45,0-30.1l-7.78-.79v30ZM817.08,821.15H809.5c-.6,2.54-.67,28.12-.11,29.8h7.69ZM452.91,645.92V615.75h-7.83v29.67ZM807.22,851.06c.51-5,.36-28.4-.17-30.08l-7-.36c-.55,2.57-.51,28.11,0,30Zm-16.87-31.48c-.52,3-.45,28.46.08,30.09l7.42.78v-30ZM534.8,593.51c-2.42,1.4-4.35,2.64-6.39,3.67a2.77,2.77,0,0,0-1.58,2.88c0,7.81,0,15.63-.05,23.44,0,.6.1,1.19.19,2.12,2.2-1.25,4.08-2.41,6-3.41a2.92,2.92,0,0,0,1.76-3c0-6.78,0-13.56,0-20.34Zm381,189.92c-2.21,1.7-4,3.18-5.88,4.49a3,3,0,0,0-1.38,2.79c0,7.58,0,15.15,0,22.73,0,.68.09,1.36.17,2.46l7.13-4.18ZM564.16,571.24c-1.81,1.64-3.45,3.16-5.14,4.63a3.25,3.25,0,0,0-1.13,2.72c0,8.56,0,17.11,0,25.66a13,13,0,0,0,.33,1.89c1.85-2,3.37-3.77,5-5.44a4.08,4.08,0,0,0,1.08-3c0-8.15,0-16.3,0-24.46C564.3,572.52,564.2,571.84,564.16,571.24Zm434,286.25v-30l-5,1.3v29.9ZM637.64,623.39v29.89l5-1.25v-30Zm284.92,153.7c-1.5,1.34-2.76,2.52-4.07,3.64a3,3,0,0,0-1,2.55c0,8.53-.09,17.07-.11,25.61a11.74,11.74,0,0,0,.35,2c1.38-1.49,2.41-2.68,3.53-3.79a4.69,4.69,0,0,0,1.34-3.66c-.08-5.35,0-10.7,0-16ZM812.33,723.84v30l4.58-.69v-30Zm290.1,178a19.15,19.15,0,0,0,3-2.79,5.78,5.78,0,0,0,1.84-4.68c0-8.15,0-16.3.08-24.45a14.16,14.16,0,0,0-.21-1.62c-1,1-1.85,1.88-2.78,2.61a5,5,0,0,0-1.87,4.36c.07,7.91,0,15.82,0,23.73ZM751.79,662.7c-1.28,1.25-2.12,2.21-3.09,3a4.58,4.58,0,0,0-1.74,3.94c0,8.29,0,16.57,0,24.86a18.2,18.2,0,0,0,.24,2c1.17-1.25,2-2.21,2.89-3a5.54,5.54,0,0,0,1.7-4.48c-.08-7.25,0-14.5,0-21.75ZM415.06,536.17l-.59-.21c-.74.58-1.45,1.19-2.22,1.73a2.89,2.89,0,0,0-1.25,2.64c0,8.61,0,17.22,0,25.83a10.54,10.54,0,0,0,.3,1.64c.55-.36.86-.6,1.21-.78,2-1,2.58-2.59,2.54-4.86-.13-7.73,0-15.46,0-23.19ZM391.27,419c-7.88,4.6-15.51,8.95-22.94,13.67a129.52,129.52,0,0,1,22.94-3.7ZM504,638.49c1.52.24,2.39-.93,3.55-1.51V607.74L504,609Zm342.9,117.87V726.54c-.52-.23-1-.44-1.4-.59s-1-.28-1.8-.48v29.87ZM509.36,636l13-7.55c-2.36-1.93-11.26-6.93-13-7.3Zm309.31,87.07c0,10-.26,19.85,0,29.91l3.16-.2v-30ZM569,565.07l-.56-.11c-.92,1.51-2.52,2.57-2.51,4.69.05,8.46,0,16.92,0,25.37a8.7,8.7,0,0,0,.3,1.5c1.81-2.19,2.85-4.18,2.79-6.9-.17-7.42,0-14.84,0-22.26Zm-156.22,3.8c5.14,4.72,20.6,11.16,25,10.41l-22-12.7ZM924.13,803c1.64-1.74,2.49-3.22,2.49-5.19,0-8.23.08-16.45.1-24.68a5.82,5.82,0,0,0-.32-1.28,6.19,6.19,0,0,0-2.29,5.44c.08,2.64,0,5.27,0,7.91Zm-98-50.32c-.07-10.15.13-20,0-30l-2.46.17v29.87Zm196.91,106.45a4.63,4.63,0,0,0,.21-.77c0-9.18.09-18.36.1-27.55,0-1.54-.07-1.54-2.44-2V858.5ZM646.6,651.39V621.44l-2.09.48v29.69Zm21.14,2.28v-30l-2.25-.53v29.92Zm171.81,70.7v29.87l2.3.52v-29.9ZM1000,827.2v30l2.18-.47V827.05ZM830,752.75V723.1a3,3,0,0,0-2.12-.19c.06,10-.33,19.88,0,29.84ZM688.09,590.68c-4.44,2.05-13.93,7.77-15,9l15-1.38Zm82.7,153.86-.49-.18c-.83,1-1.92,1.7-1.91,3.34.05,6.63,0,13.26,0,19.9,0,1.64.45,2.06,2.42,2.73Zm61.08-21.38c0,.83-.09,1.46-.1,2.09q0,9.09-.07,18.18c0,2.71,0,5.42,0,8.13,0,1.47.08,1.47,2,1.44,0-.77.09-1.54.1-2.32q0-3.72,0-7.42,0-9.09,0-18.18C833.88,723.33,833.84,723.33,831.87,723.16Zm5.75,30.44V724l-1.89-.37c-.05.83-.11,1.46-.12,2.08q0,8.61-.07,17.21c0,3,0,6.06,0,9.09C835.51,753.29,836,754,837.62,753.6ZM409.32,540.78c-1.23.81-1.85,1.57-1.86,2.83,0,6.54-.06,13.09-.1,19.63,0,1.24.61,2,2,2.59Zm699.47,353.43a5,5,0,0,0,1.9-3.94c0-8.23,0-16.45,0-24.68a10.05,10.05,0,0,0-.24-1.54,3.88,3.88,0,0,0-1.65,3.49c0,5,0,9.9,0,14.85ZM662.47,622c-.09,1.06-.17,1.52-.17,2q-.06,13.14-.11,26.28a3.07,3.07,0,0,0,.06,1.18c.17.39.57.68,1.27,1.45.1-1.81.22-3,.22-4.16q.07-11.84.09-23.66a7.4,7.4,0,0,0-.11-1.89C663.63,622.85,663.14,622.61,662.47,622Zm92.76,36.56a3.35,3.35,0,0,0-1.77,3.1c0,8.4-.06,16.79-.08,25.18a8.4,8.4,0,0,0,.32,1.55,4.24,4.24,0,0,0,1.51-3.61c0-5.84,0-11.67,0-17.51Zm263.9,199.16V855.2q0-11.38,0-22.77c0-1.19.06-2.39,0-3.59,0-.79-.51-1.1-1.55-.8v2.29q0,8,0,16,0,4.92,0,9.83C1017.62,857,1017.56,857.91,1019.13,857.72Zm-3.7-30.84c-.48,1.72-.89,26.84-.57,29.34a6.4,6.4,0,0,0,.66,1.38c.24-.46.45-.67.45-.88q.07-14.38.1-28.77C1016.07,827.71,1015.78,827.46,1015.43,826.88Zm-10.34-.4c-.53.34-1,.47-1.07.72a5.67,5.67,0,0,0-.14,1.65q-.09,12.92-.14,25.83c0,.61.11,1.22.19,2.15.58-.36,1-.5,1.22-.8a2.47,2.47,0,0,0,.1-1.17q0-13.15.07-26.3A20.43,20.43,0,0,0,1005.09,826.48ZM648.58,651.18c1.59-.21,1.24-1.27,1.24-2q.1-13,.15-26.08a2.47,2.47,0,0,0-.1-1.17c-.18-.31-.65-.45-1.29-.86Zm3.39-30.4a6.47,6.47,0,0,0-.46,1.38c0,1.67,0,3.35,0,5q0,11.14,0,22.28a13.85,13.85,0,0,0,.4,2.1c.74-1.88,1.29-26.32.84-29.55C652.63,621.71,652.34,621.42,652,620.78Zm358.68,206.1-.91,0v2.27c0,3.36,0,6.71,0,10.06,0,5-.09,10.05-.09,15.08,0,.7-.33,1.57.87,2.3C1010.71,846.47,1010.81,836.68,1010.65,826.88Zm2.39,29.84a4.94,4.94,0,0,0,.23-1.05q0-13.8,0-27.58a6,6,0,0,0-.48-1.42C1012.16,828.94,1012.1,854.83,1013,856.72ZM657.6,651.2c0-.6.16-1.19.16-1.79,0-2.55,0-5.11,0-7.66,0-6.07.06-12.13.07-18.2,0-.7.21-1.52-.57-2.15C656.64,623.47,656.58,649.28,657.6,651.2Zm349.7,205.16.58,0c.06-.81.17-1.61.17-2.42,0-5.49,0-11,0-16.49,0-3.1,0-6.21,0-9.31,0-.55.24-1.32-.71-1.46C1006.84,828.56,1006.79,854.46,1007.3,856.36Zm-347-234.48-.73.07v2.57q0,11.15,0,22.28c0,1.28-.07,2.56,0,3.83,0,.35.37.67.57,1l.54-.12q0-14.34,0-28.66A3.41,3.41,0,0,0,660.26,621.88Zm-5.46-.4-.54,0c0,2.06,0,4.11,0,6.17q.06,11.6.13,23.18c0,.05.09.12.14.14a1,1,0,0,0,.24,0C655.44,648.88,655.46,623.14,654.8,621.48ZM571.72,560c-1.28.72-1,1.84-1,2.82q-.08,12.09-.09,24.2c0,.35.06.7.09,1l.53,0a19.67,19.67,0,0,0,.52-3.1c.05-7.75.05-15.5.06-23.25C571.83,561.25,571.76,560.71,571.72,560ZM928.37,794.88l.69,0c.48-4.5.13-9,.22-13.57s0-9.08,0-13.63c-.61.19-.92.44-.92.69Q928.36,781.66,928.37,794.88Zm154.84,92.4H1083v28.54h.25ZM536.39,619.42c.27-8.71.74-17.34,0-26Zm575.95,267.86h.16V861.8h-.16ZM727.7,682l-.28.08v24h.28Zm29.41-9.48.15,0V656.6h-.15Zm9.45,77.33h-.49c-.06,5.29-.05,10.58,0,15.87h.49ZM405.61,546.25h-.2v14.5h.2Z" transform="translate(-1.65 -251.56)"/><path class="cls-1" d="M986.72,940.92l-48.57-28.08c1-.6,1.67-1.05,2.38-1.46l83.93-48.81c4.15-2.42,8.25-4.93,11.54-8.5,1.72-1.87,3.43-3.77,4.21-6.31a10.87,10.87,0,0,0-1.58-10,21.72,21.72,0,0,0-6.58-5.86c-12-7.37-24.8-8.76-38.25-5a66.8,66.8,0,0,0-15.55,6.78q-42.79,24.91-85.58,49.8c-3.11,1.81-2.16,1.77-5.31,0q-21.6-12.47-43.17-25c-.76-.44-1.5-.9-2.62-1.57.84-.55,1.44-1,2.08-1.35,6.91-4,13.84-8,20.74-12q19.67-11.46,39.32-22.94,75.51-43.95,151-87.91a3.89,3.89,0,0,1,4.53,0c14.55,8.51,29.16,16.92,43.76,25.37.74.43,1.47.88,2.55,1.53L1020.84,809l.15.44c1.86-.43,3.72-.9,5.59-1.29q40.35-8.4,73.45,16.14a43.39,43.39,0,0,1,9.32,9.28c6.07,8.33,6.68,17,1.7,26.07a49.2,49.2,0,0,1-10.32,12.53A103.8,103.8,0,0,1,1082.87,885q-47.32,27.59-94.68,55.11C987.77,940.36,987.35,940.58,986.72,940.92Z" transform="translate(-1.65 -251.56)"/><path class="cls-1" d="M365.21,342.13c-.9.59-1.53,1-2.2,1.42q-19.17,11.16-38.32,22.33a3.35,3.35,0,0,1-3.91.07c-32.9-19.09-65.86-38.08-98.72-57.25-2.2-1.28-3.43-1.09-5.45.12-11.87,7.07-23.86,14-35.81,20.93-.73.43-1.45.89-2.5,1.53l99,57.24a10.2,10.2,0,0,1-1.29,1.11c-13.19,7.68-26.4,15.33-39.56,23.07-1.37.8-2.32.44-3.49-.24q-22.29-12.93-44.62-25.8L138.75,358c-1.14-.66-2.28-1.81-3.43-1.84s-2.08,1.25-3.16,1.88Q95,379.69,57.77,401.32c-.75.43-1.52.84-2.37,1.32L5.65,373.86c1.09-.68,1.86-1.17,2.64-1.63L111.9,312q49-28.51,98-57a3.89,3.89,0,0,1,4.54-.09q74.15,43,148.37,85.84C363.54,341.07,364.25,341.54,365.21,342.13Z" transform="translate(-1.65 -251.56)"/><path class="cls-1" d="M640.26,561.71l47.11,27.23L663,603.17l.13.41c1.09-.24,2.18-.47,3.26-.72,18.27-4.13,36.32-3.82,54.07,2.65a89.56,89.56,0,0,1,25.22,14.07,42.18,42.18,0,0,1,9,9.56c5.11,7.65,5.66,15.58,1.53,23.83a46,46,0,0,1-9.78,12.64,103.83,103.83,0,0,1-19.51,14.27q-37.49,21.86-75,43.66c-6.29,3.65-12.58,7.29-18.85,11a2.81,2.81,0,0,1-3.26.11q-22.9-13.32-45.86-26.53c-.28-.16-.52-.36-1-.71.65-.45,1.17-.87,1.74-1.2q42.27-24.6,84.54-49.21c2.54-1.49,5-3.16,7.39-4.84a29.85,29.85,0,0,0,8-8.82,2.08,2.08,0,0,0,.39-.86c.24-3.84.67-7.75-2.32-10.87a31.1,31.1,0,0,0-4.41-4,44.46,44.46,0,0,0-31.14-7.81A60.25,60.25,0,0,0,623.27,628q-43,25-86,50c-3.27,1.9-2.08,1.86-5.29,0q-21.6-12.43-43.18-24.95c-.81-.47-1.61-1-2.77-1.66Z" transform="translate(-1.65 -251.56)"/><path class="cls-1" d="M506.57,606.39c-3.71,1.11-6.87,2.15-10.08,3a152.77,152.77,0,0,1-50.17,4.4,157.77,157.77,0,0,1-56.79-14.47c-11.48-5.43-22.14-12.15-31.35-21A56.13,56.13,0,0,1,347.1,564q-8.76-16.74-.1-33.54A58.21,58.21,0,0,1,360.07,514a113.29,113.29,0,0,1,21.8-15.15c16.46-9,34.12-14.3,52.58-17a179.24,179.24,0,0,1,43.3-1.12c18.37,1.75,36,6.09,52.77,14a115,115,0,0,1,26.42,16.81,56.33,56.33,0,0,1,12.52,14.73q8.73,15.42,1.17,31.46c-3.43,7.28-8.59,13.24-14.47,18.63A114.82,114.82,0,0,1,538,589.68c-3.35,2-6.81,3.88-10.12,6a3,3,0,0,1-3.68,0q-24.14-14-48.35-28l-57.07-33c-1.06-.61-2.12-1.76-3.14-1.72s-1.8,1.37-2.73,2.09a38.44,38.44,0,0,0-8.32,8.57c-3,4.39-3.62,9.31-3.16,14.43.18,2,1.63,3.4,2.76,4.94,5,6.8,12,10.92,19.52,14.17a63.52,63.52,0,0,0,37.06,4.42,6.18,6.18,0,0,1,4.51.81c12.91,7.53,25.86,15,38.8,22.46C504.79,605.23,505.43,605.67,506.57,606.39Zm2.87-52.67c.93-1,1.79-1.8,2.57-2.7a59,59,0,0,0,5.37-6.39c3.29-5.11,3.36-10.47.39-15.8a24,24,0,0,0-6.55-7.24A49.7,49.7,0,0,0,493.45,513c-15.57-4.14-30.85-2.74-45.9,2.56a10.69,10.69,0,0,0-1.17.63C467.46,528.88,489.06,540,509.44,553.72Z" transform="translate(-1.65 -251.56)"/><path class="cls-1" d="M876.15,806c-4.77,1.85-9.17,3.73-13.69,5.28a150,150,0,0,1-41.06,7.86,158.87,158.87,0,0,1-76.68-14.6C733.5,799.33,723,792.93,714,784.34a54.26,54.26,0,0,1-12.85-17.74,35.59,35.59,0,0,1,0-29.31,54.38,54.38,0,0,1,12.45-17.46c9.2-9,20-15.49,31.69-20.76a155,155,0,0,1,28.3-9.62,177.63,177.63,0,0,1,52.61-4.39,164,164,0,0,1,58.53,14.48,121.11,121.11,0,0,1,28,17.45,62.44,62.44,0,0,1,13.12,14.86,36.68,36.68,0,0,1,5.45,15,32.65,32.65,0,0,1-3.54,19c-4.62,9.07-11.79,15.78-20.07,21.71l-46.21-26.73c1.64-2.39,3.29-4.55,4.69-6.85,3.28-5.41,2.75-10.81-.41-16.07a23.27,23.27,0,0,0-6.67-6.81,52,52,0,0,0-24.6-9.4c-21.37-2.47-40.69,3.25-58.2,15.39a67.38,67.38,0,0,0-8.38,7.49,14,14,0,0,0-4.3,9.11,38.72,38.72,0,0,0,.22,10.48,10.2,10.2,0,0,0,3.06,5.44,43.49,43.49,0,0,0,13.69,9.07,61.41,61.41,0,0,0,29.32,4.54,77.38,77.38,0,0,0,18.76-3.75,3,3,0,0,1,2.69.34Q853,792.37,874.69,804.9C875.08,805.13,875.42,805.45,876.15,806Z" transform="translate(-1.65 -251.56)"/><path class="cls-1" d="M443.32,446.84,396,474.38c-3-1.8-5.88-3.53-8.78-5.22A83.68,83.68,0,0,0,360.3,458.8a74.45,74.45,0,0,0-39.63,3.54,106.53,106.53,0,0,0-17.29,8.23q-31.36,18.3-62.73,36.62a3.86,3.86,0,0,1-4.53-.06c-14.64-8.53-29.32-17-44-25.47-.67-.38-1.3-.84-2.31-1.49L344,390.46l46.49,26.89c-.93.59-1.62,1.07-2.35,1.5l-28,16.3a9.54,9.54,0,0,0-1.61,1,1.06,1.06,0,0,0-.21,1,1.11,1.11,0,0,0,1,.41,9.36,9.36,0,0,0,1.8-.62,97.69,97.69,0,0,1,36.37-6.47,74.42,74.42,0,0,1,43.23,14.28C441.5,445.33,442.21,446,443.32,446.84Z" transform="translate(-1.65 -251.56)"/><path class="cls-1" d="M239.24,539.45V509.92c.74-.47,1.46-.95,2.21-1.38q29.93-17.44,59.87-34.86c6.91-4,13.9-7.86,21.55-10.35a81.21,81.21,0,0,1,21.56-4.12,69.63,69.63,0,0,1,22.59,3c9.54,2.74,18.15,7.36,26.47,12.63a3,3,0,0,1,1.63,2.89c-.09,4.3,0,8.61,0,12.91-.93.44-1.64.79-2.36,1.12a91.4,91.4,0,0,0-8.64,4.14c-2.34,1.41-4.22,1.25-6.6.11a64.87,64.87,0,0,0-21.33-6,99.65,99.65,0,0,0-13.38-.49,69.44,69.44,0,0,0-17.61,3.16,101.46,101.46,0,0,0-21.25,9.25c-7.94,4.47-15.72,9.21-23.59,13.79Q261,527,241.58,538.22C240.91,538.61,240.21,538.94,239.24,539.45Z" transform="translate(-1.65 -251.56)"/><path class="cls-1" d="M220.27,309.66l101.47,58.66v29.33c-1.14.26-1.83-.54-2.6-1q-23.47-13.53-46.91-27.1-25-14.44-50-28.86A3.7,3.7,0,0,1,220,337c.14-8.23.09-16.46.11-24.69C220.13,311.58,220.2,310.89,220.27,309.66Z" transform="translate(-1.65 -251.56)"/><path class="cls-1" d="M233.85,444.53c-.9-.46-1.61-.78-2.27-1.16q-46.7-27-93.4-53.94a3.46,3.46,0,0,1-2.06-3.54c.16-6.15.09-12.31.1-18.46v-8.9c1.25.65,2.06,1.05,2.84,1.49l67.44,39c8.57,4.95,17.14,9.94,25.75,14.83A3.13,3.13,0,0,1,234.1,417C234,425.5,234,434,234,442.45,234,443.05,233.92,443.65,233.85,444.53Z" transform="translate(-1.65 -251.56)"/><path class="cls-1" d="M1081,888.13v29.62l-93.37,54.32a17,17,0,0,1-.21-1.82c0-8.54.12-17.09.09-25.64a3.38,3.38,0,0,1,1.93-3.4q44.67-25.89,89.28-51.89C1079.39,888.93,1080.09,888.61,1081,888.13Z" transform="translate(-1.65 -251.56)"/><path class="cls-1" d="M632.13,766.55v-2.63c0-8.31.07-16.62,0-24.93a3.16,3.16,0,0,1,1.85-3.2q44.79-26,89.52-52c.59-.35,1.23-.62,2.1-1,0,1,.13,1.78.13,2.55,0,6.87-.1,13.74,0,20.62a3.53,3.53,0,0,1-1.78,3.31,84.54,84.54,0,0,0-13.33,11.3,12.43,12.43,0,0,1-2.62,2q-36.56,21.3-73.13,42.56C634.11,765.54,633.34,765.92,632.13,766.55Z" transform="translate(-1.65 -251.56)"/><path class="cls-1" d="M623,630.08c.07,1.09.14,1.63.13,2.17,0,8.47-.12,16.94-.09,25.41a3.19,3.19,0,0,1-1.82,3.22q-41.88,24.29-83.71,48.66c-.6.35-1.24.62-2,1V681Z" transform="translate(-1.65 -251.56)"/><path class="cls-1" d="M978.33,835.66v29.65l-87.28,50.76a19.61,19.61,0,0,1-.24-2c0-8.55.05-17.1,0-25.65a3,3,0,0,1,1.82-3q18.66-10.8,37.29-21.68l45.78-26.64C976.44,836.68,977.2,836.28,978.33,835.66Z" transform="translate(-1.65 -251.56)"/><path class="cls-1" d="M416.76,565.12V535.87c1.77.4,104.61,59.58,108.52,62.45v2.5q0,11.74,0,23.5a13.84,13.84,0,0,1,0,1.44c-.14,1.31-.74,1.69-1.92,1-4.65-2.63-9.27-5.33-13.81-7.95-.4-3.17-.24-10.86.29-12.68-1-.58-2.14-1.17-3.22-1.8q-20.44-11.8-40.87-23.64a6.37,6.37,0,0,0-4.75-.78,52.89,52.89,0,0,1-16,.83,7.28,7.28,0,0,1-2.71-.81q-12.27-7-24.49-14.14C417.42,565.61,417.11,565.36,416.76,565.12Z" transform="translate(-1.65 -251.56)"/><path class="cls-1" d="M56.26,433.7c0-2,0-3.61,0-5.19,0-7.51.06-15,0-22.52a3,3,0,0,1,1.79-3q37.31-21.63,74.55-43.34c.54-.31,1.11-.57,1.88-1a12.11,12.11,0,0,1,.19,1.51c0,8.63-.06,17.25,0,25.88a3.2,3.2,0,0,1-1.8,3.23q-37.3,21.62-74.56,43.33C57.76,433,57.19,433.22,56.26,433.7Z" transform="translate(-1.65 -251.56)"/><path class="cls-1" d="M773.48,772.93c.91-.75,1.6-1.38,2.34-1.94A84.53,84.53,0,0,1,809,756.14a69.06,69.06,0,0,1,31.36,0A53.6,53.6,0,0,1,857,763.34a3.88,3.88,0,0,1,2,3.7c-.09,8.55,0,17.1,0,26l19.37,11.23-.29.56c-.73-.38-1.49-.71-2.2-1.12q-21.8-12.58-43.56-25.2a4.88,4.88,0,0,0-4.43-.49c-12.39,4-25,5.09-37.79,2.16a50.08,50.08,0,0,1-14.41-5.75C775,774,774.37,773.53,773.48,772.93Z" transform="translate(-1.65 -251.56)"/><path class="cls-1" d="M397,634.18a13.85,13.85,0,0,1-1.37-.39c-13.56-5.76-26.15-13.07-36.95-23.2a54.34,54.34,0,0,1-13.08-17.86,35.36,35.36,0,0,1-3-14.43c0-5.76.07-11.51.12-17.26,0-.51.12-1,.21-1.82a4.15,4.15,0,0,1,.57.76c4,10.11,11,17.89,19.29,24.64a131.28,131.28,0,0,0,32.09,18.92c2.29,1,2.26.45,2.26,3.24q0,12.94-.05,25.89C397.06,633.06,397,633.46,397,634.18Z" transform="translate(-1.65 -251.56)"/><path class="cls-1" d="M752.23,839.43c-.79-.25-1.25-.36-1.67-.54a130.75,130.75,0,0,1-30.65-17.65c-6.51-5.15-12.25-11-16.46-18.23a38.49,38.49,0,0,1-5.55-20.31c.09-6.07,0-12.14.37-18.33a5.2,5.2,0,0,1,.57.87c3.18,8.43,8.59,15.29,15.14,21.3,9.22,8.47,19.85,14.76,31.15,20,2.31,1.07,4.66,2.06,7.1,3.13Z" transform="translate(-1.65 -251.56)"/><path class="cls-1" d="M1030.63,805.13l75.59-44c.1,1,.21,1.54.21,2.13,0,8.55,0,17.1,0,25.66a2.82,2.82,0,0,1-1.63,2.83q-14.13,8.13-28.18,16.4a3.47,3.47,0,0,1-3.13.38,89.67,89.67,0,0,0-36-3.87c-2.22.21-4.43.56-6.64.85Z" transform="translate(-1.65 -251.56)"/><path class="cls-1" d="M4.85,405V375.38c1,.54,1.69.88,2.36,1.26q22.71,13.13,45.43,26.23a3.51,3.51,0,0,1,2,3.56c-.14,8.39-.11,16.78-.14,25.16v1.55a3,3,0,0,1-.34.22c-.07,0-.17.08-.22.05L6,405.83C5.55,405.55,5.11,405.21,4.85,405Z" transform="translate(-1.65 -251.56)"/><path class="cls-1" d="M485.1,682.72V652.89c16.42,9.4,32.45,18.74,48.52,28v29.87Z" transform="translate(-1.65 -251.56)"/><path class="cls-1" d="M237.29,539.43c-1-.53-1.67-.9-2.35-1.29-14.65-8.46-29.28-17-44-25.36a3.67,3.67,0,0,1-2.19-3.72c.13-8.31.08-16.61.09-24.91V482a11,11,0,0,1,1.65.62q22.81,13.15,45.62,26.33a2.49,2.49,0,0,1,1.57,2.39c-.11,8.94-.16,17.88-.23,26.82A10.85,10.85,0,0,1,237.29,539.43Z" transform="translate(-1.65 -251.56)"/><path class="cls-1" d="M937.48,914.34l48.33,27.92v29.67c-.87-.42-1.51-.67-2.11-1Q961.29,958,938.86,945a2.82,2.82,0,0,1-1.73-2.79c.11-8.71.11-17.43.15-26.14C937.29,915.63,937.38,915.18,937.48,914.34Z" transform="translate(-1.65 -251.56)"/><path class="cls-1" d="M840.68,858.47c1,.56,1.74.91,2.42,1.3,14.66,8.47,29.31,17,44,25.38a3.69,3.69,0,0,1,2.13,3.77c-.12,8.3-.09,16.61-.12,24.92,0,.63-.07,1.25-.12,2.11-.72-.32-1.29-.53-1.81-.83l-45-26c-1-.58-1.76-1.12-1.74-2.52.09-8.87.08-17.74.11-26.61C840.54,859.6,840.61,859.22,840.68,858.47Z" transform="translate(-1.65 -251.56)"/><path class="cls-1" d="M630.28,766.51c-.91-.47-1.54-.77-2.15-1.12q-22.2-12.81-44.41-25.62a3.33,3.33,0,0,1-2-3.34c.11-8.38.07-16.77.09-25.16,0-.64.06-1.27.11-2.17a15.05,15.05,0,0,1,1.79.76q22.63,13,45.25,26.09a2.63,2.63,0,0,1,1.54,2.64c-.06,8.87-.05,17.74-.07,26.61C630.41,765.51,630.35,765.82,630.28,766.51Z" transform="translate(-1.65 -251.56)"/><path class="cls-1" d="M860.69,762.39c1,.52,1.64.83,2.25,1.19,14,8.06,27.9,16.16,41.88,24.17a3.49,3.49,0,0,1,2.1,3.53c-.11,7.82-.07,15.65-.08,23.47,0,.4,0,.8,0,1.2a1.61,1.61,0,0,1-2.52,1.4c-.43-.2-.83-.48-1.25-.71q-20.31-11.75-40.65-23.45a3.18,3.18,0,0,1-1.88-3.18c.09-8.38,0-16.76.05-25.15C860.57,764.16,860.64,763.45,860.69,762.39Z" transform="translate(-1.65 -251.56)"/><path class="cls-1" d="M366.18,343.88c.05.92.11,1.61.11,2.31q0,11.85-.08,23.71c0,.71-.1,1.43-.07,2.15a2.1,2.1,0,0,1-1.27,2.08q-20.19,11.7-40.37,23.44a4.9,4.9,0,0,1-.84.29,9.62,9.62,0,0,1-.27-1.59c0-8.7.07-17.4.08-26.1a2.56,2.56,0,0,1,1.32-2.55q20.2-11.69,40.37-23.44A5.34,5.34,0,0,1,366.18,343.88Z" transform="translate(-1.65 -251.56)"/><path class="cls-1" d="M278.36,390.35c.05,1,.11,1.7.11,2.4,0,8.39-.08,16.78,0,25.16a3.06,3.06,0,0,1-1.76,3q-19.5,11.26-39,22.62c-.53.31-1.09.55-1.88.94-.07-.93-.17-1.61-.17-2.3,0-8.46.06-16.93.05-25.4a2.64,2.64,0,0,1,1.42-2.7q20-11.56,40-23.22C277.4,390.72,277.71,390.62,278.36,390.35Z" transform="translate(-1.65 -251.56)"/><path class="cls-1" d="M396.64,490c0-4.6,0-8.91,0-13.22a2.55,2.55,0,0,1,.79-1.33,3.68,3.68,0,0,1,1-.63l43.08-25.1c.61-.35,1.23-.66,2.08-1.11V478.4a13.65,13.65,0,0,1-2.95,1,173.51,173.51,0,0,0-42.09,10C398.08,489.58,397.55,489.73,396.64,490Z" transform="translate(-1.65 -251.56)"/><path class="cls-1" d="M181.46,331.24c12.5-7.3,24.59-14.33,37-21.52.07,1.17.14,1.86.14,2.55,0,8.38-.05,16.77,0,25.15a3,3,0,0,1-1.73,3c-3.22,1.76-6.36,3.67-9.73,5.63Z" transform="translate(-1.65 -251.56)"/><path class="cls-1" d="M842,848.2V818.52l17.6-4.36v29.45C857.09,845,846.67,847.7,842,848.2Z" transform="translate(-1.65 -251.56)"/><path class="cls-1" d="M556.32,578.85c0,6.95,0,13.57,0,20.19,0,2.4-.09,4.79-.05,7.18a2.89,2.89,0,0,1-1.19,2.69c-.71.51-1.31,1.19-2.06,1.63-4.54,2.68-9.1,5.3-13.66,7.94a2.09,2.09,0,0,1-.63,0v-27Z" transform="translate(-1.65 -251.56)"/><path class="cls-1" d="M799.31,727.28v29.48l-16.7,7.41c0-.61-.1-1.2-.1-1.8,0-8.54,0-17.09,0-25.63a2.65,2.65,0,0,1,1.61-2.85c4.65-2.07,9.28-4.21,13.93-6.31A8,8,0,0,1,799.31,727.28Z" transform="translate(-1.65 -251.56)"/><path class="cls-1" d="M1100.7,874.84c0,.81.12,1.57.12,2.33,0,8.22-.06,16.44,0,24.65a3.39,3.39,0,0,1-1.36,3.08c-4.38,3.19-8.73,6.43-13.1,9.63a9.35,9.35,0,0,1-1.28.64c-.06-.7-.14-1.2-.14-1.71q0-12.91.07-25.84c0-1,0-1.93,1.09-2.67C1090.89,881.71,1095.64,878.35,1100.7,874.84Z" transform="translate(-1.65 -251.56)"/><path class="cls-1" d="M502.16,609.62v29.8a102.86,102.86,0,0,1-15.29,3.78V613.41Z" transform="translate(-1.65 -251.56)"/><path class="cls-1" d="M861.41,813.58,877,807.41c0,.87.13,1.56.13,2.25,0,7.58,0,15.15,0,22.73a2.81,2.81,0,0,1-1.61,2.84c-4.11,2.29-8.15,4.71-12.22,7.06-.52.3-1.1.49-1.87.84Z" transform="translate(-1.65 -251.56)"/><path class="cls-1" d="M848.73,727.22c6.09,2.72,11.47,5.76,15.23,11a13,13,0,0,1,1.41,13.6,37.12,37.12,0,0,1-3.7,5.85c-1,1.49-2.85,2.48-2.74,4.75l-10.2-5.48Z" transform="translate(-1.65 -251.56)"/><path class="cls-1" d="M745.35,669.1V697l-15.59,8.17a8.28,8.28,0,0,1-.27-1.51c0-7.11.08-14.22,0-21.34a3.47,3.47,0,0,1,1.81-3.26c4.18-2.81,8.21-5.81,12.31-8.74C744.12,669.94,744.62,669.6,745.35,669.1Z" transform="translate(-1.65 -251.56)"/><path class="cls-1" d="M411.09,639.34l-12.37-4.23V605.2l12.37,4.12Z" transform="translate(-1.65 -251.56)"/><path class="cls-1" d="M766.57,814.64v30l-12.45-4.23v-30Z" transform="translate(-1.65 -251.56)"/><path class="cls-1" d="M878.85,833.23v-28.7l24.75,14.3Z" transform="translate(-1.65 -251.56)"/><path class="cls-1" d="M635.6,653.79l-10.94,4.79c-.14-9.91.09-19.59,0-29.39a54.66,54.66,0,0,1,10.79-5.06C636.1,626.29,636.17,646.66,635.6,653.79Z" transform="translate(-1.65 -251.56)"/><path class="cls-1" d="M980.18,834.54a54.7,54.7,0,0,1,11.05-5v29.67L980.18,864Z" transform="translate(-1.65 -251.56)"/><path class="cls-1" d="M840.17,848.75l-10.79,1.53c-.23-10.12.11-20,0-30l10.82-1.49Z" transform="translate(-1.65 -251.56)"/><path class="cls-1" d="M422.81,641.94a6.6,6.6,0,0,1-1.37,0c-2.79-.67-5.56-1.37-8.46-2.1v-30l9.83,2.38Z" transform="translate(-1.65 -251.56)"/><path class="cls-1" d="M474.94,645V615.07l10.1-1.44c.22,10-.1,19.82,0,29.86A60.64,60.64,0,0,1,474.94,645Z" transform="translate(-1.65 -251.56)"/><path class="cls-1" d="M778,847.53c-3.14-.79-6.07-1.47-9-2.31-.39-.11-.76-1-.78-1.5-.07-1.75.05-3.51.06-5.26q0-10.41.07-20.82c0-.77,0-1.54,0-2.51l9.61,2.36Z" transform="translate(-1.65 -251.56)"/><path class="cls-1" d="M1024.77,860c.17-9.92.33-19.6.5-29.73a25.9,25.9,0,0,1,3,1.43,56.75,56.75,0,0,1,7,4.88c4.73,4.24,5.11,9.14,1.34,14.24-2.85,3.85-6.65,6.6-10.73,9A5.45,5.45,0,0,1,1024.77,860Z" transform="translate(-1.65 -251.56)"/><path class="cls-1" d="M801.13,726.41l9.41-2.31V754l-9.41,2.32Z" transform="translate(-1.65 -251.56)"/><path class="cls-1" d="M669.76,624.74c5.07,2.27,9.75,4.72,12.72,9.46a8.18,8.18,0,0,1,.59,7.8,18.15,18.15,0,0,1-2.29,3.89A32,32,0,0,1,670,654.4a1,1,0,0,1-.22-.09.31.31,0,0,1-.12-.18q0-13.86-.08-27.72C669.61,626,669.69,625.49,669.76,624.74Z" transform="translate(-1.65 -251.56)"/><path class="cls-1" d="M464.73,615.77l8.51-.57c.19,10,0,19.95-.07,30l-8.26.61C464.27,644,464.14,618.68,464.73,615.77Z" transform="translate(-1.65 -251.56)"/><path class="cls-1" d="M433.33,644.14l-8.7-1.52v-30l8.7,1.47Z" transform="translate(-1.65 -251.56)"/><path class="cls-1" d="M788.26,849.38l-8.4-1.51v-30l8.4,1.44Z" transform="translate(-1.65 -251.56)"/><path class="cls-1" d="M819,821l8.65-.63c.21,10,0,19.82,0,29.9-2.92.63-5.74.44-8.7.72Z" transform="translate(-1.65 -251.56)"/><path class="cls-1" d="M780.9,735.75c.06,1.32.12,2,.12,2.71,0,8.22-.07,16.44,0,24.66a3.69,3.69,0,0,1-2,3.67c-2.17,1.3-4.16,2.89-6.48,4.52-.08-.73-.18-1.24-.18-1.75,0-8.22.09-16.43,0-24.65a5,5,0,0,1,2.31-4.6C776.64,739,778.53,737.5,780.9,735.75Z" transform="translate(-1.65 -251.56)"/><path class="cls-1" d="M454.83,616h7.85v29.77h-7.85Z" transform="translate(-1.65 -251.56)"/><path class="cls-1" d="M443,645.29l-7.83-.92v-30l7.78.79C443.42,616.84,443.48,642.14,443,645.29Z" transform="translate(-1.65 -251.56)"/><path class="cls-1" d="M817.08,821.15V851h-7.69c-.56-1.68-.49-27.26.11-29.8Z" transform="translate(-1.65 -251.56)"/><path class="cls-1" d="M452.91,645.92l-7.83-.5V615.75h7.83Z" transform="translate(-1.65 -251.56)"/><path class="cls-1" d="M807.22,851.06l-7.17-.42c-.56-1.91-.6-27.45,0-30l7,.36C807.58,822.66,807.73,846.06,807.22,851.06Z" transform="translate(-1.65 -251.56)"/><path class="cls-1" d="M790.35,819.58l7.5.87v30l-7.42-.78C789.9,848,789.83,822.54,790.35,819.58Z" transform="translate(-1.65 -251.56)"/><path class="cls-1" d="M534.8,593.51v5.35c0,6.78-.08,13.56,0,20.34a2.92,2.92,0,0,1-1.76,3c-2,1-3.84,2.16-6,3.41-.09-.93-.19-1.52-.19-2.12,0-7.81.07-15.63.05-23.44a2.77,2.77,0,0,1,1.58-2.88C530.45,596.15,532.38,594.91,534.8,593.51Z" transform="translate(-1.65 -251.56)"/><path class="cls-1" d="M915.79,783.43v28.29l-7.13,4.18c-.08-1.1-.17-1.78-.17-2.46,0-7.58.06-15.15,0-22.73a3,3,0,0,1,1.38-2.79C911.81,786.61,913.58,785.13,915.79,783.43Z" transform="translate(-1.65 -251.56)"/><path class="cls-1" d="M564.16,571.24c0,.6.14,1.28.14,2,0,8.16-.06,16.31,0,24.46a4.08,4.08,0,0,1-1.08,3c-1.59,1.67-3.11,3.4-5,5.44a13,13,0,0,1-.33-1.89c0-8.55,0-17.1,0-25.66a3.25,3.25,0,0,1,1.13-2.72C560.71,574.4,562.35,572.88,564.16,571.24Z" transform="translate(-1.65 -251.56)"/><path class="cls-1" d="M998.15,857.49l-5,1.2v-29.9l5-1.3Z" transform="translate(-1.65 -251.56)"/><path class="cls-1" d="M637.64,623.39l5-1.32v30l-5,1.25Z" transform="translate(-1.65 -251.56)"/><path class="cls-1" d="M922.56,777.09v10.28c0,5.34,0,10.69,0,16a4.69,4.69,0,0,1-1.34,3.66c-1.12,1.11-2.15,2.3-3.53,3.79a11.74,11.74,0,0,1-.35-2c0-8.54.09-17.08.11-25.61a3,3,0,0,1,1-2.55C919.8,779.61,921.06,778.43,922.56,777.09Z" transform="translate(-1.65 -251.56)"/><path class="cls-1" d="M812.33,723.84l4.58-.68v30l-4.58.69Z" transform="translate(-1.65 -251.56)"/><path class="cls-1" d="M1102.43,901.85V899c0-7.91.08-15.82,0-23.73a5,5,0,0,1,1.87-4.36c.93-.73,1.74-1.62,2.78-2.61a14.16,14.16,0,0,1,.21,1.62c0,8.15-.13,16.3-.08,24.45a5.78,5.78,0,0,1-1.84,4.68A19.15,19.15,0,0,1,1102.43,901.85Z" transform="translate(-1.65 -251.56)"/><path class="cls-1" d="M751.79,662.7v4.51c0,7.25-.08,14.5,0,21.75a5.54,5.54,0,0,1-1.7,4.48c-.92.84-1.72,1.8-2.89,3a18.2,18.2,0,0,1-.24-2c0-8.29,0-16.57,0-24.86a4.58,4.58,0,0,1,1.74-3.94C749.67,664.91,750.51,664,751.79,662.7Z" transform="translate(-1.65 -251.56)"/><path class="cls-1" d="M415.06,536.17V539c0,7.73-.15,15.46,0,23.19,0,2.27-.56,3.82-2.54,4.86-.35.18-.66.42-1.21.78a10.54,10.54,0,0,1-.3-1.64c0-8.61,0-17.22,0-25.83a2.89,2.89,0,0,1,1.25-2.64c.77-.54,1.48-1.15,2.22-1.73Z" transform="translate(-1.65 -251.56)"/><path class="cls-1" d="M391.27,419v10a129.52,129.52,0,0,0-22.94,3.7C375.76,427.9,383.39,423.55,391.27,419Z" transform="translate(-1.65 -251.56)"/><path class="cls-1" d="M504,638.49V609l3.55-1.3V637C506.35,637.56,505.48,638.73,504,638.49Z" transform="translate(-1.65 -251.56)"/><path class="cls-1" d="M846.86,756.36l-3.2-1V725.47c.78.2,1.3.31,1.8.48s.88.36,1.4.59Z" transform="translate(-1.65 -251.56)"/><path class="cls-1" d="M509.36,636V621.13c1.71.37,10.61,5.37,13,7.3Z" transform="translate(-1.65 -251.56)"/><path class="cls-1" d="M818.67,723.05l3.12-.24v30l-3.16.2C818.41,742.9,818.66,733.06,818.67,723.05Z" transform="translate(-1.65 -251.56)"/><path class="cls-1" d="M569,565.07v2.29c0,7.42-.15,14.84,0,22.26.06,2.72-1,4.71-2.79,6.9a8.7,8.7,0,0,1-.3-1.5c0-8.45.05-16.91,0-25.37,0-2.12,1.59-3.18,2.51-4.69Z" transform="translate(-1.65 -251.56)"/><path class="cls-1" d="M412.77,568.87l3.06-2.29,22,12.7C433.37,580,417.91,573.59,412.77,568.87Z" transform="translate(-1.65 -251.56)"/><path class="cls-1" d="M924.13,803V785.2c0-2.64.06-5.27,0-7.91a6.19,6.19,0,0,1,2.29-5.44,5.82,5.82,0,0,1,.32,1.28c0,8.23-.09,16.45-.1,24.68C926.62,799.78,925.77,801.26,924.13,803Z" transform="translate(-1.65 -251.56)"/><path class="cls-1" d="M826.18,752.68h-2.49V722.81l2.46-.17C826.31,732.67,826.11,742.53,826.18,752.68Z" transform="translate(-1.65 -251.56)"/><path class="cls-1" d="M1023.09,859.13l-2.13-.63V828.76c2.37.51,2.44.51,2.44,2,0,9.19-.06,18.37-.1,27.55A4.63,4.63,0,0,1,1023.09,859.13Z" transform="translate(-1.65 -251.56)"/><path class="cls-1" d="M646.6,651.39l-2.09.22V621.92l2.09-.48Z" transform="translate(-1.65 -251.56)"/><path class="cls-1" d="M667.74,653.67l-2.25-.61V623.14l2.25.53Z" transform="translate(-1.65 -251.56)"/><path class="cls-1" d="M839.55,724.37l2.3.49v29.9l-2.3-.52Z" transform="translate(-1.65 -251.56)"/><path class="cls-1" d="M1000,827.2l2.18-.15v29.66l-2.18.47Z" transform="translate(-1.65 -251.56)"/><path class="cls-1" d="M830,752.75h-2.14c-.31-10,.08-19.84,0-29.84a3,3,0,0,1,2.12.19Z" transform="translate(-1.65 -251.56)"/><path class="cls-1" d="M688.09,590.68v7.64l-15,1.38C674.16,598.45,683.65,592.73,688.09,590.68Z" transform="translate(-1.65 -251.56)"/><path class="cls-1" d="M770.79,744.54v25.79c-2-.67-2.42-1.09-2.42-2.73,0-6.64.07-13.27,0-19.9,0-1.64,1.08-2.35,1.91-3.34Z" transform="translate(-1.65 -251.56)"/><path class="cls-1" d="M831.87,723.16c2,.17,2,.17,2,1.92q0,9.09,0,18.18,0,3.71,0,7.42c0,.78-.07,1.55-.1,2.32-2,0-2,0-2-1.44-.05-2.71,0-5.42,0-8.13q0-9.09.07-18.18C831.78,724.62,831.83,724,831.87,723.16Z" transform="translate(-1.65 -251.56)"/><path class="cls-1" d="M837.62,753.6c-1.64.35-2.11-.31-2.09-1.63,0-3,0-6.06,0-9.09q0-8.6.07-17.21c0-.62.07-1.25.12-2.08l1.89.37Z" transform="translate(-1.65 -251.56)"/><path class="cls-1" d="M409.32,540.78v25.05c-1.35-.61-2-1.35-2-2.59,0-6.54.09-13.09.1-19.63C407.47,542.35,408.09,541.59,409.32,540.78Z" transform="translate(-1.65 -251.56)"/><path class="cls-1" d="M1108.79,894.21V882.39c0-4.95.07-9.9,0-14.85a3.88,3.88,0,0,1,1.65-3.49,10.05,10.05,0,0,1,.24,1.54c0,8.23,0,16.45,0,24.68A5,5,0,0,1,1108.79,894.21Z" transform="translate(-1.65 -251.56)"/><path class="cls-1" d="M662.47,622c.67.61,1.16.85,1.25,1.19a7.4,7.4,0,0,1,.11,1.89q0,11.83-.09,23.66c0,1.17-.12,2.35-.22,4.16-.7-.77-1.1-1.06-1.27-1.45a3.07,3.07,0,0,1-.06-1.18q0-13.14.11-26.28C662.3,623.52,662.38,623.06,662.47,622Z" transform="translate(-1.65 -251.56)"/><path class="cls-1" d="M755.23,658.56v8.71c0,5.84-.05,11.67,0,17.51a4.24,4.24,0,0,1-1.51,3.61,8.4,8.4,0,0,1-.32-1.55c0-8.39.07-16.78.08-25.18A3.35,3.35,0,0,1,755.23,658.56Z" transform="translate(-1.65 -251.56)"/><path class="cls-1" d="M1019.13,857.72c-1.57.19-1.51-.71-1.51-1.51q0-4.9,0-9.83,0-8,0-16V828c1-.3,1.52,0,1.55.8,0,1.2,0,2.4,0,3.59q0,11.39,0,22.77Z" transform="translate(-1.65 -251.56)"/><path class="cls-1" d="M1015.43,826.88c.35.58.64.83.64,1.07q0,14.38-.1,28.77c0,.21-.21.42-.45.88a6.4,6.4,0,0,1-.66-1.38C1014.54,853.72,1015,828.6,1015.43,826.88Z" transform="translate(-1.65 -251.56)"/><path class="cls-1" d="M1005.09,826.48a20.43,20.43,0,0,1,.23,2.08q0,13.14-.07,26.3a2.47,2.47,0,0,1-.1,1.17c-.18.3-.64.44-1.22.8-.08-.93-.19-1.54-.19-2.15q.06-12.91.14-25.83a5.67,5.67,0,0,1,.14-1.65C1004.09,827,1004.56,826.82,1005.09,826.48Z" transform="translate(-1.65 -251.56)"/><path class="cls-1" d="M648.58,651.18V621c.64.41,1.11.55,1.29.86a2.47,2.47,0,0,1,.1,1.17q-.06,13-.15,26.08C649.82,649.91,650.17,651,648.58,651.18Z" transform="translate(-1.65 -251.56)"/><path class="cls-1" d="M652,620.78c.37.64.66.93.7,1.24.45,3.23-.1,27.67-.84,29.55a13.85,13.85,0,0,1-.4-2.1q0-11.15,0-22.28c0-1.68,0-3.36,0-5A6.47,6.47,0,0,1,652,620.78Z" transform="translate(-1.65 -251.56)"/><path class="cls-1" d="M1010.65,826.88c.16,9.8.06,19.59-.13,29.67-1.2-.73-.87-1.6-.87-2.3,0-5,.06-10,.09-15.08,0-3.35,0-6.7,0-10.06v-2.27Z" transform="translate(-1.65 -251.56)"/><path class="cls-1" d="M1013,856.72c-.94-1.89-.88-27.78-.21-30.05a6,6,0,0,1,.48,1.42q0,13.78,0,27.58A4.94,4.94,0,0,1,1013,856.72Z" transform="translate(-1.65 -251.56)"/><path class="cls-1" d="M657.6,651.2c-1-1.92-1-27.73-.3-29.8.78.63.57,1.45.57,2.15,0,6.07,0,12.13-.07,18.2,0,2.55,0,5.11,0,7.66C657.76,650,657.65,650.6,657.6,651.2Z" transform="translate(-1.65 -251.56)"/><path class="cls-1" d="M1007.3,856.36c-.51-1.9-.46-27.8.07-29.64,1,.14.71.91.71,1.46,0,3.1,0,6.21,0,9.31,0,5.5,0,11,0,16.49,0,.81-.11,1.61-.17,2.42Z" transform="translate(-1.65 -251.56)"/><path class="cls-1" d="M660.26,621.88a3.41,3.41,0,0,1,.32,1q0,14.32,0,28.66l-.54.12c-.2-.34-.55-.66-.57-1-.05-1.27,0-2.55,0-3.83q0-11.13,0-22.28V622Z" transform="translate(-1.65 -251.56)"/><path class="cls-1" d="M654.8,621.48c.66,1.66.64,27.4,0,29.46a1,1,0,0,1-.24,0s-.14-.09-.14-.14q-.07-11.59-.13-23.18c0-2.06,0-4.11,0-6.17Z" transform="translate(-1.65 -251.56)"/><path class="cls-1" d="M571.72,560c0,.67.11,1.21.11,1.76,0,7.75,0,15.5-.06,23.25a19.67,19.67,0,0,1-.52,3.1l-.53,0c0-.34-.09-.69-.09-1q0-12.1.09-24.2C570.72,561.88,570.44,560.76,571.72,560Z" transform="translate(-1.65 -251.56)"/><path class="cls-1" d="M928.37,794.88q0-13.23,0-26.47c0-.25.31-.5.92-.69,0,4.55.07,9.09,0,13.63s.26,9.07-.22,13.57Z" transform="translate(-1.65 -251.56)"/><ellipse class="cls-1" cx="1081.44" cy="649.99" rx="0.18" ry="20.18"/><path class="cls-1" d="M536.39,619.42v-26C537.13,602.08,536.66,610.71,536.39,619.42Z" transform="translate(-1.65 -251.56)"/><ellipse class="cls-1" cx="1110.77" cy="622.98" rx="0.11" ry="18.02"/><path class="cls-1" d="M727.7,682V706.1h-.28v-24Z" transform="translate(-1.65 -251.56)"/><path class="cls-1" d="M757.11,672.55V656.6h.15v15.9Z" transform="translate(-1.65 -251.56)"/><path class="cls-1" d="M766.56,749.88v15.87h-.49c-.05-5.29-.06-10.58,0-15.87Z" transform="translate(-1.65 -251.56)"/><ellipse class="cls-1" cx="403.86" cy="301.94" rx="0.14" ry="10.25"/><path class="cls-1" d="M509.44,553.72c-20.38-13.7-42-24.84-63.06-37.53a10.69,10.69,0,0,1,1.17-.63c15.05-5.3,30.33-6.7,45.9-2.56a49.7,49.7,0,0,1,17.77,8.59,24,24,0,0,1,6.55,7.24c3,5.33,2.9,10.69-.39,15.8A59,59,0,0,1,512,551C511.23,551.92,510.37,552.75,509.44,553.72Zm.16-2.79a24.41,24.41,0,0,0,7.26-8.67,12.77,12.77,0,0,0-.64-12.8,25.19,25.19,0,0,0-3.58-4.46,38.47,38.47,0,0,0-11.58-7.53,4.8,4.8,0,0,0-1.29-.14c0,9.08,0,18,0,26.94a1.79,1.79,0,0,0,1.14,1.65Zm-11.5-6.78V516.22l-3.48-1c-.05.93-.09,1.48-.09,2,0,7.6,0,15.19-.09,22.78,0,1.67.43,2.75,2,3.33A18.45,18.45,0,0,1,498.1,544.15Zm-7.87-4.48c.56.34,1.09.68,1.65,1a3.58,3.58,0,0,0,.89.15V514.51l-2.54-.61ZM471.71,529V512.4l-3.47.16c0,4.65,0,9.09,0,13.54a2.05,2.05,0,0,0,.79,1.33A22.94,22.94,0,0,0,471.71,529Zm14.6-15.74a3.16,3.16,0,0,0-.28.72c0,7.32-.09,14.64-.09,22,0,1.62.2,1.74,2.4,2.19v-24.6Zm-8.2-.83a5.06,5.06,0,0,0-.24.81c0,6-.09,12-.09,17.95,0,1.64.16,1.73,2.48,2.27V512.51Zm-11.47.33-4.63.69v10l4.63,2.55Zm15.75-.12c-.18.43-.29.57-.29.72,0,6.79-.08,13.58-.08,20.37,0,1.58.09,1.59,2.32,2.1V513Zm-8.92-.24v17.67l2.69,1.38v-19Zm-13.17,1.23L452,515.75a1.66,1.66,0,0,0,.95,2.41c1.93,1.1,3.84,2.24,5.79,3.33a12.43,12.43,0,0,0,1.59.61Z" transform="translate(-1.65 -251.56)"/><path class="cls-1" d="M509.6,550.93l-8.7-5a1.79,1.79,0,0,1-1.14-1.65c0-8.93,0-17.86,0-26.94a4.8,4.8,0,0,1,1.29.14A38.47,38.47,0,0,1,512.64,525a25.19,25.19,0,0,1,3.58,4.46,12.77,12.77,0,0,1,.64,12.8A24.41,24.41,0,0,1,509.6,550.93Z" transform="translate(-1.65 -251.56)"/><path class="cls-1" d="M498.1,544.15a18.45,18.45,0,0,0-1.66-.82c-1.57-.58-2-1.66-2-3.33.11-7.59.07-15.18.09-22.78,0-.55,0-1.1.09-2l3.48,1Z" transform="translate(-1.65 -251.56)"/><path class="cls-1" d="M490.23,539.67V513.9l2.54.61V540.8a3.58,3.58,0,0,1-.89-.15C491.32,540.35,490.79,540,490.23,539.67Z" transform="translate(-1.65 -251.56)"/><path class="cls-1" d="M471.71,529a22.94,22.94,0,0,1-2.65-1.55,2.05,2.05,0,0,1-.79-1.33c-.06-4.45,0-8.89,0-13.54l3.47-.16Z" transform="translate(-1.65 -251.56)"/><path class="cls-1" d="M486.31,513.24l2,.27v24.6c-2.2-.45-2.4-.57-2.4-2.19,0-7.32.05-14.64.09-22A3.16,3.16,0,0,1,486.31,513.24Z" transform="translate(-1.65 -251.56)"/><path class="cls-1" d="M478.11,512.41l2.15.1v20.93c-2.32-.54-2.48-.63-2.48-2.27,0-6,.05-12,.09-17.95A5.06,5.06,0,0,1,478.11,512.41Z" transform="translate(-1.65 -251.56)"/><path class="cls-1" d="M466.64,512.74V526L462,523.41v-10Z" transform="translate(-1.65 -251.56)"/><path class="cls-1" d="M482.39,512.62l1.95.37v22.82c-2.23-.51-2.32-.52-2.32-2.1,0-6.79.05-13.58.08-20.37C482.1,513.19,482.21,513.05,482.39,512.62Z" transform="translate(-1.65 -251.56)"/><path class="cls-1" d="M473.47,512.38h2.69v19l-2.69-1.38Z" transform="translate(-1.65 -251.56)"/><path class="cls-1" d="M460.3,513.61v8.49a12.43,12.43,0,0,1-1.59-.61c-1.95-1.09-3.86-2.23-5.79-3.33a1.66,1.66,0,0,1-.95-2.41Z" transform="translate(-1.65 -251.56)"/></g></svg>