<?xml version="1.0" encoding="UTF-8"?><svg id="Ebene_1" xmlns="http://www.w3.org/2000/svg" viewBox="0 0 171.44 140.47"><defs><style>.cls-1{stroke:#be1622;}.cls-1,.cls-2,.cls-3,.cls-4,.cls-5,.cls-6{stroke-linejoin:round;}.cls-1,.cls-6{fill:none;}.cls-2{fill:#b7e1f6;}.cls-2,.cls-3,.cls-4,.cls-5{stroke:#1d1d1b;}.cls-3{fill:#efb3b1;}.cls-4{fill:#fff;}.cls-5{fill:#bddec8;}.cls-6{stroke:#cbe8f3;stroke-width:.5px;}</style></defs><rect class="cls-5" x="37.92" y="28.85" width="120.66" height="81.6" transform="translate(62.98 -45.5) rotate(37.64)"/><line class="cls-1" x1="66.26" y1="13.2" x2="161.01" y2="86.26"/><g><line class="cls-6" x1="61.07" y1="19.93" x2="155.81" y2="92.99"/><line class="cls-6" x1="54.9" y1="27.93" x2="149.64" y2="100.99"/><line class="cls-6" x1="48.73" y1="35.93" x2="143.47" y2="109"/><line class="cls-6" x1="42.56" y1="43.94" x2="137.3" y2="117"/><line class="cls-6" x1="36.39" y1="51.94" x2="131.13" y2="125"/><line class="cls-6" x1="30.22" y1="59.94" x2="124.96" y2="133"/></g><g><rect class="cls-3" x="26.37" y="34.29" width="120.66" height="81.6" transform="translate(44.05 -31.38) rotate(27.28)"/><line class="cls-1" x1="45.08" y1="25.31" x2="151.42" y2="80.14"/><g><line class="cls-6" x1="41.18" y1="32.87" x2="147.52" y2="87.7"/><line class="cls-6" x1="36.55" y1="41.85" x2="142.89" y2="96.68"/><line class="cls-6" x1="31.92" y1="50.83" x2="138.26" y2="105.66"/><line class="cls-6" x1="27.29" y1="59.81" x2="133.63" y2="114.64"/><line class="cls-6" x1="22.66" y1="68.79" x2="129" y2="123.62"/><line class="cls-6" x1="18.03" y1="77.77" x2="124.37" y2="132.6"/></g></g><g><rect class="cls-2" x="10.31" y="47.12" width="120.66" height="81.6" transform="translate(18.81 -12.25) rotate(11.42)"/><line class="cls-1" x1="17.01" y1="51.41" x2="134.28" y2="75.1"/><g><line class="cls-6" x1="15.32" y1="59.75" x2="132.6" y2="83.44"/><line class="cls-6" x1="13.32" y1="69.65" x2="130.6" y2="93.34"/><line class="cls-6" x1="11.32" y1="79.55" x2="128.59" y2="103.24"/><line class="cls-6" x1="9.32" y1="89.46" x2="126.59" y2="113.15"/><line class="cls-6" x1="7.32" y1="99.36" x2="124.59" y2="123.05"/><line class="cls-6" x1="5.32" y1="109.27" x2="122.59" y2="132.96"/></g></g><g><rect class="cls-4" x=".5" y="58.38" width="120.66" height="81.6"/><line class="cls-1" x1="1.03" y1="74" x2="120.67" y2="74"/><g><line class="cls-6" x1="1.03" y1="82.51" x2="120.67" y2="82.51"/><line class="cls-6" x1="1.03" y1="92.61" x2="120.67" y2="92.61"/><line class="cls-6" x1="1.03" y1="102.72" x2="120.67" y2="102.72"/><line class="cls-6" x1="1.03" y1="112.82" x2="120.67" y2="112.82"/><line class="cls-6" x1="1.03" y1="122.92" x2="120.67" y2="122.92"/><line class="cls-6" x1="1.03" y1="133.03" x2="120.67" y2="133.03"/></g></g></svg>